<svg width="1453" height="401" viewBox="0 0 1453 401" fill="none" xmlns="http://www.w3.org/2000/svg">
<mask id="mask0_3723_51120" style="mask-type:luminance" maskUnits="userSpaceOnUse" x="0" y="0" width="190" height="28">
<path d="M190 0H0V28H190V0Z" fill="white"/>
</mask>
<g mask="url(#mask0_3723_51120)">
<path d="M31.9212 22.0761L26.7094 27.6178C26.5967 27.7382 26.4602 27.8342 26.3083 27.8999C26.1566 27.9657 25.9927 27.9997 25.8271 27.9999H1.12117C1.00333 27.9998 0.888075 27.9657 0.789504 27.9016C0.690936 27.8376 0.613336 27.7465 0.566204 27.6394C0.519072 27.5323 0.504454 27.4139 0.524142 27.2987C0.54383 27.1835 0.596966 27.0764 0.677048 26.9907L5.88293 21.449C5.99567 21.3287 6.13217 21.2326 6.28399 21.1669C6.43578 21.1012 6.59964 21.0671 6.76528 21.0669H31.4712C31.59 21.0645 31.7071 21.097 31.8073 21.1604C31.9076 21.2237 31.9871 21.3151 32.035 21.4229C32.0832 21.5308 32.0979 21.6504 32.0776 21.7666C32.0573 21.8829 32.0029 21.9905 31.9212 22.0761ZM26.7094 10.914C26.5963 10.7942 26.4596 10.6986 26.3079 10.6328C26.1562 10.5672 25.9926 10.5328 25.8271 10.532H1.12117C1.00333 10.532 0.888075 10.5662 0.789504 10.6302C0.690936 10.6942 0.613336 10.7854 0.566204 10.8925C0.519072 10.9996 0.504454 11.118 0.524142 11.2332C0.54383 11.3484 0.596966 11.4554 0.677048 11.5411L5.88293 17.0857C5.99608 17.2055 6.1327 17.3012 6.2844 17.3669C6.43611 17.4326 6.59975 17.4669 6.76528 17.4678H31.4712C31.5888 17.4672 31.7035 17.4326 31.8018 17.3684C31.9 17.3041 31.9771 17.213 32.0238 17.106C32.0706 16.999 32.085 16.8808 32.065 16.7659C32.0453 16.6509 31.9923 16.5442 31.9123 16.4586L26.7094 10.914ZM1.12117 6.93278H25.8271C25.9927 6.93264 26.1566 6.8986 26.3083 6.83286C26.4602 6.76715 26.5967 6.67107 26.7094 6.5507L31.9212 1.00905C32.0029 0.923452 32.0573 0.815766 32.0776 0.699539C32.0979 0.583313 32.0832 0.463739 32.035 0.355863C31.9871 0.247987 31.9076 0.156631 31.8073 0.0932885C31.7071 0.0299461 31.59 -0.00255208 31.4712 -0.000116623H6.76528C6.59964 5.62885e-05 6.43578 0.034072 6.28399 0.0998095C6.13217 0.165547 5.99567 0.261596 5.88293 0.381967L0.677048 5.92362C0.596966 6.00934 0.54383 6.11638 0.524142 6.23159C0.504454 6.3468 0.519072 6.46518 0.566204 6.57228C0.613336 6.67938 0.690936 6.77053 0.789504 6.83455C0.888075 6.8986 1.00333 6.93273 1.12117 6.93278Z" fill="#191817"/>
<path d="M62.0435 11.8416H48.8258V7.52498H65.4788V3.20832H48.7817C48.2111 3.20525 47.6458 3.31364 47.1176 3.52728C46.5894 3.74096 46.1085 4.05569 45.7032 4.45356C45.2976 4.85142 44.9749 5.32462 44.7538 5.84609C44.5326 6.36759 44.417 6.92718 44.4141 7.4929V11.8679C44.4164 12.4341 44.5311 12.9943 44.752 13.5165C44.9729 14.0387 45.2952 14.5125 45.7008 14.911C46.1067 15.3095 46.5876 15.6248 47.1161 15.8388C47.6446 16.0528 48.2108 16.1614 48.7817 16.1583H62.017V20.475H44.7288V24.7916H62.0435C62.6141 24.7947 63.1794 24.6863 63.7076 24.4727C64.2358 24.259 64.7167 23.9443 65.122 23.5464C65.5276 23.1485 65.8502 22.6754 66.0714 22.1539C66.2926 21.6324 66.4082 21.0728 66.4111 20.5071V16.1321C66.4088 15.5659 66.2941 15.0056 66.0732 14.4835C65.8523 13.9613 65.5299 13.4874 65.1244 13.089C64.7185 12.6905 64.2376 12.3752 63.7091 12.1612C63.1805 11.9472 62.6144 11.8386 62.0435 11.8416Z" fill="#191817"/>
<path d="M87.6471 3.20815H74.3794C73.8079 3.20354 73.2412 3.31079 72.7115 3.52376C72.1821 3.73674 71.7 4.05121 71.2932 4.44925C70.8862 4.84726 70.5626 5.32095 70.3409 5.84321C70.1188 6.36547 70.0029 6.92603 70 7.49273V20.5069C70.0029 21.0736 70.1188 21.6342 70.3409 22.1564C70.5626 22.6787 70.8862 23.1524 71.2932 23.5504C71.7 23.9484 72.1821 24.2629 72.7115 24.4759C73.2412 24.6888 73.8079 24.7961 74.3794 24.7915H87.6471C88.2176 24.7945 88.7829 24.6862 89.3112 24.4725C89.8394 24.2588 90.3203 23.9441 90.7256 23.5462C91.1312 23.1484 91.4538 22.6752 91.675 22.1537C91.8962 21.6322 92.0118 21.0726 92.0147 20.5069V7.49273C92.0118 6.92702 91.8962 6.36743 91.675 5.84593C91.4538 5.32445 91.1312 4.85125 90.7256 4.45339C90.3203 4.05553 89.8394 3.74079 89.3112 3.52712C88.7829 3.31347 88.2176 3.20509 87.6471 3.20815ZM87.6147 20.4748H74.4118V7.52482H87.6088L87.6147 20.4748Z" fill="#191817"/>
<path d="M134.121 3.20833H121.18C120.61 3.20526 120.044 3.31365 119.516 3.52729C118.988 3.74097 118.507 4.05571 118.102 4.45357C117.696 4.85143 117.373 5.32463 117.152 5.8461C116.931 6.3676 116.815 6.92719 116.812 7.49291V24.7917H121.224V17.7012H134.107V24.7917H138.518V7.49291C138.515 6.92471 138.399 6.36273 138.176 5.83931C137.953 5.31591 137.628 4.84143 137.219 4.44316C136.81 4.04491 136.326 3.73079 135.795 3.51886C135.263 3.30694 134.694 3.20141 134.121 3.20833ZM134.089 13.3846H121.207V7.52499H134.089V13.3846Z" fill="#191817"/>
<path d="M185.629 3.20832H172.688C172.117 3.20525 171.552 3.31364 171.024 3.52728C170.496 3.74096 170.015 4.05569 169.609 4.45356C169.204 4.85142 168.881 5.32462 168.66 5.84609C168.439 6.36759 168.323 6.92718 168.32 7.4929V24.7916H172.732V17.7012H185.585V24.7916H189.997V7.4929C189.994 6.92718 189.878 6.36759 189.657 5.84609C189.436 5.32462 189.113 4.85142 188.708 4.45356C188.302 4.05569 187.821 3.74096 187.293 3.52728C186.765 3.31364 186.2 3.20525 185.629 3.20832ZM185.585 13.3846H172.703V7.52498H185.585V13.3846Z" fill="#191817"/>
<path d="M160 20.475H158.236L151.927 5.01662C151.711 4.48331 151.339 4.02624 150.859 3.70406C150.379 3.38186 149.812 3.20922 149.233 3.20829H145.318C144.937 3.20636 144.56 3.27879 144.208 3.42138C143.856 3.56401 143.536 3.77401 143.265 4.03942C142.995 4.30487 142.78 4.62048 142.632 4.96832C142.485 5.31614 142.408 5.68935 142.406 6.06662V24.7916H146.818V7.52496H148.583L154.889 22.9833C155.108 23.5156 155.483 23.9708 155.965 24.2908C156.447 24.6108 157.014 24.7811 157.594 24.78H161.509C161.89 24.7819 162.267 24.7095 162.619 24.5669C162.971 24.4243 163.292 24.2142 163.562 23.9488C163.832 23.6834 164.047 23.3678 164.195 23.02C164.342 22.6721 164.419 22.2989 164.421 21.9216V3.20829H160V20.475Z" fill="#191817"/>
<path d="M100.326 3.20825H95.9141V20.507C95.917 21.074 96.0332 21.6348 96.2552 22.1572C96.4773 22.6797 96.8011 23.1535 97.2082 23.5515C97.6152 23.9496 98.0979 24.264 98.6276 24.4768C99.1576 24.6896 99.7246 24.7966 100.296 24.7916H113.532V20.4749H100.326V3.20825Z" fill="#191817"/>
</g>
<path d="M862.948 68.008C863.099 69.1941 863.385 70.3802 863.386 71.5663C863.413 91.8659 863.413 112.162 863.386 132.454C863.386 133.533 863.15 134.611 863.024 135.69H862.068C861.88 134.936 861.612 134.192 861.518 133.426C858.694 110.215 846.784 92.9334 826.024 82.6301C797.129 68.2965 762.753 88.7837 760.502 120.944C758.929 143.376 768.328 160.566 786.23 173.157C796.23 180.192 807.009 186.158 817.62 192.288C828.169 198.386 838.89 204.166 848.512 211.737C869.862 228.516 879.145 250.449 875.013 277.168C871.585 299.328 860.812 317.567 841.646 330.118C831.124 337.013 819.384 339.763 806.857 339.231C794.197 338.692 782.184 335.328 770.319 331.116C766.751 329.853 763.013 329.135 759.23 328.985C754.433 328.814 751.851 331.641 751.308 336.431C751.21 337.307 751.042 338.172 750.905 339.043L750.079 339.113C749.875 338.325 749.494 337.541 749.493 336.753C749.461 315.939 749.461 295.125 749.493 274.311C749.493 273.538 749.74 272.765 749.872 271.99L750.615 271.904C750.837 272.446 751.232 272.982 751.253 273.53C751.623 283.194 755.654 291.459 761.645 298.679C775.006 314.78 791.808 325.399 812.711 328.809C833.887 332.264 853.953 321.087 862.358 301.389C870.841 281.506 866.353 257.453 851.12 242.084C847.135 238.07 842.776 234.432 838.588 230.633L837.992 231.231L842.397 236.423C848.165 243.235 850.787 251.368 850.73 260.018C850.648 272.357 842.744 284.317 829.761 287.414C820.897 289.53 813.532 287.719 808.558 280.447C805.77 276.373 805.996 269.242 809.443 265.886C809.642 266.766 809.899 267.428 809.921 268.1C810.149 273.623 812.891 277.286 817.993 279.1C821.761 280.438 824.62 278.424 827.175 276.39C833.552 271.332 838.153 264.977 839.422 256.714C840.611 248.971 839.287 241.715 834.754 235.164C826.719 223.552 815.129 216.512 802.958 210.084C790.33 203.411 778.069 196.103 767.872 185.893C754.227 172.231 748.056 155.627 749.778 136.511C751.965 112.225 763.294 92.782 782.95 78.3321C790.223 72.9851 798.534 69.8477 807.523 68.6074C808.364 68.491 809.181 68.2057 810.01 68H817.795C818.259 68.197 818.734 68.3704 819.215 68.5197C824.778 69.9704 830.375 71.2873 835.897 72.8831C841.42 74.4789 846.795 76.6789 852.38 78.0132C857.867 79.3253 860.896 76.7044 861.467 71.0545C861.572 70.0326 861.758 69.0171 861.907 68L862.948 68.008Z" fill="#191817"/>
<path d="M730.062 68.0082C730.186 69.113 730.414 70.2162 730.417 71.321C730.465 92.0457 730.535 112.77 730.49 133.495C730.471 142.683 724.058 153.032 713.592 155.771C704.066 158.271 693.691 153.04 691.15 143.893C690.528 141.661 690.527 139.129 690.791 136.798C691.075 134.307 692.964 132.633 695.313 131.958C697.626 131.295 699.421 132.499 700.938 134.287C703.609 137.433 703.649 141.34 703.926 145.045C704.581 153.922 713.515 155.659 719.23 151.455C725.626 146.751 728.81 140.18 728.287 131.979C727.589 121.063 722.988 111.688 716.892 102.964C711.125 94.7176 703.803 88.1223 694.807 83.3748C673.494 72.1244 646.662 79.5136 634.301 100.157C623.31 118.519 625.579 143.826 639.538 160.487C647.556 170.052 657.641 176.955 668.268 183.169C681.164 190.71 694.283 197.879 707.02 205.673C716.89 211.713 725.424 219.418 732.005 229.079C740.295 241.251 743.531 254.918 742.83 269.366C741.873 289.076 734.334 306.261 720.568 320.445C705.901 335.561 687.887 341.329 666.995 338.66C656.803 337.359 647.077 334.49 637.427 331.129C634.18 329.98 630.802 329.244 627.372 328.939C621.851 328.491 619.039 331.171 618.422 336.655C618.33 337.485 618.024 338.29 617.737 339.424C616.291 337.56 615.993 274.672 617.306 271.527C617.777 272.384 618.331 272.933 618.35 273.5C618.767 285.359 624.568 294.73 632.38 302.993C644.475 315.806 659.003 324.649 676.405 328.263C702.478 333.674 726.022 318.967 732.118 293.052C736.434 274.704 732.038 258.159 719.772 243.814C712.318 235.097 702.95 228.716 693.132 223.016C679.912 215.345 666.411 208.146 653.31 200.278C642.645 193.876 633.223 185.905 626.286 175.346C621.026 167.324 617.853 158.548 617.019 149.004C614.692 122.318 624.847 100.63 644.178 82.8598C652.838 74.8888 663.189 70.1062 674.946 68.5614C675.516 68.4864 676.062 68.1963 676.609 68.0066H684.913C685.212 68.166 685.494 68.3717 685.809 68.4562C691.855 70.0695 697.925 71.5776 703.945 73.2946C709.23 74.8011 714.379 76.8242 719.715 78.09C724.617 79.2521 727.627 76.7699 728.375 71.7817C728.563 70.5191 728.812 69.2644 729.032 68.0066L730.062 68.0082Z" fill="#191817"/>
<path d="M1255.85 68.0088C1259.83 68.739 1263.82 69.3224 1267.76 70.2279C1281.71 73.4371 1293.83 80.2061 1304.55 89.5466C1305.22 90.1237 1305.67 91.3098 1305.67 92.2153C1305.74 105.607 1305.73 118.99 1305.7 132.378C1305.7 133.137 1305.4 133.896 1305.23 134.655L1304.48 134.677C1304.26 133.837 1303.93 133.009 1303.84 132.157C1302.64 120.041 1297.74 109.876 1288.43 101.8C1278.42 93.1272 1267.45 86.2896 1254.47 83.1155C1236.62 78.7474 1220.16 82.2913 1205.19 92.6553C1191.38 102.209 1182.29 115.526 1175.97 130.798C1166.51 153.64 1164.13 177.509 1166.42 201.929C1169.07 230.282 1177.45 256.837 1192.47 281.116C1202.28 296.977 1214.73 310.27 1231.19 319.632C1253.45 332.3 1281.32 329.722 1300.52 312.706C1303.67 309.914 1306.35 306.59 1309.52 303.217C1311.01 305.162 1312.16 306.52 1313.12 307.999C1313.38 308.401 1313.28 309.399 1312.96 309.753C1292.55 331.828 1263.87 344.998 1232.43 336.955C1211.06 331.49 1194.81 318.446 1181.68 301.245C1168.42 283.868 1160.1 264.175 1155.5 242.916C1149.61 215.746 1149.82 188.553 1156.26 161.509C1161.84 138.074 1171.8 116.712 1188.07 98.6495C1201.68 83.538 1218.04 72.9827 1238.38 69.281C1240.91 68.8203 1243.45 68.4297 1245.98 68.0056L1255.85 68.0088Z" fill="#191817"/>
<path d="M188.348 326.624C189.351 326.688 190.031 326.769 190.712 326.769C204.032 326.769 217.354 326.888 230.674 326.742C244.925 326.582 255.557 319.699 263.161 308.09C266.113 303.58 268.141 298.465 270.587 293.625C270.953 292.898 271.298 292.162 271.652 291.43L272.422 291.502C272.514 292.299 272.793 293.125 272.67 293.893C270.703 306.245 268.642 318.584 266.722 330.944C266.424 332.857 265.447 333.041 263.896 333.034C255.333 332.997 246.769 333.017 238.207 333.017C193.314 333.017 148.421 333.002 103.53 332.972C102.337 332.972 101.138 332.315 99.9521 331.964C101.049 331.574 102.12 330.952 103.246 330.831C108.861 330.224 111.376 327.284 109.89 321.911C108.822 318.066 107.083 314.309 105.078 310.838C92.4243 288.934 79.6196 267.125 66.85 245.284C57.6535 229.565 48.4321 213.862 39.1857 198.174C38.7297 197.4 37.8083 196.898 37.1036 196.273C36.7083 197.195 35.9686 198.116 35.967 199.038C35.9096 236.435 35.9 273.831 35.9383 311.225C35.9315 313.124 36.0851 315.02 36.3974 316.893C37.7955 325.011 43.5411 330.125 51.7991 330.864C52.6392 330.939 53.4204 331.677 54.2286 332.108C53.4236 332.516 52.6201 333.276 51.8118 333.28C35.3776 333.35 18.9429 333.35 2.50769 333.28C1.67073 333.28 0.835366 332.565 0 332.184C0.782757 331.727 1.53682 330.939 2.35625 330.864C11.7382 330.005 18.0002 323.507 18.4705 313.99C18.5247 312.874 18.5184 311.743 18.5184 310.621C18.5184 239.458 18.5082 168.294 18.488 97.1295C18.488 94.5644 18.3159 91.9196 17.6909 89.4502C15.7077 81.6768 10.584 77.6132 2.27015 76.7093C1.49058 76.6248 0.773216 75.968 0.0255323 75.5774C0.779593 75.1884 1.53364 74.4614 2.28451 74.4614C27.1063 74.5698 51.9362 74.3945 76.7452 75.0529C90.7631 75.4243 104.617 77.8236 117.587 83.6776C127.569 88.1828 135.815 94.6776 140.289 104.976C147.531 121.658 145.835 144.222 129.161 158.763C118.531 168.035 105.989 173.749 92.8228 178.17C80.3051 182.367 67.6184 186.064 55.0082 189.984C54.278 190.211 53.5543 190.462 52.4654 190.82C53.9592 193.426 55.335 195.86 56.7395 198.274C68.2625 218.03 79.7944 237.783 91.3354 257.534C101.577 275.046 111.789 292.573 122.12 310.031C125.742 316.151 129.915 321.881 136.051 325.828C142.553 330.008 149.617 331.85 157.293 330.434C164.588 329.09 169.388 324.009 170.525 316.674C170.827 314.712 170.978 312.729 170.977 310.744C171 239.667 171 168.589 170.977 97.5105C170.987 95.7845 170.897 94.0593 170.708 92.3437C169.622 83.0622 164.226 77.8013 154.881 76.7316C154.083 76.6391 153.328 76.0365 152.555 75.6715C153.352 75.2554 154.158 74.4742 154.962 74.4726C188.609 74.412 222.257 74.3839 255.906 74.3881C257.645 74.3881 258.351 74.9844 258.616 76.6742C260.556 88.9385 262.574 101.188 264.537 113.449C264.671 114.288 264.554 115.166 264.554 116.026L263.757 116.236C263.32 115.407 262.801 114.615 262.461 113.748C258.863 104.342 253.935 95.8191 246.041 89.3051C240.005 84.328 233.085 81.1746 225.239 80.9929C213.31 80.706 201.369 80.8813 189.433 80.8686C189.186 80.8686 188.939 80.9866 188.517 81.0934V200.224C189.194 200.289 189.779 200.394 190.365 200.396C201.004 200.396 211.644 200.363 222.282 200.414C228.645 200.444 233.147 197.531 235.355 191.712C236.711 188.13 237.22 184.227 238.087 180.464C238.285 179.603 238.39 178.71 238.537 177.846L239.374 177.766C239.595 178.543 240.011 179.317 240.011 180.094C240.049 195.899 240.049 211.703 240.011 227.507C240.011 228.244 239.662 228.98 239.476 229.717H238.666C238.478 228.896 238.29 228.075 238.102 227.254C237.263 223.571 236.789 219.761 235.506 216.236C233.306 210.2 228.739 207.06 222.188 207.057C211.636 207.057 201.082 207.124 190.53 206.999C187.951 206.969 188.337 208.485 188.337 210.017V326.627L188.348 326.624ZM91.1011 116.577C91.3913 116.285 91.5459 115.984 91.7595 115.94C100.641 113.859 102.122 109.179 102.501 101.324C102.863 93.9156 94.6147 84.8764 86.2754 83.0574C82.8335 82.3065 79.3119 81.6019 75.8078 81.5062C62.9346 81.1491 50.0518 81.0535 37.1738 80.8686C36.855 80.8686 36.5281 81.0073 36.0706 81.1125V190.783C36.8007 190.555 37.3651 190.396 37.9199 190.204C48.2822 186.643 58.635 183.03 69.0245 179.523C79.9894 175.831 91.0437 172.373 101.248 166.781C108.285 162.924 114.88 158.39 119.352 151.613C129.34 136.481 129.453 120.627 121.515 104.704C117.795 97.2395 111.312 92.3596 103.772 88.9209C104.752 90.2186 105.777 91.4717 106.979 92.5366C111.518 96.5349 112.57 102.875 117.149 107.025C119.849 109.472 119.032 112.678 116.658 116.51C114.839 119.447 110.716 120.861 107.615 120.25C106.688 120.088 105.732 120.246 104.905 120.697C99.7305 123.805 94.1333 122.227 91.1059 116.577H91.1011Z" fill="#191817"/>
<path d="M913.259 93.5777C909.284 93.2079 907.36 91.9437 907.145 89.6959C906.923 87.3635 908.325 85.1396 910.298 84.69C913.064 84.0523 916.276 85.5924 917.201 87.9885C918.376 91.0318 916.549 94.952 912.988 97.0276C908.637 99.5624 904.28 98.5517 901.597 94.3175C898.975 90.1725 898.329 85.7932 900.776 81.3836C903.272 76.8848 907.446 74.5285 912.414 74.3691C920.621 74.1077 928.844 74.4424 937.059 74.3691C939.053 74.3532 939.351 75.5217 939.582 76.9087C941.125 86.1838 942.626 95.4669 944.166 104.744C947.231 123.202 950.304 141.66 953.386 160.115C958.195 189.13 962.995 218.148 967.787 247.169C971.369 268.69 974.998 290.205 978.674 311.713C980.053 319.763 983.959 325.994 991.832 329.342C1001.08 333.273 1011.92 330.069 1015.68 321.617C1017.1 318.428 1017.64 314.612 1017.66 311.076C1017.8 275.322 1017.74 239.566 1017.74 203.811C1017.74 168.056 1017.8 132.301 1017.65 96.5462C1017.64 92.9337 1016.94 89.0996 1015.58 85.7693C1013.11 79.7193 1007.73 77.4173 1001.51 76.7062C1000.8 76.6249 1000.16 75.8693 999.489 75.4309C1000.19 75.0945 1000.88 74.4743 1001.58 74.4664C1012.13 74.4042 1022.69 74.4743 1033.24 74.3787C1035.29 74.3595 1035.66 75.7609 1036.21 77.041C1040.77 87.4746 1045.31 97.9204 1049.82 108.378C1057.12 125.236 1064.43 142.092 1071.73 158.948C1082.05 182.779 1092.36 206.609 1102.67 230.441C1111.28 250.309 1119.91 270.169 1128.56 290.021C1128.77 290.486 1129.04 290.922 1129.55 291.897C1129.69 290.794 1129.82 290.201 1129.82 289.608C1129.83 225.096 1129.83 160.581 1129.82 96.0631C1129.82 89.7676 1128.54 83.8037 1122.92 80.1641C1120.21 78.4104 1116.7 77.886 1113.58 76.7445C1112.8 76.4591 1112.11 75.9346 1111.38 75.5217C1112.16 75.155 1112.93 74.4727 1113.7 74.468C1126.16 74.4021 1138.61 74.4021 1151.07 74.468C1151.85 74.468 1152.63 75.1439 1153.41 75.5058C1152.7 75.9219 1152.01 76.6313 1151.26 76.7126C1141.18 77.8286 1135.27 84.1703 1134.87 94.4625C1134.83 95.3234 1134.85 96.1891 1134.85 97.0531C1134.85 174.35 1134.85 251.647 1134.85 328.944V332.467C1130.94 333.678 1130.09 333.401 1128.66 330.111C1122.46 315.874 1116.06 301.711 1110.2 287.338C1105.33 275.431 1098.27 264.941 1090.88 254.559C1084.09 245.023 1075.94 236.943 1066.08 230.677C1058.98 226.165 1051.3 224.48 1042.94 226.9C1037.99 228.335 1034.71 231.3 1033 236.127C1032.63 237.178 1031.98 238.129 1031.46 239.127L1030.32 239.038C1029.88 236.42 1028.96 233.777 1029.09 231.19C1029.39 225.451 1030.65 219.841 1035.46 215.988C1036.9 214.838 1038.95 214.465 1040.72 213.741C1041.21 213.54 1041.88 213.493 1042.18 213.135C1047.16 207.042 1054 206.703 1060.88 209.984C1067.23 213.013 1071.09 218.172 1073.82 224.435C1074.26 225.435 1075.27 226.433 1076.27 226.895C1080.78 228.995 1082.44 233.143 1084.2 237.289C1085.1 239.397 1085.95 241.571 1087.19 243.476C1090.1 247.963 1093.26 252.287 1096.65 256.429C1072.3 200.346 1047.96 144.264 1023.61 88.183L1023.05 88.2595C1023.01 89.1506 1022.93 90.0434 1022.93 90.9346C1022.92 164.173 1022.93 237.41 1022.95 310.648C1022.96 312.974 1023.2 315.293 1023.68 317.567C1025.37 325.47 1030.74 330.096 1038.83 330.815C1039.43 330.868 1040.07 330.841 1040.61 331.053C1040.92 331.172 1041.25 331.711 1041.23 332.041C1041.21 332.341 1040.77 332.795 1040.45 332.861C1039.7 333.02 1038.9 333.009 1038.13 333.009C1008.63 333.015 979.136 333.015 949.64 333.009C949.469 333.034 949.294 333.031 949.124 332.999C948.247 332.68 947.37 332.362 946.507 332.027C947.324 331.623 948.114 330.936 948.961 330.858C956.919 330.131 961.831 325.279 961.573 317.296C961.397 311.814 960.297 306.346 959.414 300.901C955.862 279.027 952.266 257.16 948.625 235.3C947.171 226.532 945.572 217.795 944.161 209.024C943.912 207.479 943.33 207.015 941.846 207.022C932.504 207.066 923.162 207.089 913.821 207.004C911.988 206.988 911.508 207.769 911.242 209.378C908.991 222.992 906.7 236.6 904.368 250.201C900.817 271.11 897.256 292.019 893.687 312.925C892.411 320.325 895.247 327 901.12 329.527C902.899 330.292 904.974 330.345 906.872 330.871C907.558 331.061 908.125 331.679 908.749 332.102C908.111 332.401 907.473 332.958 906.836 332.963C899.397 333.026 891.957 333.007 884.517 333.009C879.587 333.009 874.656 333.02 869.726 332.999C868.801 332.999 867.876 332.867 866.952 332.797C866.843 332.511 866.735 332.224 866.633 331.939C867.342 331.571 868.026 330.952 868.769 330.873C879.45 329.718 886.565 323.622 888.462 313.017C891.911 293.747 894.987 274.409 898.24 255.101C902.206 231.544 906.241 207.997 910.158 184.43C914.075 160.863 917.885 137.269 921.745 113.689C922.846 106.963 924.079 100.257 925.035 93.5108C926.294 84.6294 921.615 78.4359 913.02 76.8114C906.665 75.6126 900.306 82.2015 902.008 89.055C902.393 90.6014 903.239 92.1031 904.153 93.4343C906.397 96.7407 910.277 96.8347 913.259 93.5777ZM942.592 200.251C937.669 170.83 932.793 141.68 927.914 112.53L927.235 112.549C922.365 141.723 917.496 170.883 912.592 200.251H942.592Z" fill="#191817"/>
<path d="M470.348 93.5461C469.73 93.5014 469.156 93.4935 468.594 93.4169C465.29 92.9722 463.715 90.9459 464.347 87.9695C464.934 85.2163 467.612 83.8613 470.624 84.7939C473.635 85.7265 475.174 88.7284 474.211 91.7271C472.902 95.8083 469.857 97.935 465.84 98.3526C462.332 98.7193 459.994 96.591 458.164 93.6609C452.276 84.2375 460.395 74.5511 469.624 74.4427C478.013 74.3454 486.407 74.4969 494.795 74.3661C496.845 74.3343 497.544 75.1457 497.834 76.9424C499.937 89.9703 502.035 102.998 504.211 116.013C507.755 137.199 511.385 158.37 514.925 179.555C517.955 197.675 520.951 215.801 523.912 233.932C526.896 252.055 529.872 270.18 532.839 288.306C534.163 296.304 535.468 304.307 536.957 312.275C539.422 325.475 550.125 332.899 562.835 330.371C570.23 328.899 575.443 322.585 575.963 314.429C576.051 313.051 576.047 311.666 576.047 310.284C576.047 239.204 576.026 168.124 575.984 97.0438C575.984 93.6624 575.505 90.1138 574.389 86.9381C572.124 80.4608 566.841 77.6343 560.285 76.7447C559.38 76.622 558.554 75.903 557.693 75.4598C558.562 75.1122 559.431 74.465 560.301 74.4618C576.649 74.4012 592.998 74.4012 609.347 74.4618C610.183 74.4618 611.015 75.192 611.85 75.5778C611.094 75.9636 610.366 76.614 609.58 76.6937C599.865 77.7108 593.901 84.0016 593.478 93.7884C593.431 94.9043 593.434 96.0331 593.434 97.157C593.434 168.322 593.453 239.488 593.491 310.655C593.491 313.874 593.894 317.258 594.94 320.278C597.199 326.796 602.307 330.002 609.047 330.799C609.73 330.879 610.444 330.847 611.085 331.051C611.393 331.15 611.748 331.689 611.738 332.008C611.73 332.304 611.295 332.775 610.98 332.84C610.227 332.999 609.435 332.999 608.66 332.999C575.012 332.999 541.363 332.999 507.713 332.999C507.367 332.999 506.973 333.102 506.685 332.972C506.009 332.669 505.382 332.253 504.735 331.882C505.338 331.531 505.924 330.905 506.543 330.871C517.003 330.307 521.076 323.021 519.667 313.813C517.191 297.616 514.42 281.462 511.748 265.295C508.638 246.483 505.514 227.678 502.374 208.879C502.29 208.377 502.167 207.881 502.043 207.296C501.405 207.208 500.818 207.055 500.23 207.055C490.802 207.039 481.374 207.082 471.945 207.008C470.082 206.993 469.68 207.864 469.415 209.456C466.192 228.854 462.932 248.244 459.635 267.627C457.111 282.594 454.551 297.554 452.123 312.535C451.751 314.835 451.723 317.177 452.04 319.485C452.986 326.202 457.419 330.195 464.206 330.79C464.636 330.827 465.124 330.709 465.491 330.873C466.05 331.123 466.528 331.555 467.042 331.909C466.563 332.268 466.101 332.684 465.572 332.961C465.298 333.105 464.893 333.004 464.547 333.004C452.264 333.004 439.981 333.004 427.698 333.004C426.866 333.004 426.034 332.858 425.202 332.778L424.883 331.994C425.52 331.611 426.139 330.93 426.796 330.89C438.579 330.178 445.426 321.781 447.214 310.963C451.283 286.375 455.504 261.812 459.579 237.226C463.506 213.568 467.297 189.887 471.217 166.229C474.869 144.193 478.644 122.176 482.279 100.137C482.839 96.7489 483.346 93.2639 483.169 89.8603C482.781 82.3787 478.82 78.2481 471.435 76.9025C466.417 75.9891 462.329 77.7905 459.873 82.004C457.615 85.8716 458.251 90.2668 461.626 94.1455C463.933 96.7728 467.915 96.5304 470.348 93.5461ZM500.834 200.234C495.906 170.741 491.014 141.465 486.123 112.189L485.554 112.17C480.665 141.482 475.769 170.837 470.868 200.234H500.834Z" fill="#191817"/>
<path d="M304.49 240.761C304.011 238.338 303.099 235.905 303.154 233.495C303.283 227.703 304.738 222.251 309.098 218.017C310.723 216.438 312.524 215.24 314.997 215.466C315.509 215.514 316.272 215.082 316.591 214.639C321.36 208.169 329.721 208.628 335.948 212.12C341.729 215.361 345.69 220.207 348.026 226.429C348.345 227.285 349.273 228.14 350.132 228.53C353.674 230.139 356.155 232.876 357.191 236.399C358.626 241.292 361.353 245.327 364.236 249.36C366.273 252.214 368.169 255.17 370.613 257.858L296.989 88.2544L296.426 88.3899C296.385 89.2078 296.305 90.0272 296.305 90.8466C296.299 164.18 296.323 237.511 296.378 310.838C296.378 314.382 296.963 318.158 298.291 321.419C300.758 327.494 305.974 330.204 312.376 330.86C313.173 330.939 313.903 331.559 314.664 331.928C313.923 332.288 313.181 332.958 312.432 332.962C299.976 333.026 287.519 333.026 275.062 332.962C274.327 332.962 273.595 332.274 272.862 331.905C273.536 331.547 274.185 330.933 274.888 330.864C284.511 329.908 290.469 323.765 291.02 314.104C291.098 312.725 291.105 311.342 291.105 309.959C291.105 239.135 291.099 168.31 291.089 97.4833C291.089 95.2514 291.02 92.9701 290.582 90.7876C288.855 82.206 283.896 77.7852 275.25 76.7394C274.399 76.6358 273.619 75.9535 272.805 75.539C273.648 75.1644 274.49 74.4677 275.335 74.4629C285.629 74.388 295.924 74.4454 306.218 74.38C307.847 74.3704 308.713 74.9109 309.354 76.4062C317.206 94.7205 325.093 113.023 333.015 131.312C345.376 159.803 357.762 188.283 370.171 216.752C380.408 240.338 390.621 263.933 400.81 287.535C401.357 288.796 401.964 290.03 402.989 291.283C403.055 290.603 403.178 289.923 403.178 289.244C403.184 225.069 403.157 160.894 403.096 96.7197C403.096 93.0992 402.431 89.2444 401.065 85.9125C398.602 79.9071 393.303 77.4457 387.062 76.7187C386.295 76.6294 385.595 75.9551 384.863 75.5534C385.608 75.1739 386.351 74.4693 387.095 74.4645C399.55 74.3954 412.007 74.3954 424.465 74.4645C425.221 74.4645 425.97 75.1883 426.724 75.5805C425.978 75.9742 425.262 76.6342 424.481 76.7219C414.94 77.8012 409.495 83.2311 408.553 92.8091C408.367 94.695 408.317 96.6017 408.317 98.4988C408.307 175.544 408.303 252.588 408.308 329.632C408.308 333.08 407.989 333.458 404.659 332.93C403.853 332.803 402.843 331.96 402.505 331.191C396.81 318.238 391.082 305.298 385.619 292.248C379.832 278.42 372.264 265.677 363.141 253.81C355.648 244.066 347.084 235.432 335.916 230.085C329.117 226.829 321.728 226.409 314.485 229.53C310.34 231.317 308.33 234.848 306.621 238.686C306.302 239.403 305.888 240.077 305.518 240.771L304.49 240.761Z" fill="#191817"/>
<path d="M1423.26 116.154C1422.19 113.657 1421.17 111.135 1420.04 108.661C1415.77 99.3842 1409.98 91.3717 1401.03 85.9896C1396.21 83.0882 1391.01 81.1082 1385.4 81.0173C1373.12 80.8196 1360.84 80.9567 1348.35 80.9567V200.269C1349.22 200.314 1350.13 200.398 1351.05 200.398C1360.91 200.408 1370.78 200.207 1380.63 200.463C1389.72 200.698 1394.06 196.232 1396.5 188.188C1397.17 185.977 1397.33 183.613 1397.71 181.315C1397.9 180.155 1398.05 178.986 1398.21 177.821L1399.01 177.676C1399.27 178.406 1399.77 179.136 1399.78 179.868C1399.82 195.761 1399.82 211.653 1399.78 227.544C1399.78 228.274 1399.44 229.003 1399.25 229.733L1398.37 229.723C1398.16 228.628 1398.02 227.516 1397.73 226.441C1396.65 222.387 1395.94 218.165 1394.3 214.347C1392.41 209.958 1388.61 207.295 1383.69 207.231C1371.95 207.071 1360.2 207.181 1348.3 207.181V326.773H1351.33C1363.78 326.773 1376.24 326.672 1388.7 326.798C1403.48 326.948 1414.66 320.436 1422.65 308.399C1425.68 303.838 1427.76 298.649 1430.26 293.745C1430.66 292.964 1431.04 292.173 1431.43 291.387L1432.28 291.504C1432.34 292.301 1432.56 293.14 1432.44 293.914C1430.48 306.089 1428.45 318.25 1426.54 330.433C1426.24 332.324 1425.61 333.051 1423.61 333.047C1387.37 332.995 1351.12 332.969 1314.87 332.969C1314.06 332.969 1313.25 332.414 1312.44 332.116C1313.22 331.681 1313.97 330.929 1314.78 330.857C1324.13 330.034 1330.11 323.567 1330.66 313.534C1330.73 312.243 1330.71 310.944 1330.71 309.649C1330.71 239.079 1330.71 168.513 1330.7 97.951C1330.7 95.802 1330.61 93.6259 1330.26 91.5119C1328.78 82.4521 1323.73 77.8018 1314.53 76.7145C1313.79 76.6268 1313.11 75.9174 1312.41 75.5045C1313.17 75.1426 1313.93 74.4651 1314.69 74.4635C1348.34 74.4103 1382 74.388 1415.65 74.3965C1417.15 74.3965 1417.99 74.6931 1418.26 76.4228C1420.2 88.6982 1422.25 100.943 1424.22 113.204C1424.37 114.123 1424.24 115.084 1424.24 116.024L1423.26 116.154Z" fill="#191817"/>
<path d="M166.084 317.872C164.772 313.482 163.835 309.294 162.279 305.351C158.187 294.989 150.131 288.585 140.067 284.594C134.725 282.477 128.345 285.129 123.745 290.754C123.604 290.95 123.479 291.157 123.371 291.373C122.944 291.172 122.583 291.12 122.523 290.955C120.131 284.508 120.08 276.724 126.398 271.691C129.083 269.553 132.077 268.518 135.559 269.564C136.117 269.712 136.71 269.643 137.22 269.371C146.944 263.422 155.355 272.48 155.99 280.137C156.149 281.993 156.859 282.634 158.29 283.538C163.027 286.535 165.705 291.172 166.188 296.583C166.789 303.333 166.619 310.153 166.746 316.943C166.751 317.198 166.389 317.461 166.084 317.872Z" fill="#191817"/>
<path d="M1177.24 147.673C1177.94 144.577 1178.6 141.473 1179.33 138.387C1183.3 121.667 1192.22 107.95 1205.24 96.9373C1209.19 93.5894 1213.6 90.4552 1219.2 90.2591C1220.62 90.2081 1222.13 90.2894 1223.48 90.7119C1225.71 91.4101 1226.69 93.4922 1225.22 95.3622C1222.59 98.6861 1219.7 101.935 1216.39 104.553C1210.6 109.135 1204.22 112.98 1198.43 117.563C1191.06 123.398 1185.09 130.476 1181.54 139.34C1180.4 142.162 1179.24 144.974 1178.09 147.789L1177.24 147.673Z" fill="#191817"/>
<path d="M1403.2 317.833C1403.63 317.047 1403.91 316.108 1404.51 315.501C1410.26 309.746 1412.98 302.446 1414.67 294.799C1416.24 287.708 1416.99 280.44 1418.43 273.317C1418.92 270.901 1420.03 268.387 1421.53 266.462C1423.56 263.868 1426.13 264.088 1428.4 266.532C1432.03 270.453 1432.22 275.249 1431.4 280.116C1430.04 288.189 1425.4 294.684 1420.43 300.822C1416 306.301 1410.95 311.289 1406.15 316.467C1405.47 317.193 1404.63 317.76 1403.87 318.403L1403.2 317.833Z" fill="#191817"/>
<path d="M641.887 310.647C639.784 308.142 637.557 305.732 635.6 303.121C628.107 293.123 623.197 281.899 620.037 269.87C618.999 265.918 618.535 261.925 619.737 257.944C620.139 256.719 620.773 255.583 621.603 254.596C624.268 251.346 628.268 251.706 630.186 255.471C631.061 257.19 631.745 259.189 631.826 261.089C632.036 265.481 631.988 269.882 631.684 274.269C630.82 286.066 633.597 296.765 640.657 306.312C641.415 307.339 642.091 308.431 642.772 309.509C642.829 309.601 642.691 309.818 642.643 309.977L641.887 310.647Z" fill="#191817"/>
<path d="M137.508 247.057C140.962 243.298 144.682 242.722 148.908 244.152C152.53 245.377 154.263 247.979 154.63 251.765C156.157 251.975 157.732 251.97 159.154 252.431C163.882 253.965 166.655 257.467 167.182 262.232C167.748 267.35 167.661 272.545 167.739 277.707C167.755 278.815 167.261 279.931 166.586 281.167C162.237 265.237 154.156 252.661 137.508 247.057Z" fill="#191817"/>
<path d="M1069.83 209.954C1066.98 206.693 1064.67 203.837 1062.13 201.2C1057.51 196.392 1050.84 195.17 1044.88 197.89C1043.14 195.744 1043.25 193.336 1044.41 191.124C1045.53 189.009 1047.36 187.743 1050.02 187.684C1055.99 187.55 1060.35 190.49 1063.38 195.113C1065.96 199.032 1067.73 203.478 1069.81 207.717C1070.01 208.127 1069.83 208.72 1069.83 209.954Z" fill="#191817"/>
<path d="M1205.96 119.844C1206.85 118.782 1207.63 117.612 1208.63 116.68C1211.79 113.77 1214.84 110.695 1218.29 108.168C1222.93 104.774 1227.9 101.849 1233.98 101.825C1235.92 101.825 1237.81 102.209 1238.35 104.232C1238.92 106.333 1237.22 107.647 1235.6 108.315C1233.25 109.281 1230.74 110.266 1228.25 110.387C1219.91 110.773 1213.02 114.054 1207.19 119.857C1206.99 120.054 1206.68 120.142 1206.42 120.281L1205.96 119.844Z" fill="#191817"/>
<path d="M1435.2 281.498C1434 276.005 1435.27 271.093 1438.12 266.637C1440.35 263.14 1443.06 260.024 1447.27 258.72C1447.75 258.571 1448.25 258.315 1448.74 258.335C1450.29 258.395 1452.53 257.649 1452.94 259.694C1453.21 261.04 1452.45 263.109 1451.41 264.096C1449.15 266.267 1446.52 268.115 1443.85 269.806C1440.16 272.152 1437.4 275.109 1436.16 279.372C1435.95 280.115 1435.53 280.792 1435.2 281.498Z" fill="#191817"/>
<path d="M1056.4 181.136C1053.79 180.106 1051.08 179.04 1048.37 177.961C1047.9 177.776 1047.4 177.602 1047.01 177.301C1045.6 176.218 1043.67 175.096 1044.65 173.038C1045.64 170.98 1047.89 171.263 1049.71 171.762C1054.29 173.006 1056.71 176.706 1056.4 181.136Z" fill="#191817"/>
<mask id="path-26-outside-1_3723_51120" maskUnits="userSpaceOnUse" x="960.055" y="379" width="481" height="22" fill="black">
<rect fill="white" x="960.055" y="379" width="481" height="22"/>
<path d="M970.158 400C965.128 400 961.055 395.525 961.055 390.014C961.055 384.475 965.128 380 970.158 380C971.99 380 973.712 380.6 975.161 381.637V382.21C975.161 382.319 975.161 383.165 975.161 383.874C975.161 384.311 975.161 384.693 975.161 384.802C975.161 384.857 975.134 384.884 975.079 384.884C975.052 384.884 975.024 384.857 975.024 384.802C974.997 384.311 974.751 383.411 973.986 382.756C971.853 381.037 969.229 380.464 966.85 381.364C962.941 382.838 961.219 387.776 963.105 392.688C964.991 397.626 969.475 400.218 973.384 398.745C973.74 398.636 974.068 398.499 974.368 398.336V391.351C974.368 390.15 973.302 389.932 972.728 389.905C972.701 389.905 972.673 389.877 972.673 389.85C972.673 389.795 972.701 389.768 972.728 389.768C973.083 389.768 975.763 389.768 975.927 389.768C976.118 389.768 977.212 389.768 977.567 389.768C977.594 389.768 977.622 389.795 977.622 389.85C977.622 389.877 977.594 389.905 977.567 389.905C976.993 389.932 975.927 390.15 975.927 391.351V399.536H975.489L974.56 398.745C973.247 399.536 971.744 400 970.158 400Z"/>
<path d="M985.617 399.4C986.191 399.4 987.257 399.181 987.257 397.954V382.046C987.257 380.819 986.191 380.6 985.617 380.6C985.59 380.6 985.562 380.546 985.562 380.518C985.562 380.491 985.59 380.464 985.617 380.464C985.973 380.464 988.652 380.464 988.816 380.464C988.98 380.464 990.101 380.464 990.429 380.464C990.483 380.464 990.511 380.491 990.511 380.518C990.511 380.546 990.483 380.6 990.429 380.6C989.882 380.6 988.816 380.819 988.816 382.046V399.1H992.643C995.295 399.1 996.224 396.971 996.416 396.535C996.443 396.48 996.47 396.48 996.498 396.48C996.552 396.508 996.552 396.535 996.552 396.562C996.334 397.544 996.115 398.718 996.033 399.1L995.951 399.536H987.257C987.066 399.536 985.973 399.536 985.617 399.536C985.59 399.536 985.562 399.509 985.562 399.482C985.562 399.454 985.59 399.4 985.617 399.4Z"/>
<path d="M1013.53 400C1008.5 400 1004.42 395.525 1004.42 390.014C1004.42 384.475 1008.5 380 1013.53 380C1018.56 380 1022.63 384.475 1022.63 390.014C1022.63 395.525 1018.56 400 1013.53 400ZM1010.3 381.255C1006.39 382.729 1004.59 387.776 1006.47 392.688C1008.36 397.626 1012.95 400.136 1016.83 398.636C1020.74 397.162 1022.47 392.224 1020.58 387.312C1018.69 382.374 1014.18 379.754 1010.3 381.255Z"/>
<path d="M1031.01 399.4C1031.59 399.4 1032.65 399.181 1032.65 397.954V382.046C1032.65 380.819 1031.59 380.6 1031.01 380.6C1030.99 380.6 1030.96 380.546 1030.96 380.518C1030.96 380.491 1030.99 380.464 1031.01 380.464C1031.37 380.464 1033.99 380.464 1034.16 380.464C1034.95 380.464 1035.82 380.464 1036.51 380.464C1041.29 380.464 1044.14 381.473 1044.14 384.175C1044.14 386.903 1040.64 387.831 1037.44 388.622C1041.62 388.731 1044.96 390.75 1044.96 394.297C1044.96 397.763 1041.59 400 1037.25 400C1035.93 400 1034.62 399.563 1033.42 399.563H1032.65C1032.46 399.563 1031.37 399.563 1031.01 399.563C1030.99 399.563 1030.96 399.509 1030.96 399.482C1030.96 399.454 1030.99 399.4 1031.01 399.4ZM1043.29 394.379C1043.29 391.514 1040.75 389.059 1037.06 389.059C1036.07 389.059 1035.11 389.195 1034.21 389.495V397.053C1034.21 399.4 1035.69 399.563 1037.55 399.563C1040.09 399.563 1043.29 397.899 1043.29 394.379ZM1042.58 384.311C1042.58 382.019 1040.42 380.9 1036.51 380.9C1035.69 380.9 1035 380.9 1034.21 380.9V389.086C1037.49 387.885 1042.58 387.694 1042.58 384.311Z"/>
<path d="M1052.45 399.536C1052.42 399.536 1052.36 399.509 1052.39 399.482C1052.39 399.454 1052.42 399.4 1052.45 399.4C1053.02 399.4 1054.14 399.181 1054.41 397.954L1057.69 382.046C1057.94 380.873 1056.96 380.6 1056.41 380.6C1056.35 380.6 1056.33 380.546 1056.33 380.518C1056.33 380.491 1056.35 380.464 1056.41 380.464C1056.74 380.464 1058.79 380.464 1058.98 380.464L1062.59 397.954C1062.86 399.181 1063.98 399.4 1064.56 399.4C1064.61 399.4 1064.64 399.454 1064.64 399.482C1064.64 399.509 1064.61 399.536 1064.56 399.536C1064.2 399.536 1061.55 399.536 1061.36 399.536C1061.19 399.536 1060.07 399.536 1059.74 399.536C1059.69 399.536 1059.66 399.509 1059.66 399.482C1059.66 399.454 1059.69 399.4 1059.74 399.4C1060.29 399.4 1061.3 399.209 1061.03 397.954L1059.44 390.232H1056.46L1054.85 397.954C1054.6 399.209 1055.59 399.4 1056.16 399.4C1056.19 399.4 1056.22 399.454 1056.22 399.482C1056.22 399.509 1056.19 399.536 1056.16 399.536C1055.81 399.536 1054.25 399.536 1054.09 399.536C1053.89 399.536 1052.8 399.536 1052.45 399.536ZM1059.33 389.768L1057.94 383.029L1056.55 389.768H1059.33Z"/>
<path d="M1073.05 399.4C1073.62 399.4 1074.69 399.181 1074.69 397.954V382.046C1074.69 380.819 1073.62 380.6 1073.05 380.6C1073.02 380.6 1072.99 380.546 1072.99 380.518C1072.99 380.491 1073.02 380.464 1073.05 380.464C1073.4 380.464 1076.08 380.464 1076.24 380.464C1076.41 380.464 1077.53 380.464 1077.86 380.464C1077.91 380.464 1077.94 380.491 1077.94 380.518C1077.94 380.546 1077.91 380.6 1077.86 380.6C1077.31 380.6 1076.24 380.819 1076.24 382.046V399.1H1080.07C1082.72 399.1 1083.65 396.971 1083.84 396.535C1083.87 396.48 1083.9 396.48 1083.93 396.48C1083.98 396.508 1083.98 396.535 1083.98 396.562C1083.76 397.544 1083.54 398.718 1083.46 399.1L1083.38 399.536H1074.69C1074.49 399.536 1073.4 399.536 1073.05 399.536C1073.02 399.536 1072.99 399.509 1072.99 399.482C1072.99 399.454 1073.02 399.4 1073.05 399.4Z"/>
<path d="M1117.97 400C1112.94 400 1108.86 395.525 1108.86 390.014C1108.86 384.475 1112.94 380 1117.97 380C1123 380 1127.07 384.475 1127.07 390.014C1127.07 395.525 1123 400 1117.97 400ZM1114.74 381.255C1110.83 382.729 1109.03 387.776 1110.91 392.688C1112.8 397.626 1117.39 400.136 1121.27 398.636C1125.18 397.162 1126.91 392.224 1125.02 387.312C1123.13 382.374 1118.62 379.754 1114.74 381.255Z"/>
<path d="M1135.45 399.4C1136.03 399.4 1137.09 399.181 1137.09 397.954V382.046C1137.09 380.819 1136.03 380.6 1135.45 380.6C1135.43 380.6 1135.4 380.546 1135.4 380.518C1135.4 380.491 1135.43 380.464 1135.45 380.464C1135.81 380.464 1136.9 380.464 1137.09 380.464H1138.65L1147.35 396.644V382.046C1147.35 380.819 1146.28 380.6 1145.71 380.6C1145.68 380.6 1145.65 380.546 1145.65 380.518C1145.65 380.491 1145.68 380.464 1145.71 380.464C1146.06 380.464 1147.62 380.464 1147.78 380.464C1147.95 380.464 1149.07 380.464 1149.42 380.464C1149.45 380.464 1149.48 380.491 1149.48 380.518C1149.48 380.546 1149.45 380.6 1149.42 380.6C1148.85 380.6 1147.78 380.819 1147.78 382.046V399.536H1147.35L1137.53 381.282V397.954C1137.53 399.181 1138.6 399.4 1139.17 399.4C1139.2 399.4 1139.23 399.454 1139.23 399.482C1139.23 399.509 1139.2 399.536 1139.17 399.536C1138.82 399.536 1137.26 399.536 1137.09 399.536C1136.9 399.536 1135.81 399.536 1135.45 399.536C1135.43 399.536 1135.4 399.509 1135.4 399.482C1135.4 399.454 1135.43 399.4 1135.45 399.4Z"/>
<path d="M1158.02 399.4C1158.59 399.4 1159.66 399.181 1159.66 397.954V382.046C1159.66 380.819 1158.59 380.6 1158.02 380.6C1157.99 380.6 1157.96 380.546 1157.96 380.518C1157.96 380.491 1157.99 380.464 1158.02 380.464C1158.37 380.464 1161.05 380.464 1161.22 380.464C1161.38 380.464 1162.5 380.464 1162.83 380.464C1162.88 380.464 1162.91 380.491 1162.91 380.518C1162.91 380.546 1162.88 380.6 1162.83 380.6C1162.28 380.6 1161.22 380.819 1161.22 382.046V399.1H1165.04C1167.7 399.1 1168.63 396.971 1168.82 396.535C1168.84 396.48 1168.87 396.48 1168.9 396.48C1168.95 396.508 1168.95 396.535 1168.95 396.562C1168.73 397.544 1168.52 398.718 1168.43 399.1L1168.35 399.536H1159.66C1159.47 399.536 1158.37 399.536 1158.02 399.536C1157.99 399.536 1157.96 399.509 1157.96 399.482C1157.96 399.454 1157.99 399.4 1158.02 399.4Z"/>
<path d="M1177.17 399.4C1177.74 399.4 1178.81 399.181 1178.81 397.954V382.046C1178.81 380.819 1177.74 380.6 1177.17 380.6C1177.14 380.6 1177.11 380.546 1177.11 380.518C1177.11 380.491 1177.14 380.464 1177.17 380.464C1177.52 380.464 1180.2 380.464 1180.36 380.464C1180.53 380.464 1181.65 380.464 1181.98 380.464C1182.03 380.464 1182.06 380.491 1182.06 380.518C1182.06 380.546 1182.03 380.6 1181.98 380.6C1181.43 380.6 1180.36 380.819 1180.36 382.046V397.954C1180.36 399.181 1181.43 399.4 1181.98 399.4C1182.03 399.4 1182.06 399.454 1182.06 399.482C1182.06 399.509 1182.03 399.536 1181.98 399.536C1181.65 399.536 1178.97 399.536 1178.81 399.536C1178.61 399.536 1177.52 399.536 1177.17 399.536C1177.14 399.536 1177.11 399.509 1177.11 399.482C1177.11 399.454 1177.14 399.4 1177.17 399.4Z"/>
<path d="M1190.63 399.4C1191.2 399.4 1192.27 399.181 1192.27 397.954V382.046C1192.27 380.819 1191.2 380.6 1190.63 380.6C1190.6 380.6 1190.57 380.546 1190.57 380.518C1190.57 380.491 1190.6 380.464 1190.63 380.464C1190.98 380.464 1192.08 380.464 1192.27 380.464H1193.82L1202.52 396.644V382.046C1202.52 380.819 1201.45 380.6 1200.88 380.6C1200.85 380.6 1200.82 380.546 1200.82 380.518C1200.82 380.491 1200.85 380.464 1200.88 380.464C1201.23 380.464 1202.79 380.464 1202.96 380.464C1203.12 380.464 1204.24 380.464 1204.6 380.464C1204.62 380.464 1204.65 380.491 1204.65 380.518C1204.65 380.546 1204.62 380.6 1204.6 380.6C1204.02 380.6 1202.96 380.819 1202.96 382.046V399.536H1202.52L1192.7 381.282V397.954C1192.7 399.181 1193.77 399.4 1194.34 399.4C1194.37 399.4 1194.4 399.454 1194.4 399.482C1194.4 399.509 1194.37 399.536 1194.34 399.536C1193.99 399.536 1192.43 399.536 1192.27 399.536C1192.08 399.536 1190.98 399.536 1190.63 399.536C1190.6 399.536 1190.57 399.509 1190.57 399.482C1190.57 399.454 1190.6 399.4 1190.63 399.4Z"/>
<path d="M1213.19 399.4C1213.77 399.4 1214.83 399.181 1214.83 397.954V382.046C1214.83 380.819 1213.77 380.6 1213.19 380.6C1213.16 380.6 1213.14 380.546 1213.14 380.518C1213.14 380.491 1213.16 380.464 1213.19 380.464C1213.55 380.464 1222.62 380.464 1222.79 380.464L1222.87 380.9C1222.95 381.282 1223.17 382.456 1223.39 383.438C1223.39 383.465 1223.39 383.492 1223.33 383.52C1223.31 383.52 1223.28 383.52 1223.25 383.465C1223.06 383.029 1222.13 380.9 1219.48 380.9H1216.39V389.768H1219.53C1220.74 389.768 1220.96 388.704 1220.98 388.158C1220.98 388.104 1221.01 388.076 1221.04 388.076C1221.06 388.076 1221.12 388.104 1221.12 388.158C1221.12 388.486 1221.12 390.041 1221.12 390.232C1221.12 390.396 1221.12 391.514 1221.12 391.842C1221.12 391.896 1221.06 391.924 1221.04 391.924C1221.01 391.924 1220.98 391.896 1220.98 391.842C1220.96 391.296 1220.74 390.232 1219.53 390.232H1216.39V399.1H1220.22C1222.87 399.1 1223.8 396.971 1223.99 396.535C1224.02 396.48 1224.04 396.48 1224.07 396.48C1224.13 396.508 1224.13 396.535 1224.13 396.562C1223.91 397.544 1223.69 398.718 1223.61 399.1L1223.52 399.536H1214.83C1214.64 399.536 1213.55 399.536 1213.19 399.536C1213.16 399.536 1213.14 399.509 1213.14 399.482C1213.14 399.454 1213.16 399.4 1213.19 399.4Z"/>
<path d="M1249.14 399.4C1249.71 399.4 1250.78 399.181 1250.78 397.954V382.046C1250.78 380.819 1249.71 380.6 1249.14 380.6C1249.11 380.6 1249.08 380.546 1249.08 380.518C1249.08 380.491 1249.11 380.464 1249.14 380.464C1249.49 380.464 1252.17 380.464 1252.33 380.464C1252.5 380.464 1253.62 380.464 1253.95 380.464C1254 380.464 1254.03 380.491 1254.03 380.518C1254.03 380.546 1254 380.6 1253.95 380.6C1253.4 380.6 1252.33 380.819 1252.33 382.046V389.768H1260.21V382.046C1260.21 380.819 1259.14 380.6 1258.57 380.6C1258.54 380.6 1258.51 380.546 1258.51 380.518C1258.51 380.491 1258.54 380.464 1258.57 380.464C1258.92 380.464 1261.6 380.464 1261.77 380.464C1261.96 380.464 1263.05 380.464 1263.41 380.464C1263.43 380.464 1263.46 380.491 1263.46 380.518C1263.46 380.546 1263.43 380.6 1263.41 380.6C1262.83 380.6 1261.77 380.819 1261.77 382.046V397.954C1261.77 399.181 1262.83 399.4 1263.41 399.4C1263.43 399.4 1263.46 399.454 1263.46 399.482C1263.46 399.509 1263.43 399.536 1263.41 399.536C1263.05 399.536 1260.37 399.536 1260.21 399.536C1260.04 399.536 1258.92 399.536 1258.57 399.536C1258.54 399.536 1258.51 399.509 1258.51 399.482C1258.51 399.454 1258.54 399.4 1258.57 399.4C1259.14 399.4 1260.21 399.181 1260.21 397.954V390.232H1252.33V397.954C1252.33 399.181 1253.4 399.4 1253.95 399.4C1254 399.4 1254.03 399.454 1254.03 399.482C1254.03 399.509 1254 399.536 1253.95 399.536C1253.62 399.536 1250.94 399.536 1250.78 399.536C1250.59 399.536 1249.49 399.536 1249.14 399.536C1249.11 399.536 1249.08 399.509 1249.08 399.482C1249.08 399.454 1249.11 399.4 1249.14 399.4Z"/>
<path d="M1271.88 399.536C1271.85 399.536 1271.79 399.509 1271.82 399.482C1271.82 399.454 1271.85 399.4 1271.88 399.4C1272.45 399.4 1273.57 399.181 1273.84 397.954L1277.13 382.046C1277.37 380.873 1276.39 380.6 1275.84 380.6C1275.79 380.6 1275.76 380.546 1275.76 380.518C1275.76 380.491 1275.79 380.464 1275.84 380.464C1276.17 380.464 1278.22 380.464 1278.41 380.464L1282.02 397.954C1282.29 399.181 1283.41 399.4 1283.99 399.4C1284.04 399.4 1284.07 399.454 1284.07 399.482C1284.07 399.509 1284.04 399.536 1283.99 399.536C1283.63 399.536 1280.98 399.536 1280.79 399.536C1280.62 399.536 1279.5 399.536 1279.18 399.536C1279.12 399.536 1279.09 399.509 1279.09 399.482C1279.09 399.454 1279.12 399.4 1279.18 399.4C1279.72 399.4 1280.73 399.209 1280.46 397.954L1278.87 390.232H1275.9L1274.28 397.954C1274.04 399.209 1275.02 399.4 1275.59 399.4C1275.62 399.4 1275.65 399.454 1275.65 399.482C1275.65 399.509 1275.62 399.536 1275.59 399.536C1275.24 399.536 1273.68 399.536 1273.52 399.536C1273.33 399.536 1272.23 399.536 1271.88 399.536ZM1278.77 389.768L1277.37 383.029L1275.98 389.768H1278.77Z"/>
<path d="M1299.88 400C1294.85 400 1290.77 395.525 1290.77 390.014C1290.77 384.475 1294.85 380 1299.88 380C1301.71 380 1303.43 380.6 1304.88 381.637V382.21C1304.88 382.319 1304.88 383.165 1304.88 383.874C1304.88 384.311 1304.88 384.693 1304.88 384.802C1304.88 384.857 1304.85 384.884 1304.8 384.884C1304.77 384.884 1304.74 384.857 1304.74 384.802C1304.72 384.311 1304.47 383.411 1303.7 382.756C1301.57 381.037 1298.95 380.464 1296.57 381.364C1292.66 382.838 1290.94 387.776 1292.82 392.688C1294.71 397.626 1299.22 400.246 1303.1 398.745C1303.92 398.445 1304.63 397.981 1305.26 397.381L1305.62 397.763C1304.03 399.154 1302.04 400 1299.88 400Z"/>
<path d="M1314.03 399.4C1314.6 399.4 1315.67 399.181 1315.67 397.954V382.046C1315.67 380.819 1314.6 380.6 1314.03 380.6C1314 380.6 1313.97 380.546 1313.97 380.518C1313.97 380.491 1314 380.464 1314.03 380.464C1314.38 380.464 1317.06 380.464 1317.23 380.464C1317.39 380.464 1318.51 380.464 1318.84 380.464C1318.89 380.464 1318.92 380.491 1318.92 380.518C1318.92 380.546 1318.89 380.6 1318.84 380.6C1318.29 380.6 1317.23 380.819 1317.23 382.046V390.014L1322.99 382.046C1323.95 380.709 1323.08 380.6 1322.5 380.6C1322.47 380.6 1322.45 380.546 1322.45 380.518C1322.45 380.491 1322.47 380.464 1322.5 380.464C1322.86 380.464 1324.42 380.464 1324.58 380.464C1324.74 380.464 1325.86 380.464 1326.22 380.464C1326.25 380.464 1326.27 380.491 1326.27 380.518C1326.27 380.546 1326.25 380.6 1326.22 380.6C1325.65 380.6 1324.42 380.682 1323.43 382.046L1317.99 389.55L1324.11 397.954C1325.07 399.318 1326.33 399.4 1326.88 399.4C1326.93 399.4 1326.96 399.454 1326.96 399.482C1326.96 399.509 1326.93 399.536 1326.88 399.536C1326.55 399.536 1323.87 399.536 1323.68 399.536C1323.51 399.536 1322.39 399.536 1322.06 399.536C1322.01 399.536 1321.98 399.509 1321.98 399.482C1321.98 399.454 1322.01 399.4 1322.06 399.4C1322.61 399.4 1323.49 399.291 1322.53 397.954L1317.23 390.614V397.954C1317.23 399.181 1318.29 399.4 1318.84 399.4C1318.89 399.4 1318.92 399.454 1318.92 399.482C1318.92 399.509 1318.89 399.536 1318.84 399.536C1318.51 399.536 1315.83 399.536 1315.67 399.536C1315.48 399.536 1314.38 399.536 1314.03 399.536C1314 399.536 1313.97 399.509 1313.97 399.482C1313.97 399.454 1314 399.4 1314.03 399.4Z"/>
<path d="M1335.25 399.536C1335.22 399.536 1335.16 399.509 1335.19 399.482C1335.19 399.454 1335.22 399.4 1335.25 399.4C1335.82 399.4 1336.94 399.181 1337.21 397.954L1340.49 382.046C1340.74 380.873 1339.76 380.6 1339.21 380.6C1339.15 380.6 1339.13 380.546 1339.13 380.518C1339.13 380.491 1339.15 380.464 1339.21 380.464C1339.54 380.464 1341.59 380.464 1341.78 380.464L1345.39 397.954C1345.66 399.181 1346.78 399.4 1347.36 399.4C1347.41 399.4 1347.44 399.454 1347.44 399.482C1347.44 399.509 1347.41 399.536 1347.36 399.536C1347 399.536 1344.35 399.536 1344.16 399.536C1343.99 399.536 1342.87 399.536 1342.54 399.536C1342.49 399.536 1342.46 399.509 1342.46 399.482C1342.46 399.454 1342.49 399.4 1342.54 399.4C1343.09 399.4 1344.1 399.209 1343.83 397.954L1342.24 390.232H1339.26L1337.65 397.954C1337.4 399.209 1338.39 399.4 1338.96 399.4C1338.99 399.4 1339.02 399.454 1339.02 399.482C1339.02 399.509 1338.99 399.536 1338.96 399.536C1338.61 399.536 1337.05 399.536 1336.89 399.536C1336.69 399.536 1335.6 399.536 1335.25 399.536ZM1342.13 389.768L1340.74 383.029L1339.35 389.768H1342.13Z"/>
<path d="M1352.82 383.52C1352.77 383.492 1352.77 383.465 1352.79 383.438C1352.98 382.456 1353.2 381.282 1353.28 380.9L1353.39 380.464H1367.72L1367.83 380.9C1367.91 381.282 1368.13 382.456 1368.32 383.438C1368.35 383.465 1368.35 383.492 1368.29 383.52C1368.27 383.52 1368.21 383.52 1368.21 383.465C1368.02 383.029 1367.06 380.9 1364.44 380.9H1361.35V397.954C1361.35 399.181 1362.42 399.4 1362.96 399.4C1363.02 399.4 1363.04 399.454 1363.04 399.482C1363.04 399.509 1363.02 399.536 1362.96 399.536C1362.63 399.536 1359.96 399.536 1359.76 399.536C1359.6 399.536 1358.48 399.536 1358.15 399.536C1358.1 399.536 1358.07 399.509 1358.07 399.482C1358.07 399.454 1358.1 399.4 1358.15 399.4C1358.7 399.4 1359.76 399.181 1359.76 397.954V380.9H1356.67C1354.05 380.9 1353.09 383.029 1352.9 383.465C1352.9 383.52 1352.85 383.52 1352.82 383.52Z"/>
<path d="M1376.74 399.4C1377.31 399.4 1378.38 399.181 1378.38 397.954V382.046C1378.38 380.819 1377.31 380.6 1376.74 380.6C1376.71 380.6 1376.68 380.546 1376.68 380.518C1376.68 380.491 1376.71 380.464 1376.74 380.464C1377.09 380.464 1379.77 380.464 1379.94 380.464C1380.1 380.464 1381.22 380.464 1381.55 380.464C1381.6 380.464 1381.63 380.491 1381.63 380.518C1381.63 380.546 1381.6 380.6 1381.55 380.6C1381 380.6 1379.94 380.819 1379.94 382.046V389.768H1387.81V382.046C1387.81 380.819 1386.74 380.6 1386.17 380.6C1386.14 380.6 1386.11 380.546 1386.11 380.518C1386.11 380.491 1386.14 380.464 1386.17 380.464C1386.52 380.464 1389.2 380.464 1389.37 380.464C1389.56 380.464 1390.65 380.464 1391.01 380.464C1391.03 380.464 1391.06 380.491 1391.06 380.518C1391.06 380.546 1391.03 380.6 1391.01 380.6C1390.43 380.6 1389.37 380.819 1389.37 382.046V397.954C1389.37 399.181 1390.43 399.4 1391.01 399.4C1391.03 399.4 1391.06 399.454 1391.06 399.482C1391.06 399.509 1391.03 399.536 1391.01 399.536C1390.65 399.536 1387.97 399.536 1387.81 399.536C1387.64 399.536 1386.52 399.536 1386.17 399.536C1386.14 399.536 1386.11 399.509 1386.11 399.482C1386.11 399.454 1386.14 399.4 1386.17 399.4C1386.74 399.4 1387.81 399.181 1387.81 397.954V390.232H1379.94V397.954C1379.94 399.181 1381 399.4 1381.55 399.4C1381.6 399.4 1381.63 399.454 1381.63 399.482C1381.63 399.509 1381.6 399.536 1381.55 399.536C1381.22 399.536 1378.54 399.536 1378.38 399.536C1378.19 399.536 1377.09 399.536 1376.74 399.536C1376.71 399.536 1376.68 399.509 1376.68 399.482C1376.68 399.454 1376.71 399.4 1376.74 399.4Z"/>
<path d="M1408.49 400C1403.46 400 1399.39 395.525 1399.39 390.014C1399.39 384.475 1403.46 380 1408.49 380C1413.52 380 1417.59 384.475 1417.59 390.014C1417.59 395.525 1413.52 400 1408.49 400ZM1405.26 381.255C1401.35 382.729 1399.55 387.776 1401.44 392.688C1403.32 397.626 1407.92 400.136 1411.8 398.636C1415.71 397.162 1417.43 392.224 1415.54 387.312C1413.66 382.374 1409.15 379.754 1405.26 381.255Z"/>
<path d="M1425.98 399.4C1426.55 399.4 1427.62 399.181 1427.62 397.954V382.046C1427.62 380.819 1426.55 380.6 1425.98 380.6C1425.95 380.6 1425.92 380.546 1425.92 380.518C1425.92 380.491 1425.95 380.464 1425.98 380.464C1426.33 380.464 1427.43 380.464 1427.62 380.464H1429.18L1437.87 396.644V382.046C1437.87 380.819 1436.8 380.6 1436.23 380.6C1436.2 380.6 1436.17 380.546 1436.17 380.518C1436.17 380.491 1436.2 380.464 1436.23 380.464C1436.58 380.464 1438.14 380.464 1438.31 380.464C1438.47 380.464 1439.59 380.464 1439.95 380.464C1439.97 380.464 1440 380.491 1440 380.518C1440 380.546 1439.97 380.6 1439.95 380.6C1439.37 380.6 1438.31 380.819 1438.31 382.046V399.536H1437.87L1428.06 381.282V397.954C1428.06 399.181 1429.12 399.4 1429.7 399.4C1429.72 399.4 1429.75 399.454 1429.75 399.482C1429.75 399.509 1429.72 399.536 1429.7 399.536C1429.34 399.536 1427.78 399.536 1427.62 399.536C1427.43 399.536 1426.33 399.536 1425.98 399.536C1425.95 399.536 1425.92 399.509 1425.92 399.482C1425.92 399.454 1425.95 399.4 1425.98 399.4Z"/>
</mask>
<path d="M970.158 400C965.128 400 961.055 395.525 961.055 390.014C961.055 384.475 965.128 380 970.158 380C971.99 380 973.712 380.6 975.161 381.637V382.21C975.161 382.319 975.161 383.165 975.161 383.874C975.161 384.311 975.161 384.693 975.161 384.802C975.161 384.857 975.134 384.884 975.079 384.884C975.052 384.884 975.024 384.857 975.024 384.802C974.997 384.311 974.751 383.411 973.986 382.756C971.853 381.037 969.229 380.464 966.85 381.364C962.941 382.838 961.219 387.776 963.105 392.688C964.991 397.626 969.475 400.218 973.384 398.745C973.74 398.636 974.068 398.499 974.368 398.336V391.351C974.368 390.15 973.302 389.932 972.728 389.905C972.701 389.905 972.673 389.877 972.673 389.85C972.673 389.795 972.701 389.768 972.728 389.768C973.083 389.768 975.763 389.768 975.927 389.768C976.118 389.768 977.212 389.768 977.567 389.768C977.594 389.768 977.622 389.795 977.622 389.85C977.622 389.877 977.594 389.905 977.567 389.905C976.993 389.932 975.927 390.15 975.927 391.351V399.536H975.489L974.56 398.745C973.247 399.536 971.744 400 970.158 400Z" fill="#191817"/>
<path d="M985.617 399.4C986.191 399.4 987.257 399.181 987.257 397.954V382.046C987.257 380.819 986.191 380.6 985.617 380.6C985.59 380.6 985.562 380.546 985.562 380.518C985.562 380.491 985.59 380.464 985.617 380.464C985.973 380.464 988.652 380.464 988.816 380.464C988.98 380.464 990.101 380.464 990.429 380.464C990.483 380.464 990.511 380.491 990.511 380.518C990.511 380.546 990.483 380.6 990.429 380.6C989.882 380.6 988.816 380.819 988.816 382.046V399.1H992.643C995.295 399.1 996.224 396.971 996.416 396.535C996.443 396.48 996.47 396.48 996.498 396.48C996.552 396.508 996.552 396.535 996.552 396.562C996.334 397.544 996.115 398.718 996.033 399.1L995.951 399.536H987.257C987.066 399.536 985.973 399.536 985.617 399.536C985.59 399.536 985.562 399.509 985.562 399.482C985.562 399.454 985.59 399.4 985.617 399.4Z" fill="#191817"/>
<path d="M1013.53 400C1008.5 400 1004.42 395.525 1004.42 390.014C1004.42 384.475 1008.5 380 1013.53 380C1018.56 380 1022.63 384.475 1022.63 390.014C1022.63 395.525 1018.56 400 1013.53 400ZM1010.3 381.255C1006.39 382.729 1004.59 387.776 1006.47 392.688C1008.36 397.626 1012.95 400.136 1016.83 398.636C1020.74 397.162 1022.47 392.224 1020.58 387.312C1018.69 382.374 1014.18 379.754 1010.3 381.255Z" fill="#191817"/>
<path d="M1031.01 399.4C1031.59 399.4 1032.65 399.181 1032.65 397.954V382.046C1032.65 380.819 1031.59 380.6 1031.01 380.6C1030.99 380.6 1030.96 380.546 1030.96 380.518C1030.96 380.491 1030.99 380.464 1031.01 380.464C1031.37 380.464 1033.99 380.464 1034.16 380.464C1034.95 380.464 1035.82 380.464 1036.51 380.464C1041.29 380.464 1044.14 381.473 1044.14 384.175C1044.14 386.903 1040.64 387.831 1037.44 388.622C1041.62 388.731 1044.96 390.75 1044.96 394.297C1044.96 397.763 1041.59 400 1037.25 400C1035.93 400 1034.62 399.563 1033.42 399.563H1032.65C1032.46 399.563 1031.37 399.563 1031.01 399.563C1030.99 399.563 1030.96 399.509 1030.96 399.482C1030.96 399.454 1030.99 399.4 1031.01 399.4ZM1043.29 394.379C1043.29 391.514 1040.75 389.059 1037.06 389.059C1036.07 389.059 1035.11 389.195 1034.21 389.495V397.053C1034.21 399.4 1035.69 399.563 1037.55 399.563C1040.09 399.563 1043.29 397.899 1043.29 394.379ZM1042.58 384.311C1042.58 382.019 1040.42 380.9 1036.51 380.9C1035.69 380.9 1035 380.9 1034.21 380.9V389.086C1037.49 387.885 1042.58 387.694 1042.58 384.311Z" fill="#191817"/>
<path d="M1052.45 399.536C1052.42 399.536 1052.36 399.509 1052.39 399.482C1052.39 399.454 1052.42 399.4 1052.45 399.4C1053.02 399.4 1054.14 399.181 1054.41 397.954L1057.69 382.046C1057.94 380.873 1056.96 380.6 1056.41 380.6C1056.35 380.6 1056.33 380.546 1056.33 380.518C1056.33 380.491 1056.35 380.464 1056.41 380.464C1056.74 380.464 1058.79 380.464 1058.98 380.464L1062.59 397.954C1062.86 399.181 1063.98 399.4 1064.56 399.4C1064.61 399.4 1064.64 399.454 1064.64 399.482C1064.64 399.509 1064.61 399.536 1064.56 399.536C1064.2 399.536 1061.55 399.536 1061.36 399.536C1061.19 399.536 1060.07 399.536 1059.74 399.536C1059.69 399.536 1059.66 399.509 1059.66 399.482C1059.66 399.454 1059.69 399.4 1059.74 399.4C1060.29 399.4 1061.3 399.209 1061.03 397.954L1059.44 390.232H1056.46L1054.85 397.954C1054.6 399.209 1055.59 399.4 1056.16 399.4C1056.19 399.4 1056.22 399.454 1056.22 399.482C1056.22 399.509 1056.19 399.536 1056.16 399.536C1055.81 399.536 1054.25 399.536 1054.09 399.536C1053.89 399.536 1052.8 399.536 1052.45 399.536ZM1059.33 389.768L1057.94 383.029L1056.55 389.768H1059.33Z" fill="#191817"/>
<path d="M1073.05 399.4C1073.62 399.4 1074.69 399.181 1074.69 397.954V382.046C1074.69 380.819 1073.62 380.6 1073.05 380.6C1073.02 380.6 1072.99 380.546 1072.99 380.518C1072.99 380.491 1073.02 380.464 1073.05 380.464C1073.4 380.464 1076.08 380.464 1076.24 380.464C1076.41 380.464 1077.53 380.464 1077.86 380.464C1077.91 380.464 1077.94 380.491 1077.94 380.518C1077.94 380.546 1077.91 380.6 1077.86 380.6C1077.31 380.6 1076.24 380.819 1076.24 382.046V399.1H1080.07C1082.72 399.1 1083.65 396.971 1083.84 396.535C1083.87 396.48 1083.9 396.48 1083.93 396.48C1083.98 396.508 1083.98 396.535 1083.98 396.562C1083.76 397.544 1083.54 398.718 1083.46 399.1L1083.38 399.536H1074.69C1074.49 399.536 1073.4 399.536 1073.05 399.536C1073.02 399.536 1072.99 399.509 1072.99 399.482C1072.99 399.454 1073.02 399.4 1073.05 399.4Z" fill="#191817"/>
<path d="M1117.97 400C1112.94 400 1108.86 395.525 1108.86 390.014C1108.86 384.475 1112.94 380 1117.97 380C1123 380 1127.07 384.475 1127.07 390.014C1127.07 395.525 1123 400 1117.97 400ZM1114.74 381.255C1110.83 382.729 1109.03 387.776 1110.91 392.688C1112.8 397.626 1117.39 400.136 1121.27 398.636C1125.18 397.162 1126.91 392.224 1125.02 387.312C1123.13 382.374 1118.62 379.754 1114.74 381.255Z" fill="#191817"/>
<path d="M1135.45 399.4C1136.03 399.4 1137.09 399.181 1137.09 397.954V382.046C1137.09 380.819 1136.03 380.6 1135.45 380.6C1135.43 380.6 1135.4 380.546 1135.4 380.518C1135.4 380.491 1135.43 380.464 1135.45 380.464C1135.81 380.464 1136.9 380.464 1137.09 380.464H1138.65L1147.35 396.644V382.046C1147.35 380.819 1146.28 380.6 1145.71 380.6C1145.68 380.6 1145.65 380.546 1145.65 380.518C1145.65 380.491 1145.68 380.464 1145.71 380.464C1146.06 380.464 1147.62 380.464 1147.78 380.464C1147.95 380.464 1149.07 380.464 1149.42 380.464C1149.45 380.464 1149.48 380.491 1149.48 380.518C1149.48 380.546 1149.45 380.6 1149.42 380.6C1148.85 380.6 1147.78 380.819 1147.78 382.046V399.536H1147.35L1137.53 381.282V397.954C1137.53 399.181 1138.6 399.4 1139.17 399.4C1139.2 399.4 1139.23 399.454 1139.23 399.482C1139.23 399.509 1139.2 399.536 1139.17 399.536C1138.82 399.536 1137.26 399.536 1137.09 399.536C1136.9 399.536 1135.81 399.536 1135.45 399.536C1135.43 399.536 1135.4 399.509 1135.4 399.482C1135.4 399.454 1135.43 399.4 1135.45 399.4Z" fill="#191817"/>
<path d="M1158.02 399.4C1158.59 399.4 1159.66 399.181 1159.66 397.954V382.046C1159.66 380.819 1158.59 380.6 1158.02 380.6C1157.99 380.6 1157.96 380.546 1157.96 380.518C1157.96 380.491 1157.99 380.464 1158.02 380.464C1158.37 380.464 1161.05 380.464 1161.22 380.464C1161.38 380.464 1162.5 380.464 1162.83 380.464C1162.88 380.464 1162.91 380.491 1162.91 380.518C1162.91 380.546 1162.88 380.6 1162.83 380.6C1162.28 380.6 1161.22 380.819 1161.22 382.046V399.1H1165.04C1167.7 399.1 1168.63 396.971 1168.82 396.535C1168.84 396.48 1168.87 396.48 1168.9 396.48C1168.95 396.508 1168.95 396.535 1168.95 396.562C1168.73 397.544 1168.52 398.718 1168.43 399.1L1168.35 399.536H1159.66C1159.47 399.536 1158.37 399.536 1158.02 399.536C1157.99 399.536 1157.96 399.509 1157.96 399.482C1157.96 399.454 1157.99 399.4 1158.02 399.4Z" fill="#191817"/>
<path d="M1177.17 399.4C1177.74 399.4 1178.81 399.181 1178.81 397.954V382.046C1178.81 380.819 1177.74 380.6 1177.17 380.6C1177.14 380.6 1177.11 380.546 1177.11 380.518C1177.11 380.491 1177.14 380.464 1177.17 380.464C1177.52 380.464 1180.2 380.464 1180.36 380.464C1180.53 380.464 1181.65 380.464 1181.98 380.464C1182.03 380.464 1182.06 380.491 1182.06 380.518C1182.06 380.546 1182.03 380.6 1181.98 380.6C1181.43 380.6 1180.36 380.819 1180.36 382.046V397.954C1180.36 399.181 1181.43 399.4 1181.98 399.4C1182.03 399.4 1182.06 399.454 1182.06 399.482C1182.06 399.509 1182.03 399.536 1181.98 399.536C1181.65 399.536 1178.97 399.536 1178.81 399.536C1178.61 399.536 1177.52 399.536 1177.17 399.536C1177.14 399.536 1177.11 399.509 1177.11 399.482C1177.11 399.454 1177.14 399.4 1177.17 399.4Z" fill="#191817"/>
<path d="M1190.63 399.4C1191.2 399.4 1192.27 399.181 1192.27 397.954V382.046C1192.27 380.819 1191.2 380.6 1190.63 380.6C1190.6 380.6 1190.57 380.546 1190.57 380.518C1190.57 380.491 1190.6 380.464 1190.63 380.464C1190.98 380.464 1192.08 380.464 1192.27 380.464H1193.82L1202.52 396.644V382.046C1202.52 380.819 1201.45 380.6 1200.88 380.6C1200.85 380.6 1200.82 380.546 1200.82 380.518C1200.82 380.491 1200.85 380.464 1200.88 380.464C1201.23 380.464 1202.79 380.464 1202.96 380.464C1203.12 380.464 1204.24 380.464 1204.6 380.464C1204.62 380.464 1204.65 380.491 1204.65 380.518C1204.65 380.546 1204.62 380.6 1204.6 380.6C1204.02 380.6 1202.96 380.819 1202.96 382.046V399.536H1202.52L1192.7 381.282V397.954C1192.7 399.181 1193.77 399.4 1194.34 399.4C1194.37 399.4 1194.4 399.454 1194.4 399.482C1194.4 399.509 1194.37 399.536 1194.34 399.536C1193.99 399.536 1192.43 399.536 1192.27 399.536C1192.08 399.536 1190.98 399.536 1190.63 399.536C1190.6 399.536 1190.57 399.509 1190.57 399.482C1190.57 399.454 1190.6 399.4 1190.63 399.4Z" fill="#191817"/>
<path d="M1213.19 399.4C1213.77 399.4 1214.83 399.181 1214.83 397.954V382.046C1214.83 380.819 1213.77 380.6 1213.19 380.6C1213.16 380.6 1213.14 380.546 1213.14 380.518C1213.14 380.491 1213.16 380.464 1213.19 380.464C1213.55 380.464 1222.62 380.464 1222.79 380.464L1222.87 380.9C1222.95 381.282 1223.17 382.456 1223.39 383.438C1223.39 383.465 1223.39 383.492 1223.33 383.52C1223.31 383.52 1223.28 383.52 1223.25 383.465C1223.06 383.029 1222.13 380.9 1219.48 380.9H1216.39V389.768H1219.53C1220.74 389.768 1220.96 388.704 1220.98 388.158C1220.98 388.104 1221.01 388.076 1221.04 388.076C1221.06 388.076 1221.12 388.104 1221.12 388.158C1221.12 388.486 1221.12 390.041 1221.12 390.232C1221.12 390.396 1221.12 391.514 1221.12 391.842C1221.12 391.896 1221.06 391.924 1221.04 391.924C1221.01 391.924 1220.98 391.896 1220.98 391.842C1220.96 391.296 1220.74 390.232 1219.53 390.232H1216.39V399.1H1220.22C1222.87 399.1 1223.8 396.971 1223.99 396.535C1224.02 396.48 1224.04 396.48 1224.07 396.48C1224.13 396.508 1224.13 396.535 1224.13 396.562C1223.91 397.544 1223.69 398.718 1223.61 399.1L1223.52 399.536H1214.83C1214.64 399.536 1213.55 399.536 1213.19 399.536C1213.16 399.536 1213.14 399.509 1213.14 399.482C1213.14 399.454 1213.16 399.4 1213.19 399.4Z" fill="#191817"/>
<path d="M1249.14 399.4C1249.71 399.4 1250.78 399.181 1250.78 397.954V382.046C1250.78 380.819 1249.71 380.6 1249.14 380.6C1249.11 380.6 1249.08 380.546 1249.08 380.518C1249.08 380.491 1249.11 380.464 1249.14 380.464C1249.49 380.464 1252.17 380.464 1252.33 380.464C1252.5 380.464 1253.62 380.464 1253.95 380.464C1254 380.464 1254.03 380.491 1254.03 380.518C1254.03 380.546 1254 380.6 1253.95 380.6C1253.4 380.6 1252.33 380.819 1252.33 382.046V389.768H1260.21V382.046C1260.21 380.819 1259.14 380.6 1258.57 380.6C1258.54 380.6 1258.51 380.546 1258.51 380.518C1258.51 380.491 1258.54 380.464 1258.57 380.464C1258.92 380.464 1261.6 380.464 1261.77 380.464C1261.96 380.464 1263.05 380.464 1263.41 380.464C1263.43 380.464 1263.46 380.491 1263.46 380.518C1263.46 380.546 1263.43 380.6 1263.41 380.6C1262.83 380.6 1261.77 380.819 1261.77 382.046V397.954C1261.77 399.181 1262.83 399.4 1263.41 399.4C1263.43 399.4 1263.46 399.454 1263.46 399.482C1263.46 399.509 1263.43 399.536 1263.41 399.536C1263.05 399.536 1260.37 399.536 1260.21 399.536C1260.04 399.536 1258.92 399.536 1258.57 399.536C1258.54 399.536 1258.51 399.509 1258.51 399.482C1258.51 399.454 1258.54 399.4 1258.57 399.4C1259.14 399.4 1260.21 399.181 1260.21 397.954V390.232H1252.33V397.954C1252.33 399.181 1253.4 399.4 1253.95 399.4C1254 399.4 1254.03 399.454 1254.03 399.482C1254.03 399.509 1254 399.536 1253.95 399.536C1253.62 399.536 1250.94 399.536 1250.78 399.536C1250.59 399.536 1249.49 399.536 1249.14 399.536C1249.11 399.536 1249.08 399.509 1249.08 399.482C1249.08 399.454 1249.11 399.4 1249.14 399.4Z" fill="#191817"/>
<path d="M1271.88 399.536C1271.85 399.536 1271.79 399.509 1271.82 399.482C1271.82 399.454 1271.85 399.4 1271.88 399.4C1272.45 399.4 1273.57 399.181 1273.84 397.954L1277.13 382.046C1277.37 380.873 1276.39 380.6 1275.84 380.6C1275.79 380.6 1275.76 380.546 1275.76 380.518C1275.76 380.491 1275.79 380.464 1275.84 380.464C1276.17 380.464 1278.22 380.464 1278.41 380.464L1282.02 397.954C1282.29 399.181 1283.41 399.4 1283.99 399.4C1284.04 399.4 1284.07 399.454 1284.07 399.482C1284.07 399.509 1284.04 399.536 1283.99 399.536C1283.63 399.536 1280.98 399.536 1280.79 399.536C1280.62 399.536 1279.5 399.536 1279.18 399.536C1279.12 399.536 1279.09 399.509 1279.09 399.482C1279.09 399.454 1279.12 399.4 1279.18 399.4C1279.72 399.4 1280.73 399.209 1280.46 397.954L1278.87 390.232H1275.9L1274.28 397.954C1274.04 399.209 1275.02 399.4 1275.59 399.4C1275.62 399.4 1275.65 399.454 1275.65 399.482C1275.65 399.509 1275.62 399.536 1275.59 399.536C1275.24 399.536 1273.68 399.536 1273.52 399.536C1273.33 399.536 1272.23 399.536 1271.88 399.536ZM1278.77 389.768L1277.37 383.029L1275.98 389.768H1278.77Z" fill="#191817"/>
<path d="M1299.88 400C1294.85 400 1290.77 395.525 1290.77 390.014C1290.77 384.475 1294.85 380 1299.88 380C1301.71 380 1303.43 380.6 1304.88 381.637V382.21C1304.88 382.319 1304.88 383.165 1304.88 383.874C1304.88 384.311 1304.88 384.693 1304.88 384.802C1304.88 384.857 1304.85 384.884 1304.8 384.884C1304.77 384.884 1304.74 384.857 1304.74 384.802C1304.72 384.311 1304.47 383.411 1303.7 382.756C1301.57 381.037 1298.95 380.464 1296.57 381.364C1292.66 382.838 1290.94 387.776 1292.82 392.688C1294.71 397.626 1299.22 400.246 1303.1 398.745C1303.92 398.445 1304.63 397.981 1305.26 397.381L1305.62 397.763C1304.03 399.154 1302.04 400 1299.88 400Z" fill="#191817"/>
<path d="M1314.03 399.4C1314.6 399.4 1315.67 399.181 1315.67 397.954V382.046C1315.67 380.819 1314.6 380.6 1314.03 380.6C1314 380.6 1313.97 380.546 1313.97 380.518C1313.97 380.491 1314 380.464 1314.03 380.464C1314.38 380.464 1317.06 380.464 1317.23 380.464C1317.39 380.464 1318.51 380.464 1318.84 380.464C1318.89 380.464 1318.92 380.491 1318.92 380.518C1318.92 380.546 1318.89 380.6 1318.84 380.6C1318.29 380.6 1317.23 380.819 1317.23 382.046V390.014L1322.99 382.046C1323.95 380.709 1323.08 380.6 1322.5 380.6C1322.47 380.6 1322.45 380.546 1322.45 380.518C1322.45 380.491 1322.47 380.464 1322.5 380.464C1322.86 380.464 1324.42 380.464 1324.58 380.464C1324.74 380.464 1325.86 380.464 1326.22 380.464C1326.25 380.464 1326.27 380.491 1326.27 380.518C1326.27 380.546 1326.25 380.6 1326.22 380.6C1325.65 380.6 1324.42 380.682 1323.43 382.046L1317.99 389.55L1324.11 397.954C1325.07 399.318 1326.33 399.4 1326.88 399.4C1326.93 399.4 1326.96 399.454 1326.96 399.482C1326.96 399.509 1326.93 399.536 1326.88 399.536C1326.55 399.536 1323.87 399.536 1323.68 399.536C1323.51 399.536 1322.39 399.536 1322.06 399.536C1322.01 399.536 1321.98 399.509 1321.98 399.482C1321.98 399.454 1322.01 399.4 1322.06 399.4C1322.61 399.4 1323.49 399.291 1322.53 397.954L1317.23 390.614V397.954C1317.23 399.181 1318.29 399.4 1318.84 399.4C1318.89 399.4 1318.92 399.454 1318.92 399.482C1318.92 399.509 1318.89 399.536 1318.84 399.536C1318.51 399.536 1315.83 399.536 1315.67 399.536C1315.48 399.536 1314.38 399.536 1314.03 399.536C1314 399.536 1313.97 399.509 1313.97 399.482C1313.97 399.454 1314 399.4 1314.03 399.4Z" fill="#191817"/>
<path d="M1335.25 399.536C1335.22 399.536 1335.16 399.509 1335.19 399.482C1335.19 399.454 1335.22 399.4 1335.25 399.4C1335.82 399.4 1336.94 399.181 1337.21 397.954L1340.49 382.046C1340.74 380.873 1339.76 380.6 1339.21 380.6C1339.15 380.6 1339.13 380.546 1339.13 380.518C1339.13 380.491 1339.15 380.464 1339.21 380.464C1339.54 380.464 1341.59 380.464 1341.78 380.464L1345.39 397.954C1345.66 399.181 1346.78 399.4 1347.36 399.4C1347.41 399.4 1347.44 399.454 1347.44 399.482C1347.44 399.509 1347.41 399.536 1347.36 399.536C1347 399.536 1344.35 399.536 1344.16 399.536C1343.99 399.536 1342.87 399.536 1342.54 399.536C1342.49 399.536 1342.46 399.509 1342.46 399.482C1342.46 399.454 1342.49 399.4 1342.54 399.4C1343.09 399.4 1344.1 399.209 1343.83 397.954L1342.24 390.232H1339.26L1337.65 397.954C1337.4 399.209 1338.39 399.4 1338.96 399.4C1338.99 399.4 1339.02 399.454 1339.02 399.482C1339.02 399.509 1338.99 399.536 1338.96 399.536C1338.61 399.536 1337.05 399.536 1336.89 399.536C1336.69 399.536 1335.6 399.536 1335.25 399.536ZM1342.13 389.768L1340.74 383.029L1339.35 389.768H1342.13Z" fill="#191817"/>
<path d="M1352.82 383.52C1352.77 383.492 1352.77 383.465 1352.79 383.438C1352.98 382.456 1353.2 381.282 1353.28 380.9L1353.39 380.464H1367.72L1367.83 380.9C1367.91 381.282 1368.13 382.456 1368.32 383.438C1368.35 383.465 1368.35 383.492 1368.29 383.52C1368.27 383.52 1368.21 383.52 1368.21 383.465C1368.02 383.029 1367.06 380.9 1364.44 380.9H1361.35V397.954C1361.35 399.181 1362.42 399.4 1362.96 399.4C1363.02 399.4 1363.04 399.454 1363.04 399.482C1363.04 399.509 1363.02 399.536 1362.96 399.536C1362.63 399.536 1359.96 399.536 1359.76 399.536C1359.6 399.536 1358.48 399.536 1358.15 399.536C1358.1 399.536 1358.07 399.509 1358.07 399.482C1358.07 399.454 1358.1 399.4 1358.15 399.4C1358.7 399.4 1359.76 399.181 1359.76 397.954V380.9H1356.67C1354.05 380.9 1353.09 383.029 1352.9 383.465C1352.9 383.52 1352.85 383.52 1352.82 383.52Z" fill="#191817"/>
<path d="M1376.74 399.4C1377.31 399.4 1378.38 399.181 1378.38 397.954V382.046C1378.38 380.819 1377.31 380.6 1376.74 380.6C1376.71 380.6 1376.68 380.546 1376.68 380.518C1376.68 380.491 1376.71 380.464 1376.74 380.464C1377.09 380.464 1379.77 380.464 1379.94 380.464C1380.1 380.464 1381.22 380.464 1381.55 380.464C1381.6 380.464 1381.63 380.491 1381.63 380.518C1381.63 380.546 1381.6 380.6 1381.55 380.6C1381 380.6 1379.94 380.819 1379.94 382.046V389.768H1387.81V382.046C1387.81 380.819 1386.74 380.6 1386.17 380.6C1386.14 380.6 1386.11 380.546 1386.11 380.518C1386.11 380.491 1386.14 380.464 1386.17 380.464C1386.52 380.464 1389.2 380.464 1389.37 380.464C1389.56 380.464 1390.65 380.464 1391.01 380.464C1391.03 380.464 1391.06 380.491 1391.06 380.518C1391.06 380.546 1391.03 380.6 1391.01 380.6C1390.43 380.6 1389.37 380.819 1389.37 382.046V397.954C1389.37 399.181 1390.43 399.4 1391.01 399.4C1391.03 399.4 1391.06 399.454 1391.06 399.482C1391.06 399.509 1391.03 399.536 1391.01 399.536C1390.65 399.536 1387.97 399.536 1387.81 399.536C1387.64 399.536 1386.52 399.536 1386.17 399.536C1386.14 399.536 1386.11 399.509 1386.11 399.482C1386.11 399.454 1386.14 399.4 1386.17 399.4C1386.74 399.4 1387.81 399.181 1387.81 397.954V390.232H1379.94V397.954C1379.94 399.181 1381 399.4 1381.55 399.4C1381.6 399.4 1381.63 399.454 1381.63 399.482C1381.63 399.509 1381.6 399.536 1381.55 399.536C1381.22 399.536 1378.54 399.536 1378.38 399.536C1378.19 399.536 1377.09 399.536 1376.74 399.536C1376.71 399.536 1376.68 399.509 1376.68 399.482C1376.68 399.454 1376.71 399.4 1376.74 399.4Z" fill="#191817"/>
<path d="M1408.49 400C1403.46 400 1399.39 395.525 1399.39 390.014C1399.39 384.475 1403.46 380 1408.49 380C1413.52 380 1417.59 384.475 1417.59 390.014C1417.59 395.525 1413.52 400 1408.49 400ZM1405.26 381.255C1401.35 382.729 1399.55 387.776 1401.44 392.688C1403.32 397.626 1407.92 400.136 1411.8 398.636C1415.71 397.162 1417.43 392.224 1415.54 387.312C1413.66 382.374 1409.15 379.754 1405.26 381.255Z" fill="#191817"/>
<path d="M1425.98 399.4C1426.55 399.4 1427.62 399.181 1427.62 397.954V382.046C1427.62 380.819 1426.55 380.6 1425.98 380.6C1425.95 380.6 1425.92 380.546 1425.92 380.518C1425.92 380.491 1425.95 380.464 1425.98 380.464C1426.33 380.464 1427.43 380.464 1427.62 380.464H1429.18L1437.87 396.644V382.046C1437.87 380.819 1436.8 380.6 1436.23 380.6C1436.2 380.6 1436.17 380.546 1436.17 380.518C1436.17 380.491 1436.2 380.464 1436.23 380.464C1436.58 380.464 1438.14 380.464 1438.31 380.464C1438.47 380.464 1439.59 380.464 1439.95 380.464C1439.97 380.464 1440 380.491 1440 380.518C1440 380.546 1439.97 380.6 1439.95 380.6C1439.37 380.6 1438.31 380.819 1438.31 382.046V399.536H1437.87L1428.06 381.282V397.954C1428.06 399.181 1429.12 399.4 1429.7 399.4C1429.72 399.4 1429.75 399.454 1429.75 399.482C1429.75 399.509 1429.72 399.536 1429.7 399.536C1429.34 399.536 1427.78 399.536 1427.62 399.536C1427.43 399.536 1426.33 399.536 1425.98 399.536C1425.95 399.536 1425.92 399.509 1425.92 399.482C1425.92 399.454 1425.95 399.4 1425.98 399.4Z" fill="#191817"/>
<path d="M970.158 400C965.128 400 961.055 395.525 961.055 390.014C961.055 384.475 965.128 380 970.158 380C971.99 380 973.712 380.6 975.161 381.637V382.21C975.161 382.319 975.161 383.165 975.161 383.874C975.161 384.311 975.161 384.693 975.161 384.802C975.161 384.857 975.134 384.884 975.079 384.884C975.052 384.884 975.024 384.857 975.024 384.802C974.997 384.311 974.751 383.411 973.986 382.756C971.853 381.037 969.229 380.464 966.85 381.364C962.941 382.838 961.219 387.776 963.105 392.688C964.991 397.626 969.475 400.218 973.384 398.745C973.74 398.636 974.068 398.499 974.368 398.336V391.351C974.368 390.15 973.302 389.932 972.728 389.905C972.701 389.905 972.673 389.877 972.673 389.85C972.673 389.795 972.701 389.768 972.728 389.768C973.083 389.768 975.763 389.768 975.927 389.768C976.118 389.768 977.212 389.768 977.567 389.768C977.594 389.768 977.622 389.795 977.622 389.85C977.622 389.877 977.594 389.905 977.567 389.905C976.993 389.932 975.927 390.15 975.927 391.351V399.536H975.489L974.56 398.745C973.247 399.536 971.744 400 970.158 400Z" stroke="#191817" mask="url(#path-26-outside-1_3723_51120)"/>
<path d="M985.617 399.4C986.191 399.4 987.257 399.181 987.257 397.954V382.046C987.257 380.819 986.191 380.6 985.617 380.6C985.59 380.6 985.562 380.546 985.562 380.518C985.562 380.491 985.59 380.464 985.617 380.464C985.973 380.464 988.652 380.464 988.816 380.464C988.98 380.464 990.101 380.464 990.429 380.464C990.483 380.464 990.511 380.491 990.511 380.518C990.511 380.546 990.483 380.6 990.429 380.6C989.882 380.6 988.816 380.819 988.816 382.046V399.1H992.643C995.295 399.1 996.224 396.971 996.416 396.535C996.443 396.48 996.47 396.48 996.498 396.48C996.552 396.508 996.552 396.535 996.552 396.562C996.334 397.544 996.115 398.718 996.033 399.1L995.951 399.536H987.257C987.066 399.536 985.973 399.536 985.617 399.536C985.59 399.536 985.562 399.509 985.562 399.482C985.562 399.454 985.59 399.4 985.617 399.4Z" stroke="#191817" mask="url(#path-26-outside-1_3723_51120)"/>
<path d="M1013.53 400C1008.5 400 1004.42 395.525 1004.42 390.014C1004.42 384.475 1008.5 380 1013.53 380C1018.56 380 1022.63 384.475 1022.63 390.014C1022.63 395.525 1018.56 400 1013.53 400ZM1010.3 381.255C1006.39 382.729 1004.59 387.776 1006.47 392.688C1008.36 397.626 1012.95 400.136 1016.83 398.636C1020.74 397.162 1022.47 392.224 1020.58 387.312C1018.69 382.374 1014.18 379.754 1010.3 381.255Z" stroke="#191817" mask="url(#path-26-outside-1_3723_51120)"/>
<path d="M1031.01 399.4C1031.59 399.4 1032.65 399.181 1032.65 397.954V382.046C1032.65 380.819 1031.59 380.6 1031.01 380.6C1030.99 380.6 1030.96 380.546 1030.96 380.518C1030.96 380.491 1030.99 380.464 1031.01 380.464C1031.37 380.464 1033.99 380.464 1034.16 380.464C1034.95 380.464 1035.82 380.464 1036.51 380.464C1041.29 380.464 1044.14 381.473 1044.14 384.175C1044.14 386.903 1040.64 387.831 1037.44 388.622C1041.62 388.731 1044.96 390.75 1044.96 394.297C1044.96 397.763 1041.59 400 1037.25 400C1035.93 400 1034.62 399.563 1033.42 399.563H1032.65C1032.46 399.563 1031.37 399.563 1031.01 399.563C1030.99 399.563 1030.96 399.509 1030.96 399.482C1030.96 399.454 1030.99 399.4 1031.01 399.4ZM1043.29 394.379C1043.29 391.514 1040.75 389.059 1037.06 389.059C1036.07 389.059 1035.11 389.195 1034.21 389.495V397.053C1034.21 399.4 1035.69 399.563 1037.55 399.563C1040.09 399.563 1043.29 397.899 1043.29 394.379ZM1042.58 384.311C1042.58 382.019 1040.42 380.9 1036.51 380.9C1035.69 380.9 1035 380.9 1034.21 380.9V389.086C1037.49 387.885 1042.58 387.694 1042.58 384.311Z" stroke="#191817" mask="url(#path-26-outside-1_3723_51120)"/>
<path d="M1052.45 399.536C1052.42 399.536 1052.36 399.509 1052.39 399.482C1052.39 399.454 1052.42 399.4 1052.45 399.4C1053.02 399.4 1054.14 399.181 1054.41 397.954L1057.69 382.046C1057.94 380.873 1056.96 380.6 1056.41 380.6C1056.35 380.6 1056.33 380.546 1056.33 380.518C1056.33 380.491 1056.35 380.464 1056.41 380.464C1056.74 380.464 1058.79 380.464 1058.98 380.464L1062.59 397.954C1062.86 399.181 1063.98 399.4 1064.56 399.4C1064.61 399.4 1064.64 399.454 1064.64 399.482C1064.64 399.509 1064.61 399.536 1064.56 399.536C1064.2 399.536 1061.55 399.536 1061.36 399.536C1061.19 399.536 1060.07 399.536 1059.74 399.536C1059.69 399.536 1059.66 399.509 1059.66 399.482C1059.66 399.454 1059.69 399.4 1059.74 399.4C1060.29 399.4 1061.3 399.209 1061.03 397.954L1059.44 390.232H1056.46L1054.85 397.954C1054.6 399.209 1055.59 399.4 1056.16 399.4C1056.19 399.4 1056.22 399.454 1056.22 399.482C1056.22 399.509 1056.19 399.536 1056.16 399.536C1055.81 399.536 1054.25 399.536 1054.09 399.536C1053.89 399.536 1052.8 399.536 1052.45 399.536ZM1059.33 389.768L1057.94 383.029L1056.55 389.768H1059.33Z" stroke="#191817" mask="url(#path-26-outside-1_3723_51120)"/>
<path d="M1073.05 399.4C1073.62 399.4 1074.69 399.181 1074.69 397.954V382.046C1074.69 380.819 1073.62 380.6 1073.05 380.6C1073.02 380.6 1072.99 380.546 1072.99 380.518C1072.99 380.491 1073.02 380.464 1073.05 380.464C1073.4 380.464 1076.08 380.464 1076.24 380.464C1076.41 380.464 1077.53 380.464 1077.86 380.464C1077.91 380.464 1077.94 380.491 1077.94 380.518C1077.94 380.546 1077.91 380.6 1077.86 380.6C1077.31 380.6 1076.24 380.819 1076.24 382.046V399.1H1080.07C1082.72 399.1 1083.65 396.971 1083.84 396.535C1083.87 396.48 1083.9 396.48 1083.93 396.48C1083.98 396.508 1083.98 396.535 1083.98 396.562C1083.76 397.544 1083.54 398.718 1083.46 399.1L1083.38 399.536H1074.69C1074.49 399.536 1073.4 399.536 1073.05 399.536C1073.02 399.536 1072.99 399.509 1072.99 399.482C1072.99 399.454 1073.02 399.4 1073.05 399.4Z" stroke="#191817" mask="url(#path-26-outside-1_3723_51120)"/>
<path d="M1117.97 400C1112.94 400 1108.86 395.525 1108.86 390.014C1108.86 384.475 1112.94 380 1117.97 380C1123 380 1127.07 384.475 1127.07 390.014C1127.07 395.525 1123 400 1117.97 400ZM1114.74 381.255C1110.83 382.729 1109.03 387.776 1110.91 392.688C1112.8 397.626 1117.39 400.136 1121.27 398.636C1125.18 397.162 1126.91 392.224 1125.02 387.312C1123.13 382.374 1118.62 379.754 1114.74 381.255Z" stroke="#191817" mask="url(#path-26-outside-1_3723_51120)"/>
<path d="M1135.45 399.4C1136.03 399.4 1137.09 399.181 1137.09 397.954V382.046C1137.09 380.819 1136.03 380.6 1135.45 380.6C1135.43 380.6 1135.4 380.546 1135.4 380.518C1135.4 380.491 1135.43 380.464 1135.45 380.464C1135.81 380.464 1136.9 380.464 1137.09 380.464H1138.65L1147.35 396.644V382.046C1147.35 380.819 1146.28 380.6 1145.71 380.6C1145.68 380.6 1145.65 380.546 1145.65 380.518C1145.65 380.491 1145.68 380.464 1145.71 380.464C1146.06 380.464 1147.62 380.464 1147.78 380.464C1147.95 380.464 1149.07 380.464 1149.42 380.464C1149.45 380.464 1149.48 380.491 1149.48 380.518C1149.48 380.546 1149.45 380.6 1149.42 380.6C1148.85 380.6 1147.78 380.819 1147.78 382.046V399.536H1147.35L1137.53 381.282V397.954C1137.53 399.181 1138.6 399.4 1139.17 399.4C1139.2 399.4 1139.23 399.454 1139.23 399.482C1139.23 399.509 1139.2 399.536 1139.17 399.536C1138.82 399.536 1137.26 399.536 1137.09 399.536C1136.9 399.536 1135.81 399.536 1135.45 399.536C1135.43 399.536 1135.4 399.509 1135.4 399.482C1135.4 399.454 1135.43 399.4 1135.45 399.4Z" stroke="#191817" mask="url(#path-26-outside-1_3723_51120)"/>
<path d="M1158.02 399.4C1158.59 399.4 1159.66 399.181 1159.66 397.954V382.046C1159.66 380.819 1158.59 380.6 1158.02 380.6C1157.99 380.6 1157.96 380.546 1157.96 380.518C1157.96 380.491 1157.99 380.464 1158.02 380.464C1158.37 380.464 1161.05 380.464 1161.22 380.464C1161.38 380.464 1162.5 380.464 1162.83 380.464C1162.88 380.464 1162.91 380.491 1162.91 380.518C1162.91 380.546 1162.88 380.6 1162.83 380.6C1162.28 380.6 1161.22 380.819 1161.22 382.046V399.1H1165.04C1167.7 399.1 1168.63 396.971 1168.82 396.535C1168.84 396.48 1168.87 396.48 1168.9 396.48C1168.95 396.508 1168.95 396.535 1168.95 396.562C1168.73 397.544 1168.52 398.718 1168.43 399.1L1168.35 399.536H1159.66C1159.47 399.536 1158.37 399.536 1158.02 399.536C1157.99 399.536 1157.96 399.509 1157.96 399.482C1157.96 399.454 1157.99 399.4 1158.02 399.4Z" stroke="#191817" mask="url(#path-26-outside-1_3723_51120)"/>
<path d="M1177.17 399.4C1177.74 399.4 1178.81 399.181 1178.81 397.954V382.046C1178.81 380.819 1177.74 380.6 1177.17 380.6C1177.14 380.6 1177.11 380.546 1177.11 380.518C1177.11 380.491 1177.14 380.464 1177.17 380.464C1177.52 380.464 1180.2 380.464 1180.36 380.464C1180.53 380.464 1181.65 380.464 1181.98 380.464C1182.03 380.464 1182.06 380.491 1182.06 380.518C1182.06 380.546 1182.03 380.6 1181.98 380.6C1181.43 380.6 1180.36 380.819 1180.36 382.046V397.954C1180.36 399.181 1181.43 399.4 1181.98 399.4C1182.03 399.4 1182.06 399.454 1182.06 399.482C1182.06 399.509 1182.03 399.536 1181.98 399.536C1181.65 399.536 1178.97 399.536 1178.81 399.536C1178.61 399.536 1177.52 399.536 1177.17 399.536C1177.14 399.536 1177.11 399.509 1177.11 399.482C1177.11 399.454 1177.14 399.4 1177.17 399.4Z" stroke="#191817" mask="url(#path-26-outside-1_3723_51120)"/>
<path d="M1190.63 399.4C1191.2 399.4 1192.27 399.181 1192.27 397.954V382.046C1192.27 380.819 1191.2 380.6 1190.63 380.6C1190.6 380.6 1190.57 380.546 1190.57 380.518C1190.57 380.491 1190.6 380.464 1190.63 380.464C1190.98 380.464 1192.08 380.464 1192.27 380.464H1193.82L1202.52 396.644V382.046C1202.52 380.819 1201.45 380.6 1200.88 380.6C1200.85 380.6 1200.82 380.546 1200.82 380.518C1200.82 380.491 1200.85 380.464 1200.88 380.464C1201.23 380.464 1202.79 380.464 1202.96 380.464C1203.12 380.464 1204.24 380.464 1204.6 380.464C1204.62 380.464 1204.65 380.491 1204.65 380.518C1204.65 380.546 1204.62 380.6 1204.6 380.6C1204.02 380.6 1202.96 380.819 1202.96 382.046V399.536H1202.52L1192.7 381.282V397.954C1192.7 399.181 1193.77 399.4 1194.34 399.4C1194.37 399.4 1194.4 399.454 1194.4 399.482C1194.4 399.509 1194.37 399.536 1194.34 399.536C1193.99 399.536 1192.43 399.536 1192.27 399.536C1192.08 399.536 1190.98 399.536 1190.63 399.536C1190.6 399.536 1190.57 399.509 1190.57 399.482C1190.57 399.454 1190.6 399.4 1190.63 399.4Z" stroke="#191817" mask="url(#path-26-outside-1_3723_51120)"/>
<path d="M1213.19 399.4C1213.77 399.4 1214.83 399.181 1214.83 397.954V382.046C1214.83 380.819 1213.77 380.6 1213.19 380.6C1213.16 380.6 1213.14 380.546 1213.14 380.518C1213.14 380.491 1213.16 380.464 1213.19 380.464C1213.55 380.464 1222.62 380.464 1222.79 380.464L1222.87 380.9C1222.95 381.282 1223.17 382.456 1223.39 383.438C1223.39 383.465 1223.39 383.492 1223.33 383.52C1223.31 383.52 1223.28 383.52 1223.25 383.465C1223.06 383.029 1222.13 380.9 1219.48 380.9H1216.39V389.768H1219.53C1220.74 389.768 1220.96 388.704 1220.98 388.158C1220.98 388.104 1221.01 388.076 1221.04 388.076C1221.06 388.076 1221.12 388.104 1221.12 388.158C1221.12 388.486 1221.12 390.041 1221.12 390.232C1221.12 390.396 1221.12 391.514 1221.12 391.842C1221.12 391.896 1221.06 391.924 1221.04 391.924C1221.01 391.924 1220.98 391.896 1220.98 391.842C1220.96 391.296 1220.74 390.232 1219.53 390.232H1216.39V399.1H1220.22C1222.87 399.1 1223.8 396.971 1223.99 396.535C1224.02 396.48 1224.04 396.48 1224.07 396.48C1224.13 396.508 1224.13 396.535 1224.13 396.562C1223.91 397.544 1223.69 398.718 1223.61 399.1L1223.52 399.536H1214.83C1214.64 399.536 1213.55 399.536 1213.19 399.536C1213.16 399.536 1213.14 399.509 1213.14 399.482C1213.14 399.454 1213.16 399.4 1213.19 399.4Z" stroke="#191817" mask="url(#path-26-outside-1_3723_51120)"/>
<path d="M1249.14 399.4C1249.71 399.4 1250.78 399.181 1250.78 397.954V382.046C1250.78 380.819 1249.71 380.6 1249.14 380.6C1249.11 380.6 1249.08 380.546 1249.08 380.518C1249.08 380.491 1249.11 380.464 1249.14 380.464C1249.49 380.464 1252.17 380.464 1252.33 380.464C1252.5 380.464 1253.62 380.464 1253.95 380.464C1254 380.464 1254.03 380.491 1254.03 380.518C1254.03 380.546 1254 380.6 1253.95 380.6C1253.4 380.6 1252.33 380.819 1252.33 382.046V389.768H1260.21V382.046C1260.21 380.819 1259.14 380.6 1258.57 380.6C1258.54 380.6 1258.51 380.546 1258.51 380.518C1258.51 380.491 1258.54 380.464 1258.57 380.464C1258.92 380.464 1261.6 380.464 1261.77 380.464C1261.96 380.464 1263.05 380.464 1263.41 380.464C1263.43 380.464 1263.46 380.491 1263.46 380.518C1263.46 380.546 1263.43 380.6 1263.41 380.6C1262.83 380.6 1261.77 380.819 1261.77 382.046V397.954C1261.77 399.181 1262.83 399.4 1263.41 399.4C1263.43 399.4 1263.46 399.454 1263.46 399.482C1263.46 399.509 1263.43 399.536 1263.41 399.536C1263.05 399.536 1260.37 399.536 1260.21 399.536C1260.04 399.536 1258.92 399.536 1258.57 399.536C1258.54 399.536 1258.51 399.509 1258.51 399.482C1258.51 399.454 1258.54 399.4 1258.57 399.4C1259.14 399.4 1260.21 399.181 1260.21 397.954V390.232H1252.33V397.954C1252.33 399.181 1253.4 399.4 1253.95 399.4C1254 399.4 1254.03 399.454 1254.03 399.482C1254.03 399.509 1254 399.536 1253.95 399.536C1253.62 399.536 1250.94 399.536 1250.78 399.536C1250.59 399.536 1249.49 399.536 1249.14 399.536C1249.11 399.536 1249.08 399.509 1249.08 399.482C1249.08 399.454 1249.11 399.4 1249.14 399.4Z" stroke="#191817" mask="url(#path-26-outside-1_3723_51120)"/>
<path d="M1271.88 399.536C1271.85 399.536 1271.79 399.509 1271.82 399.482C1271.82 399.454 1271.85 399.4 1271.88 399.4C1272.45 399.4 1273.57 399.181 1273.84 397.954L1277.13 382.046C1277.37 380.873 1276.39 380.6 1275.84 380.6C1275.79 380.6 1275.76 380.546 1275.76 380.518C1275.76 380.491 1275.79 380.464 1275.84 380.464C1276.17 380.464 1278.22 380.464 1278.41 380.464L1282.02 397.954C1282.29 399.181 1283.41 399.4 1283.99 399.4C1284.04 399.4 1284.07 399.454 1284.07 399.482C1284.07 399.509 1284.04 399.536 1283.99 399.536C1283.63 399.536 1280.98 399.536 1280.79 399.536C1280.62 399.536 1279.5 399.536 1279.18 399.536C1279.12 399.536 1279.09 399.509 1279.09 399.482C1279.09 399.454 1279.12 399.4 1279.18 399.4C1279.72 399.4 1280.73 399.209 1280.46 397.954L1278.87 390.232H1275.9L1274.28 397.954C1274.04 399.209 1275.02 399.4 1275.59 399.4C1275.62 399.4 1275.65 399.454 1275.65 399.482C1275.65 399.509 1275.62 399.536 1275.59 399.536C1275.24 399.536 1273.68 399.536 1273.52 399.536C1273.33 399.536 1272.23 399.536 1271.88 399.536ZM1278.77 389.768L1277.37 383.029L1275.98 389.768H1278.77Z" stroke="#191817" mask="url(#path-26-outside-1_3723_51120)"/>
<path d="M1299.88 400C1294.85 400 1290.77 395.525 1290.77 390.014C1290.77 384.475 1294.85 380 1299.88 380C1301.71 380 1303.43 380.6 1304.88 381.637V382.21C1304.88 382.319 1304.88 383.165 1304.88 383.874C1304.88 384.311 1304.88 384.693 1304.88 384.802C1304.88 384.857 1304.85 384.884 1304.8 384.884C1304.77 384.884 1304.74 384.857 1304.74 384.802C1304.72 384.311 1304.47 383.411 1303.7 382.756C1301.57 381.037 1298.95 380.464 1296.57 381.364C1292.66 382.838 1290.94 387.776 1292.82 392.688C1294.71 397.626 1299.22 400.246 1303.1 398.745C1303.92 398.445 1304.63 397.981 1305.26 397.381L1305.62 397.763C1304.03 399.154 1302.04 400 1299.88 400Z" stroke="#191817" mask="url(#path-26-outside-1_3723_51120)"/>
<path d="M1314.03 399.4C1314.6 399.4 1315.67 399.181 1315.67 397.954V382.046C1315.67 380.819 1314.6 380.6 1314.03 380.6C1314 380.6 1313.97 380.546 1313.97 380.518C1313.97 380.491 1314 380.464 1314.03 380.464C1314.38 380.464 1317.06 380.464 1317.23 380.464C1317.39 380.464 1318.51 380.464 1318.84 380.464C1318.89 380.464 1318.92 380.491 1318.92 380.518C1318.92 380.546 1318.89 380.6 1318.84 380.6C1318.29 380.6 1317.23 380.819 1317.23 382.046V390.014L1322.99 382.046C1323.95 380.709 1323.08 380.6 1322.5 380.6C1322.47 380.6 1322.45 380.546 1322.45 380.518C1322.45 380.491 1322.47 380.464 1322.5 380.464C1322.86 380.464 1324.42 380.464 1324.58 380.464C1324.74 380.464 1325.86 380.464 1326.22 380.464C1326.25 380.464 1326.27 380.491 1326.27 380.518C1326.27 380.546 1326.25 380.6 1326.22 380.6C1325.65 380.6 1324.42 380.682 1323.43 382.046L1317.99 389.55L1324.11 397.954C1325.07 399.318 1326.33 399.4 1326.88 399.4C1326.93 399.4 1326.96 399.454 1326.96 399.482C1326.96 399.509 1326.93 399.536 1326.88 399.536C1326.55 399.536 1323.87 399.536 1323.68 399.536C1323.51 399.536 1322.39 399.536 1322.06 399.536C1322.01 399.536 1321.98 399.509 1321.98 399.482C1321.98 399.454 1322.01 399.4 1322.06 399.4C1322.61 399.4 1323.49 399.291 1322.53 397.954L1317.23 390.614V397.954C1317.23 399.181 1318.29 399.4 1318.84 399.4C1318.89 399.4 1318.92 399.454 1318.92 399.482C1318.92 399.509 1318.89 399.536 1318.84 399.536C1318.51 399.536 1315.83 399.536 1315.67 399.536C1315.48 399.536 1314.38 399.536 1314.03 399.536C1314 399.536 1313.97 399.509 1313.97 399.482C1313.97 399.454 1314 399.4 1314.03 399.4Z" stroke="#191817" mask="url(#path-26-outside-1_3723_51120)"/>
<path d="M1335.25 399.536C1335.22 399.536 1335.16 399.509 1335.19 399.482C1335.19 399.454 1335.22 399.4 1335.25 399.4C1335.82 399.4 1336.94 399.181 1337.21 397.954L1340.49 382.046C1340.74 380.873 1339.76 380.6 1339.21 380.6C1339.15 380.6 1339.13 380.546 1339.13 380.518C1339.13 380.491 1339.15 380.464 1339.21 380.464C1339.54 380.464 1341.59 380.464 1341.78 380.464L1345.39 397.954C1345.66 399.181 1346.78 399.4 1347.36 399.4C1347.41 399.4 1347.44 399.454 1347.44 399.482C1347.44 399.509 1347.41 399.536 1347.36 399.536C1347 399.536 1344.35 399.536 1344.16 399.536C1343.99 399.536 1342.87 399.536 1342.54 399.536C1342.49 399.536 1342.46 399.509 1342.46 399.482C1342.46 399.454 1342.49 399.4 1342.54 399.4C1343.09 399.4 1344.1 399.209 1343.83 397.954L1342.24 390.232H1339.26L1337.65 397.954C1337.4 399.209 1338.39 399.4 1338.96 399.4C1338.99 399.4 1339.02 399.454 1339.02 399.482C1339.02 399.509 1338.99 399.536 1338.96 399.536C1338.61 399.536 1337.05 399.536 1336.89 399.536C1336.69 399.536 1335.6 399.536 1335.25 399.536ZM1342.13 389.768L1340.74 383.029L1339.35 389.768H1342.13Z" stroke="#191817" mask="url(#path-26-outside-1_3723_51120)"/>
<path d="M1352.82 383.52C1352.77 383.492 1352.77 383.465 1352.79 383.438C1352.98 382.456 1353.2 381.282 1353.28 380.9L1353.39 380.464H1367.72L1367.83 380.9C1367.91 381.282 1368.13 382.456 1368.32 383.438C1368.35 383.465 1368.35 383.492 1368.29 383.52C1368.27 383.52 1368.21 383.52 1368.21 383.465C1368.02 383.029 1367.06 380.9 1364.44 380.9H1361.35V397.954C1361.35 399.181 1362.42 399.4 1362.96 399.4C1363.02 399.4 1363.04 399.454 1363.04 399.482C1363.04 399.509 1363.02 399.536 1362.96 399.536C1362.63 399.536 1359.96 399.536 1359.76 399.536C1359.6 399.536 1358.48 399.536 1358.15 399.536C1358.1 399.536 1358.07 399.509 1358.07 399.482C1358.07 399.454 1358.1 399.4 1358.15 399.4C1358.7 399.4 1359.76 399.181 1359.76 397.954V380.9H1356.67C1354.05 380.9 1353.09 383.029 1352.9 383.465C1352.9 383.52 1352.85 383.52 1352.82 383.52Z" stroke="#191817" mask="url(#path-26-outside-1_3723_51120)"/>
<path d="M1376.74 399.4C1377.31 399.4 1378.38 399.181 1378.38 397.954V382.046C1378.38 380.819 1377.31 380.6 1376.74 380.6C1376.71 380.6 1376.68 380.546 1376.68 380.518C1376.68 380.491 1376.71 380.464 1376.74 380.464C1377.09 380.464 1379.77 380.464 1379.94 380.464C1380.1 380.464 1381.22 380.464 1381.55 380.464C1381.6 380.464 1381.63 380.491 1381.63 380.518C1381.63 380.546 1381.6 380.6 1381.55 380.6C1381 380.6 1379.94 380.819 1379.94 382.046V389.768H1387.81V382.046C1387.81 380.819 1386.74 380.6 1386.17 380.6C1386.14 380.6 1386.11 380.546 1386.11 380.518C1386.11 380.491 1386.14 380.464 1386.17 380.464C1386.52 380.464 1389.2 380.464 1389.37 380.464C1389.56 380.464 1390.65 380.464 1391.01 380.464C1391.03 380.464 1391.06 380.491 1391.06 380.518C1391.06 380.546 1391.03 380.6 1391.01 380.6C1390.43 380.6 1389.37 380.819 1389.37 382.046V397.954C1389.37 399.181 1390.43 399.4 1391.01 399.4C1391.03 399.4 1391.06 399.454 1391.06 399.482C1391.06 399.509 1391.03 399.536 1391.01 399.536C1390.65 399.536 1387.97 399.536 1387.81 399.536C1387.64 399.536 1386.52 399.536 1386.17 399.536C1386.14 399.536 1386.11 399.509 1386.11 399.482C1386.11 399.454 1386.14 399.4 1386.17 399.4C1386.74 399.4 1387.81 399.181 1387.81 397.954V390.232H1379.94V397.954C1379.94 399.181 1381 399.4 1381.55 399.4C1381.6 399.4 1381.63 399.454 1381.63 399.482C1381.63 399.509 1381.6 399.536 1381.55 399.536C1381.22 399.536 1378.54 399.536 1378.38 399.536C1378.19 399.536 1377.09 399.536 1376.74 399.536C1376.71 399.536 1376.68 399.509 1376.68 399.482C1376.68 399.454 1376.71 399.4 1376.74 399.4Z" stroke="#191817" mask="url(#path-26-outside-1_3723_51120)"/>
<path d="M1408.49 400C1403.46 400 1399.39 395.525 1399.39 390.014C1399.39 384.475 1403.46 380 1408.49 380C1413.52 380 1417.59 384.475 1417.59 390.014C1417.59 395.525 1413.52 400 1408.49 400ZM1405.26 381.255C1401.35 382.729 1399.55 387.776 1401.44 392.688C1403.32 397.626 1407.92 400.136 1411.8 398.636C1415.71 397.162 1417.43 392.224 1415.54 387.312C1413.66 382.374 1409.15 379.754 1405.26 381.255Z" stroke="#191817" mask="url(#path-26-outside-1_3723_51120)"/>
<path d="M1425.98 399.4C1426.55 399.4 1427.62 399.181 1427.62 397.954V382.046C1427.62 380.819 1426.55 380.6 1425.98 380.6C1425.95 380.6 1425.92 380.546 1425.92 380.518C1425.92 380.491 1425.95 380.464 1425.98 380.464C1426.33 380.464 1427.43 380.464 1427.62 380.464H1429.18L1437.87 396.644V382.046C1437.87 380.819 1436.8 380.6 1436.23 380.6C1436.2 380.6 1436.17 380.546 1436.17 380.518C1436.17 380.491 1436.2 380.464 1436.23 380.464C1436.58 380.464 1438.14 380.464 1438.31 380.464C1438.47 380.464 1439.59 380.464 1439.95 380.464C1439.97 380.464 1440 380.491 1440 380.518C1440 380.546 1439.97 380.6 1439.95 380.6C1439.37 380.6 1438.31 380.819 1438.31 382.046V399.536H1437.87L1428.06 381.282V397.954C1428.06 399.181 1429.12 399.4 1429.7 399.4C1429.72 399.4 1429.75 399.454 1429.75 399.482C1429.75 399.509 1429.72 399.536 1429.7 399.536C1429.34 399.536 1427.78 399.536 1427.62 399.536C1427.43 399.536 1426.33 399.536 1425.98 399.536C1425.95 399.536 1425.92 399.509 1425.92 399.482C1425.92 399.454 1425.95 399.4 1425.98 399.4Z" stroke="#191817" mask="url(#path-26-outside-1_3723_51120)"/>
</svg>
