<svg width="350" height="174" viewBox="0 0 350 174" fill="none" xmlns="http://www.w3.org/2000/svg">
<mask id="mask0_1305_2364" style="mask-type:luminance" maskUnits="userSpaceOnUse" x="125" y="16" width="95" height="14">
<path d="M220 16H125V30H220V16Z" fill="white"/>
</mask>
<g mask="url(#mask0_1305_2364)">
<path d="M140.959 27.0382L138.353 29.809C138.296 29.8692 138.228 29.9172 138.152 29.9501C138.076 29.983 137.994 30 137.912 30.0001H125.559C125.5 30 125.442 29.983 125.393 29.9509C125.344 29.9189 125.305 29.8734 125.281 29.8198C125.258 29.7663 125.25 29.7071 125.26 29.6495C125.27 29.5919 125.297 29.5383 125.337 29.4955L127.94 26.7246C127.996 26.6645 128.064 26.6164 128.14 26.5836C128.216 26.5507 128.298 26.5337 128.381 26.5336H140.734C140.793 26.5324 140.852 26.5486 140.902 26.5803C140.952 26.612 140.992 26.6577 141.016 26.7116C141.04 26.7655 141.047 26.8253 141.037 26.8834C141.027 26.9416 141 26.9954 140.959 27.0382ZM138.353 21.4571C138.296 21.3972 138.228 21.3494 138.152 21.3165C138.076 21.2837 137.994 21.2665 137.912 21.2661H125.559C125.5 21.2661 125.442 21.2832 125.393 21.3152C125.344 21.3472 125.305 21.3928 125.281 21.4464C125.258 21.4999 125.25 21.5591 125.26 21.6167C125.27 21.6743 125.297 21.7278 125.337 21.7707L127.94 24.543C127.996 24.6029 128.064 24.6507 128.14 24.6836C128.216 24.7164 128.298 24.7336 128.381 24.734H140.734C140.792 24.7337 140.85 24.7164 140.899 24.6843C140.948 24.6522 140.987 24.6066 141.01 24.5531C141.033 24.4996 141.041 24.4405 141.031 24.3831C141.021 24.3256 140.994 24.2722 140.954 24.2294L138.353 21.4571ZM125.559 19.4665H137.912C137.994 19.4664 138.076 19.4494 138.152 19.4166C138.228 19.3837 138.296 19.3357 138.353 19.2755L140.959 16.5046C141 16.4618 141.027 16.408 141.037 16.3499C141.047 16.2918 141.04 16.232 141.016 16.1781C140.992 16.1241 140.952 16.0784 140.902 16.0468C140.852 16.0151 140.793 15.9988 140.734 16.0001H128.381C128.298 16.0002 128.216 16.0172 128.14 16.05C128.064 16.0829 127.996 16.1309 127.94 16.1911L125.337 18.9619C125.297 19.0048 125.27 19.0583 125.26 19.1159C125.25 19.1735 125.258 19.2327 125.281 19.2863C125.305 19.3398 125.344 19.3854 125.393 19.4174C125.442 19.4494 125.5 19.4665 125.559 19.4665Z" fill="#191817"/>
<path d="M156.02 21.9209H149.411V19.7626H157.737V17.6043H149.389C149.104 17.6027 148.821 17.6569 148.557 17.7638C148.293 17.8706 148.052 18.028 147.85 18.2269C147.647 18.4258 147.486 18.6624 147.375 18.9232C147.264 19.1839 147.207 19.4637 147.205 19.7466V21.9341C147.206 22.2172 147.264 22.4973 147.374 22.7584C147.484 23.0194 147.646 23.2564 147.848 23.4556C148.051 23.6549 148.292 23.8125 148.556 23.9195C148.82 24.0265 149.103 24.0808 149.389 24.0793H156.007V26.2376H147.362V28.3959H156.02C156.305 28.3975 156.588 28.3433 156.852 28.2365C157.116 28.1296 157.356 27.9723 157.559 27.7733C157.762 27.5744 157.923 27.3378 158.034 27.0771C158.144 26.8163 158.202 26.5365 158.204 26.2537V24.0662C158.202 23.783 158.145 23.5029 158.035 23.2419C157.924 22.9808 157.763 22.7438 157.56 22.5446C157.357 22.3454 157.117 22.1877 156.853 22.0807C156.588 21.9737 156.305 21.9194 156.02 21.9209Z" fill="#191817"/>
<path d="M168.82 17.6043H162.186C161.9 17.602 161.617 17.6556 161.352 17.7621C161.087 17.8686 160.846 18.0259 160.643 18.2249C160.439 18.4239 160.277 18.6607 160.167 18.9219C160.056 19.183 159.998 19.4633 159.996 19.7466V26.2537C159.998 26.537 160.056 26.8173 160.167 27.0785C160.277 27.3396 160.439 27.5764 160.643 27.7754C160.846 27.9745 161.087 28.1317 161.352 28.2382C161.617 28.3447 161.9 28.3983 162.186 28.396H168.82C169.105 28.3975 169.388 28.3433 169.652 28.2365C169.916 28.1297 170.156 27.9723 170.359 27.7734C170.562 27.5744 170.723 27.3378 170.834 27.0771C170.944 26.8163 171.002 26.5366 171.003 26.2537V19.7466C171.002 19.4638 170.944 19.184 170.834 18.9232C170.723 18.6625 170.562 18.4259 170.359 18.2269C170.156 18.028 169.916 17.8706 169.652 17.7638C169.388 17.657 169.105 17.6028 168.82 17.6043ZM168.803 26.2377H162.202V19.7627H168.801L168.803 26.2377Z" fill="#191817"/>
<path d="M192.057 17.6044H185.586C185.301 17.6029 185.018 17.6571 184.754 17.7639C184.49 17.8707 184.25 18.0281 184.047 18.227C183.844 18.426 183.683 18.6626 183.572 18.9233C183.462 19.184 183.404 19.4638 183.402 19.7467V28.3961H185.608V24.8509H192.049V28.3961H194.255V19.7467C194.254 19.4626 194.196 19.1816 194.084 18.9199C193.972 18.6582 193.81 18.421 193.606 18.2218C193.401 18.0227 193.159 17.8656 192.893 17.7597C192.627 17.6537 192.343 17.601 192.057 17.6044ZM192.041 22.6925H185.599V19.7627H192.041V22.6925Z" fill="#191817"/>
<path d="M217.811 17.6043H211.34C211.055 17.6027 210.772 17.6569 210.508 17.7638C210.244 17.8706 210.004 18.028 209.801 18.2269C209.598 18.4258 209.437 18.6624 209.326 18.9232C209.216 19.1839 209.158 19.4637 209.156 19.7466V28.3959H211.362V24.8507H217.789V28.3959H219.994V19.7466C219.993 19.4637 219.935 19.1839 219.825 18.9232C219.714 18.6624 219.553 18.4258 219.35 18.2269C219.147 18.028 218.907 17.8706 218.643 17.7638C218.379 17.6569 218.096 17.6027 217.811 17.6043ZM217.789 22.6924H211.347V19.7626H217.789V22.6924Z" fill="#191817"/>
<path d="M205 26.2376H204.118L200.963 18.5084C200.855 18.2418 200.669 18.0132 200.429 17.8522C200.189 17.6911 199.906 17.6047 199.616 17.6043H197.659C197.469 17.6033 197.28 17.6395 197.104 17.7108C196.928 17.7821 196.768 17.8871 196.633 18.0198C196.497 18.1526 196.39 18.3104 196.316 18.4843C196.243 18.6582 196.204 18.8448 196.203 19.0334V28.3959H198.409V19.7626H199.291L202.444 27.4918C202.554 27.7579 202.742 27.9855 202.983 28.1455C203.224 28.3055 203.507 28.3907 203.797 28.3901H205.755C205.945 28.3911 206.133 28.3549 206.309 28.2836C206.486 28.2123 206.646 28.1072 206.781 27.9745C206.916 27.8418 207.024 27.684 207.097 27.5101C207.171 27.3362 207.209 27.1496 207.21 26.9609V17.6043H205V26.2376Z" fill="#191817"/>
<path d="M175.165 17.6042H172.959V26.2536C172.96 26.5371 173.019 26.8175 173.13 27.0787C173.241 27.3399 173.403 27.5769 173.606 27.7759C173.81 27.9749 174.051 28.1321 174.316 28.2385C174.581 28.3449 174.864 28.3984 175.15 28.3959H181.768V26.2376H175.165V17.6042Z" fill="#191817"/>
</g>
<path d="M208.28 53.7912C208.317 54.0753 208.385 54.3593 208.386 54.6433C208.392 59.5047 208.392 64.3651 208.386 69.2246C208.386 69.4831 208.329 69.7411 208.299 69.9996H208.069C208.024 69.819 207.959 69.6407 207.937 69.4575C207.259 63.8988 204.398 59.7603 199.412 57.2929C192.471 53.8603 184.214 58.7665 183.674 66.4682C183.296 71.8402 185.553 75.9569 189.853 78.9721C192.255 80.6569 194.844 82.0855 197.393 83.5535C199.927 85.0138 202.502 86.3981 204.813 88.2112C209.941 92.2294 212.171 97.4819 211.178 103.88C210.355 109.187 207.767 113.555 203.164 116.561C200.637 118.212 197.817 118.871 194.808 118.743C191.767 118.614 188.881 117.809 186.032 116.8C185.175 116.497 184.277 116.325 183.368 116.289C182.216 116.249 181.596 116.925 181.465 118.073C181.442 118.282 181.401 118.49 181.368 118.698L181.17 118.715C181.121 118.526 181.03 118.338 181.029 118.15C181.022 113.165 181.022 108.181 181.029 103.196C181.029 103.011 181.089 102.826 181.12 102.64L181.299 102.62C181.352 102.75 181.447 102.878 181.452 103.009C181.541 105.324 182.509 107.303 183.948 109.032C187.157 112.888 191.193 115.431 196.214 116.247C201.3 117.075 206.12 114.398 208.139 109.681C210.176 104.919 209.098 99.159 205.439 95.4787C204.482 94.5174 203.435 93.6462 202.429 92.7364L202.286 92.8795L203.344 94.123C204.73 95.7543 205.359 97.7018 205.346 99.7733C205.326 102.728 203.428 105.592 200.309 106.334C198.18 106.841 196.411 106.407 195.216 104.666C194.547 103.69 194.601 101.982 195.429 101.179C195.477 101.389 195.538 101.548 195.544 101.709C195.598 103.031 196.257 103.909 197.482 104.343C198.388 104.664 199.074 104.181 199.688 103.694C201.22 102.483 202.325 100.961 202.63 98.9823C202.915 97.128 202.597 95.3901 201.508 93.8214C199.579 91.0405 196.795 89.3546 193.871 87.8153C190.838 86.2171 187.893 84.4671 185.444 82.0222C182.166 78.7503 180.684 74.7741 181.098 70.1962C181.623 64.3802 184.344 59.724 189.065 56.2636C190.812 54.9831 192.809 54.2318 194.968 53.9348C195.17 53.9069 195.366 53.8386 195.565 53.7893H197.435C197.546 53.8365 197.66 53.878 197.776 53.9138C199.112 54.2612 200.457 54.5765 201.783 54.9587C203.109 55.3409 204.401 55.8677 205.742 56.1873C207.06 56.5015 207.788 55.8738 207.925 54.5208C207.95 54.2761 207.995 54.0329 208.03 53.7893L208.28 53.7912Z" fill="#191817"/>
<path d="M176.364 53.7912C176.394 54.0557 176.449 54.3199 176.45 54.5845C176.461 59.5476 176.478 64.5107 176.467 69.4738C176.463 71.674 174.922 74.1525 172.408 74.8084C170.12 75.407 167.628 74.1544 167.018 71.9638C166.869 71.4293 166.868 70.823 166.932 70.2649C167 69.6682 167.454 69.2673 168.018 69.1058C168.573 68.947 169.005 69.2352 169.369 69.6636C170.011 70.4168 170.02 71.3526 170.087 72.2398C170.244 74.3655 172.39 74.7817 173.763 73.7749C175.299 72.6483 176.064 71.0746 175.938 69.1108C175.77 66.4967 174.665 64.2515 173.201 62.1624C171.816 60.1875 170.057 58.608 167.896 57.4711C162.777 54.7769 156.332 56.5464 153.363 61.4901C150.723 65.8874 151.268 71.9478 154.621 75.9377C156.547 78.2284 158.969 79.8815 161.522 81.3697C164.619 83.1755 167.77 84.8923 170.83 86.7588C173.201 88.2054 175.25 90.0505 176.831 92.3641C178.822 95.279 179.6 98.5519 179.431 102.012C179.201 106.732 177.391 110.847 174.084 114.244C170.561 117.864 166.234 119.245 161.216 118.606C158.768 118.295 156.432 117.608 154.114 116.803C153.334 116.528 152.523 116.351 151.699 116.278C150.373 116.171 149.697 116.813 149.549 118.126C149.527 118.325 149.454 118.518 149.385 118.789C149.037 118.343 148.966 103.283 149.281 102.529C149.394 102.735 149.527 102.866 149.532 103.002C149.632 105.842 151.025 108.086 152.902 110.065C155.807 113.133 159.296 115.251 163.476 116.116C169.739 117.412 175.394 113.89 176.858 107.684C177.895 103.29 176.839 99.3281 173.893 95.8929C172.102 93.8053 169.852 92.277 167.494 90.9122C164.319 89.0751 161.076 87.351 157.929 85.4669C155.367 83.9337 153.104 82.0248 151.438 79.4963C150.175 77.5752 149.413 75.4735 149.212 73.1878C148.653 66.7972 151.092 61.6035 155.736 57.3478C157.816 55.4389 160.302 54.2936 163.126 53.9236C163.263 53.9057 163.394 53.8362 163.525 53.7908H165.52C165.592 53.8289 165.659 53.8782 165.735 53.8984C167.187 54.2848 168.645 54.646 170.091 55.0571C171.361 55.4179 172.598 55.9024 173.879 56.2055C175.057 56.4838 175.78 55.8894 175.959 54.6948C176.004 54.3925 176.064 54.092 176.117 53.7908L176.364 53.7912Z" fill="#191817"/>
<path d="M302.652 53.7913C303.606 53.9661 304.567 54.1059 305.513 54.3227C308.863 55.0912 311.774 56.7123 314.35 58.9491C314.509 59.0873 314.618 59.3714 314.618 59.5882C314.635 62.7951 314.631 66.0002 314.624 69.2063C314.624 69.3881 314.552 69.5698 314.513 69.7515L314.332 69.7569C314.28 69.5557 314.201 69.3575 314.179 69.1533C313.89 66.2518 312.714 63.8175 310.476 61.8835C308.073 59.8066 305.437 58.1691 302.32 57.409C298.031 56.3629 294.08 57.2116 290.482 59.6936C287.166 61.9816 284.983 65.1706 283.464 68.828C281.193 74.2981 280.621 80.0141 281.17 85.8622C281.808 92.6521 283.821 99.0114 287.428 104.826C289.785 108.624 292.775 111.807 296.728 114.05C302.076 117.083 308.769 116.466 313.381 112.391C314.138 111.722 314.781 110.926 315.543 110.118C315.901 110.584 316.178 110.909 316.407 111.264C316.47 111.36 316.446 111.599 316.369 111.684C311.468 116.97 304.577 120.124 297.025 118.198C291.894 116.889 287.991 113.766 284.837 109.646C281.651 105.485 279.654 100.769 278.548 95.6777C277.134 89.171 277.183 82.6591 278.731 76.1826C280.071 70.5704 282.464 65.4546 286.372 61.1291C289.641 57.5102 293.571 54.9824 298.456 54.0959C299.063 53.9856 299.673 53.8921 300.281 53.7905L302.652 53.7913Z" fill="#191817"/>
<path d="M46.2457 115.724C46.4866 115.739 46.6501 115.759 46.8136 115.759C50.0129 115.759 53.2129 115.787 56.4122 115.752C59.8351 115.714 62.3888 114.066 64.2153 111.286C64.9245 110.205 65.4116 108.981 65.999 107.822C66.087 107.648 66.1697 107.471 66.2547 107.296L66.4397 107.313C66.4619 107.504 66.5289 107.702 66.4994 107.886C66.0269 110.844 65.5318 113.799 65.0708 116.759C64.9992 117.217 64.7644 117.261 64.3918 117.259C62.3352 117.25 60.2782 117.255 58.2215 117.255C47.4385 117.255 36.6557 117.251 25.873 117.244C25.5865 117.244 25.2986 117.087 25.0137 117.003C25.2771 116.91 25.5345 116.761 25.8048 116.732C27.1534 116.586 27.7577 115.882 27.4008 114.596C27.1442 113.675 26.7265 112.775 26.2448 111.944C23.2055 106.698 20.1299 101.475 17.0628 96.245C14.8538 92.4807 12.6389 88.7201 10.418 84.9631C10.3085 84.7779 10.0871 84.6577 9.9179 84.508C9.82293 84.7287 9.64526 84.9494 9.64488 85.17C9.6311 94.1258 9.6288 103.081 9.63799 112.036C9.63637 112.491 9.67325 112.945 9.74827 113.394C10.0841 115.338 11.4641 116.562 13.4476 116.74C13.6494 116.758 13.8371 116.934 14.0312 117.037C13.8378 117.135 13.6448 117.317 13.4507 117.318C9.50333 117.335 5.55582 117.335 1.60819 117.318C1.40716 117.318 1.20651 117.147 1.00586 117.056C1.19387 116.946 1.37499 116.758 1.57181 116.74C3.82529 116.534 5.32939 114.978 5.44235 112.699C5.45537 112.431 5.45384 112.161 5.45384 111.892C5.45384 94.8497 5.45141 77.8076 5.44656 60.7653C5.44656 60.151 5.40521 59.5176 5.2551 58.9262C4.77875 57.0647 3.54805 56.0915 1.55113 55.8751C1.36389 55.8548 1.19158 55.6975 1.01199 55.604C1.19311 55.5108 1.37423 55.3368 1.55458 55.3368C7.51662 55.3627 13.4806 55.3207 19.4395 55.4784C22.8065 55.5673 26.1341 56.1419 29.2495 57.5438C31.647 58.6227 33.6278 60.1781 34.7023 62.6444C36.4419 66.6393 36.0345 72.043 32.0295 75.5252C29.4762 77.7456 26.4638 79.1139 23.3013 80.1726C20.2946 81.1778 17.2473 82.0631 14.2185 83.0019C14.0431 83.0561 13.8692 83.1164 13.6077 83.202C13.9665 83.8262 14.297 84.4091 14.6343 84.9872C17.402 89.7181 20.1719 94.4486 22.944 99.1786C25.4039 103.372 27.8569 107.57 30.3382 111.751C31.2082 113.216 32.2106 114.588 33.6845 115.534C35.246 116.535 36.9427 116.976 38.7865 116.637C40.5387 116.315 41.6917 115.098 41.9647 113.341C42.0373 112.871 42.0736 112.397 42.0735 111.921C42.0788 94.8998 42.0788 77.8782 42.0735 60.8565C42.0759 60.4432 42.0542 60.03 42.0087 59.6192C41.748 57.3964 40.4518 56.1366 38.2071 55.8804C38.0157 55.8583 37.8342 55.714 37.6485 55.6265C37.8399 55.5269 38.0337 55.3398 38.2267 55.3394C46.3085 55.3249 54.3905 55.3182 62.4727 55.3192C62.8904 55.3192 63.0601 55.462 63.1236 55.8667C63.5896 58.8037 64.0744 61.7373 64.5458 64.6735C64.5779 64.8743 64.55 65.0847 64.55 65.2905L64.3585 65.3409C64.2536 65.1423 64.1288 64.9526 64.0472 64.7449C63.183 62.4924 61.9994 60.4514 60.1032 58.8915C58.6534 57.6996 56.9912 56.9444 55.1068 56.9009C52.2415 56.8322 49.3734 56.8742 46.5065 56.8711C46.4471 56.8711 46.3878 56.8994 46.2863 56.925V85.4541C46.4491 85.4697 46.5896 85.4949 46.7301 85.4953C49.2857 85.4953 51.8413 85.4873 54.3965 85.4995C55.9248 85.5068 57.0061 84.8092 57.5365 83.4158C57.8623 82.5579 57.9845 81.6233 58.1928 80.7219C58.2403 80.5158 58.2655 80.302 58.3008 80.0951L58.5018 80.076C58.555 80.2619 58.655 80.4474 58.655 80.6334C58.6639 84.4183 58.6639 88.2031 58.655 91.9878C58.655 92.1642 58.5711 92.3406 58.5263 92.517H58.3318C58.2866 92.3205 58.2414 92.1239 58.1962 91.9271C57.9948 91.0452 57.8811 90.1328 57.5728 89.2886C57.0444 87.8432 55.9473 87.0911 54.3739 87.0904C51.8394 87.0904 49.3045 87.1064 46.77 87.0766C46.1504 87.0694 46.2431 87.4324 46.2431 87.7993V115.725L46.2457 115.724ZM22.8877 65.4226C22.9574 65.3527 22.9946 65.2805 23.0459 65.2698C25.1791 64.7716 25.5348 63.6507 25.626 61.7697C25.7129 59.9956 23.7317 57.8309 21.7286 57.3953C20.9019 57.2155 20.056 57.0467 19.2144 57.0238C16.1223 56.9383 13.028 56.9154 9.93475 56.8711C9.85817 56.8711 9.77966 56.9043 9.66977 56.9295V83.1932C9.84514 83.1386 9.9807 83.1004 10.114 83.0546C12.6029 82.2017 15.0896 81.3366 17.5851 80.4967C20.2188 79.6125 22.8739 78.7844 25.325 77.4451C27.0152 76.5216 28.5993 75.4358 29.6734 73.8129C32.0724 70.1891 32.0996 66.3923 30.193 62.5791C29.2993 60.7916 27.7424 59.623 25.9312 58.7995C26.1667 59.1102 26.4129 59.4103 26.7016 59.6654C27.7918 60.6229 28.0445 62.1412 29.1442 63.1349C29.7929 63.721 29.5964 64.4887 29.0263 65.4065C28.5894 66.1098 27.5991 66.4484 26.8544 66.3022C26.6315 66.2633 26.402 66.301 26.2034 66.4091C24.9605 67.1535 23.616 66.7756 22.8889 65.4226H22.8877Z" fill="#191817"/>
<path d="M220.371 59.9146C219.416 59.8261 218.954 59.5233 218.903 58.985C218.849 58.4265 219.186 57.8939 219.66 57.7862C220.324 57.6335 221.096 58.0023 221.318 58.5761C221.6 59.3049 221.161 60.2437 220.306 60.7408C219.261 61.3478 218.214 61.1058 217.57 60.0918C216.94 59.0992 216.785 58.0504 217.373 56.9944C217.972 55.917 218.975 55.3528 220.168 55.3146C222.139 55.252 224.114 55.3322 226.088 55.3146C226.567 55.3108 226.638 55.5906 226.694 55.9228C227.064 58.144 227.425 60.367 227.795 62.5886C228.531 67.0091 229.269 71.4292 230.01 75.8489C231.164 82.7973 232.317 89.7464 233.468 96.6963C234.329 101.85 235.2 107.003 236.083 112.153C236.415 114.081 237.353 115.573 239.244 116.375C241.465 117.316 244.069 116.549 244.973 114.525C245.314 113.761 245.444 112.847 245.447 112.001C245.48 103.438 245.467 94.8756 245.467 86.3131C245.467 77.7505 245.481 69.188 245.446 60.6255C245.442 59.7604 245.276 58.8422 244.948 58.0447C244.354 56.5958 243.063 56.0446 241.569 55.8743C241.398 55.8548 241.245 55.6739 241.083 55.5689C241.251 55.4883 241.418 55.3398 241.586 55.3379C244.12 55.323 246.655 55.3398 249.19 55.3169C249.682 55.3123 249.77 55.6479 249.904 55.9545C250.999 58.4531 252.088 60.9546 253.171 63.4591C254.926 67.496 256.681 71.5328 258.435 75.5695C260.913 81.2763 263.39 86.9832 265.867 92.6903C267.935 97.4483 270.008 102.204 272.086 106.958C272.134 107.07 272.201 107.174 272.324 107.408C272.356 107.144 272.387 107.002 272.387 106.86C272.39 91.4103 272.39 75.9604 272.387 60.5098C272.387 59.0022 272.081 57.574 270.73 56.7024C270.079 56.2824 269.237 56.1568 268.487 55.8835C268.3 55.8151 268.134 55.6895 267.959 55.5906C268.145 55.5028 268.33 55.3394 268.517 55.3383C271.508 55.3225 274.5 55.3225 277.492 55.3383C277.68 55.3383 277.867 55.5001 278.054 55.5868C277.882 55.6865 277.718 55.8563 277.537 55.8758C275.116 56.1431 273.697 57.6618 273.6 60.1265C273.592 60.3327 273.597 60.54 273.597 60.7469C273.597 79.2578 273.597 97.7687 273.597 116.28V117.123C272.656 117.413 272.453 117.347 272.109 116.559C270.619 113.15 269.084 109.758 267.674 106.316C266.506 103.464 264.811 100.952 263.035 98.4662C261.405 96.1824 259.447 94.2476 257.079 92.7468C255.373 91.6664 253.529 91.2628 251.52 91.8424C250.33 92.186 249.542 92.8961 249.132 94.0521C249.042 94.3037 248.887 94.5316 248.762 94.7706L248.488 94.7492C248.382 94.1223 248.163 93.4893 248.194 92.8697C248.264 91.4953 248.568 90.1518 249.724 89.2291C250.068 88.9538 250.562 88.8645 250.987 88.6912C251.105 88.6431 251.266 88.6316 251.336 88.5461C252.532 87.0869 254.176 87.0056 255.829 87.7913C257.354 88.5167 258.282 89.7521 258.938 91.2521C259.043 91.4915 259.286 91.7305 259.525 91.8412C260.609 92.344 261.008 93.3374 261.431 94.3304C261.645 94.8351 261.85 95.3559 262.148 95.8121C262.848 96.8866 263.606 97.9221 264.419 98.914C258.572 85.4833 252.724 72.0529 246.877 58.6227L246.742 58.641C246.732 58.8544 246.712 59.0682 246.712 59.2817C246.711 76.8205 246.713 94.3594 246.719 111.898C246.719 112.455 246.778 113.011 246.895 113.555C247.299 115.448 248.59 116.556 250.532 116.728C250.676 116.74 250.83 116.734 250.96 116.785C251.034 116.813 251.113 116.942 251.109 117.021C251.104 117.093 250.998 117.202 250.921 117.218C250.74 117.256 250.55 117.253 250.364 117.253C243.279 117.255 236.194 117.255 229.11 117.253C229.068 117.259 229.027 117.258 228.986 117.251C228.775 117.174 228.564 117.098 228.357 117.018C228.553 116.921 228.743 116.757 228.947 116.738C230.858 116.564 232.038 115.402 231.976 113.49C231.934 112.177 231.669 110.868 231.457 109.564C230.604 104.326 229.74 99.0889 228.866 93.8539C228.517 91.7542 228.132 89.662 227.794 87.5615C227.734 87.1915 227.594 87.0804 227.238 87.082C224.994 87.0927 222.75 87.098 220.506 87.0778C220.066 87.074 219.951 87.261 219.887 87.6462C219.346 90.9066 218.796 94.1653 218.236 97.4224C217.383 102.43 216.527 107.437 215.67 112.443C215.364 114.216 216.045 115.814 217.456 116.419C217.883 116.603 218.381 116.615 218.837 116.741C219.002 116.787 219.138 116.935 219.288 117.036C219.135 117.108 218.981 117.241 218.828 117.242C217.042 117.257 215.255 117.253 213.467 117.253C212.283 117.253 211.099 117.256 209.915 117.251C209.693 117.251 209.471 117.219 209.248 117.202C209.222 117.134 209.196 117.065 209.172 116.997C209.342 116.909 209.507 116.761 209.685 116.742C212.251 116.465 213.959 115.005 214.415 112.466C215.243 107.851 215.982 103.22 216.764 98.596C217.716 92.9545 218.685 87.3156 219.626 81.6718C220.567 76.028 221.482 70.3777 222.409 64.7308C222.674 63.1201 222.97 61.5143 223.2 59.8986C223.502 57.7717 222.378 56.2885 220.314 55.8995C218.787 55.6124 217.26 57.1903 217.669 58.8315C217.761 59.2019 217.964 59.5615 218.184 59.8803C218.723 60.6721 219.655 60.6946 220.371 59.9146ZM227.417 85.4606C226.234 78.4148 225.063 71.434 223.891 64.4532L223.728 64.4578C222.558 71.4443 221.389 78.4274 220.211 85.4606H227.417Z" fill="#191817"/>
<path d="M113.983 59.9071C113.834 59.8964 113.697 59.8945 113.562 59.8762C112.768 59.7697 112.39 59.2844 112.542 58.5717C112.683 57.9123 113.326 57.5878 114.049 57.8112C114.773 58.0345 115.142 58.7534 114.911 59.4715C114.596 60.4489 113.865 60.9581 112.9 61.0582C112.058 61.146 111.496 60.6363 111.056 59.9346C109.642 57.6779 111.592 55.3582 113.809 55.3323C115.824 55.309 117.84 55.3452 119.855 55.3139C120.347 55.3063 120.515 55.5006 120.585 55.9309C121.09 59.0508 121.594 62.1707 122.117 65.2875C122.968 70.361 123.84 75.431 124.69 80.5044C125.418 84.8437 126.137 89.1844 126.849 93.5265C127.565 97.8665 128.28 102.207 128.993 106.548C129.311 108.463 129.624 110.38 129.982 112.288C130.574 115.449 133.145 117.227 136.198 116.621C137.974 116.269 139.226 114.757 139.351 112.804C139.372 112.474 139.371 112.142 139.371 111.811C139.371 94.789 139.366 77.7669 139.356 60.7447C139.356 59.935 139.241 59.0851 138.973 58.3246C138.429 56.7735 137.16 56.0966 135.585 55.8836C135.368 55.8542 135.169 55.682 134.963 55.5758C135.171 55.4926 135.38 55.3376 135.589 55.3368C139.516 55.3223 143.443 55.3223 147.37 55.3368C147.57 55.3368 147.77 55.5117 147.971 55.6041C147.789 55.6965 147.614 55.8522 147.425 55.8713C145.092 56.1149 143.659 57.6214 143.558 59.9651C143.547 60.2324 143.547 60.5027 143.547 60.7718C143.547 77.8144 143.552 94.8571 143.561 111.9C143.561 112.671 143.658 113.481 143.909 114.204C144.452 115.765 145.679 116.533 147.298 116.724C147.461 116.743 147.633 116.736 147.787 116.784C147.861 116.808 147.946 116.937 147.944 117.013C147.942 117.084 147.838 117.197 147.762 117.213C147.581 117.251 147.391 117.251 147.205 117.251C139.122 117.251 131.04 117.251 122.958 117.251C122.875 117.251 122.78 117.275 122.711 117.244C122.548 117.172 122.398 117.072 122.242 116.983C122.387 116.899 122.528 116.749 122.677 116.741C125.189 116.606 126.167 114.861 125.829 112.656C125.234 108.777 124.569 104.909 123.927 101.037C123.18 96.5322 122.429 92.0288 121.675 87.5268C121.655 87.4066 121.626 87.2878 121.596 87.1477C121.443 87.1267 121.302 87.0901 121.16 87.0901C118.896 87.0863 116.631 87.0966 114.367 87.0786C113.919 87.0752 113.823 87.2836 113.759 87.665C112.985 92.3103 112.202 96.9538 111.41 101.596C110.804 105.18 110.189 108.762 109.605 112.35C109.516 112.901 109.509 113.462 109.586 114.015C109.813 115.623 110.877 116.579 112.508 116.722C112.611 116.731 112.728 116.702 112.816 116.742C112.951 116.802 113.065 116.905 113.189 116.99C113.074 117.076 112.963 117.175 112.836 117.242C112.77 117.276 112.673 117.252 112.59 117.252C109.639 117.252 106.689 117.252 103.739 117.252C103.539 117.252 103.339 117.217 103.139 117.198L103.062 117.01C103.216 116.918 103.364 116.755 103.522 116.746C106.352 116.575 107.997 114.564 108.426 111.974C109.404 106.085 110.418 100.203 111.396 94.3152C112.339 88.6496 113.25 82.9787 114.192 77.3131C115.069 72.0358 115.976 66.7635 116.849 61.4854C116.983 60.6741 117.105 59.8395 117.062 59.0244C116.969 57.2328 116.018 56.2436 114.244 55.9214C113.039 55.7026 112.057 56.134 111.467 57.143C110.925 58.0692 111.077 59.1218 111.888 60.0507C112.442 60.6798 113.399 60.6218 113.983 59.9071ZM121.305 85.4565C120.122 78.3936 118.947 71.3826 117.772 64.3716L117.635 64.367C116.461 71.3867 115.285 78.4165 114.108 85.4565H121.305Z" fill="#191817"/>
<path d="M74.1457 95.1621C74.0308 94.5818 73.8118 93.9992 73.8248 93.4219C73.8558 92.0349 74.2054 90.7292 75.2527 89.7152C75.6429 89.3373 76.0756 89.0502 76.6695 89.1044C76.7924 89.1158 76.9758 89.0124 77.0524 88.9062C78.1977 87.357 80.2061 87.4669 81.7018 88.303C83.0902 89.0792 84.0418 90.2398 84.6028 91.7299C84.6794 91.9349 84.9022 92.1395 85.1086 92.2331C85.9595 92.6183 86.5553 93.2738 86.8042 94.1175C87.1488 95.2892 87.804 96.2555 88.4963 97.2214C88.9857 97.9047 89.4409 98.6126 90.028 99.2562L72.344 58.64L72.2089 58.6725C72.1989 58.8683 72.1798 59.0646 72.1798 59.2608C72.1782 76.8226 72.1841 94.3836 72.1974 111.944C72.1974 112.793 72.3379 113.697 72.6569 114.478C73.2492 115.933 74.5022 116.582 76.04 116.739C76.2314 116.758 76.4068 116.906 76.5894 116.994C76.4114 117.081 76.2333 117.241 76.0534 117.242C73.0615 117.257 70.0695 117.257 67.0774 117.242C66.9008 117.242 66.7251 117.077 66.5489 116.989C66.7109 116.903 66.8668 116.756 67.0356 116.74C69.3469 116.511 70.7779 115.04 70.9104 112.726C70.9291 112.396 70.9307 112.065 70.9307 111.734C70.9307 94.7726 70.9294 77.8115 70.9268 60.8501C70.9268 60.3156 70.9104 59.7693 70.8051 59.2467C70.3904 57.1916 69.1991 56.1329 67.1226 55.8824C66.9181 55.8576 66.7308 55.6942 66.5352 55.595C66.7377 55.5052 66.9399 55.3384 67.1428 55.3373C69.6154 55.3193 72.0882 55.3331 74.5607 55.3174C74.9521 55.3151 75.16 55.4445 75.3139 55.8027C77.1999 60.1885 79.0944 64.5715 80.9972 68.9515C83.9664 75.7744 86.9413 82.5947 89.9219 89.4125C92.3807 95.0608 94.8338 100.711 97.2812 106.363C97.4125 106.665 97.5584 106.961 97.8046 107.261C97.8203 107.098 97.8498 106.935 97.8498 106.773C97.8514 91.4041 97.8448 76.0356 97.8303 60.6673C97.8303 59.8003 97.6706 58.8771 97.3425 58.0792C96.7509 56.641 95.478 56.0516 93.9789 55.8775C93.7947 55.8561 93.6266 55.6946 93.4509 55.5984C93.6297 55.5075 93.8081 55.3388 93.9869 55.3376C96.9786 55.3211 99.9706 55.3211 102.963 55.3376C103.144 55.3376 103.324 55.511 103.506 55.6049C103.326 55.6992 103.154 55.8572 102.967 55.8782C100.675 56.1367 99.3673 57.437 99.141 59.7308C99.0962 60.1824 99.0844 60.639 99.0844 61.0933C99.0818 79.5439 99.081 97.9943 99.0821 116.445C99.0821 117.27 99.0055 117.361 98.2056 117.235C98.0122 117.204 97.7694 117.002 97.6882 116.818C96.3205 113.716 94.9446 110.617 93.6324 107.492C92.2424 104.18 90.4247 101.129 88.2332 98.2869C86.4335 95.9535 84.3765 93.8858 81.6941 92.6053C80.061 91.8257 78.2862 91.7249 76.5466 92.4724C75.551 92.9004 75.0681 93.746 74.6576 94.665C74.581 94.8368 74.4815 94.9983 74.3926 95.1643L74.1457 95.1621Z" fill="#191817"/>
<path d="M342.861 65.3209C342.604 64.723 342.359 64.119 342.087 63.5265C341.061 61.305 339.67 59.3861 337.522 58.0973C336.363 57.4024 335.114 56.9283 333.766 56.9065C330.817 56.8592 327.869 56.892 324.868 56.892V85.4646C325.078 85.4753 325.297 85.4956 325.516 85.4956C327.884 85.4978 330.254 85.4497 332.621 85.5112C334.804 85.5673 335.848 84.498 336.432 82.5715C336.593 82.042 336.633 81.4758 336.724 80.9257C336.77 80.6477 336.804 80.3679 336.844 80.0888L337.035 80.0541C337.1 80.2289 337.219 80.4038 337.22 80.579C337.23 84.3851 337.231 88.1909 337.222 91.9965C337.222 92.1713 337.139 92.3458 337.094 92.5207L336.882 92.5184C336.832 92.2561 336.799 91.9896 336.729 91.7323C336.469 90.7614 336.299 89.7505 335.904 88.8361C335.45 87.7851 334.537 87.1471 333.356 87.1319C330.536 87.0937 327.715 87.12 324.855 87.12V115.759H325.583C328.575 115.759 331.567 115.735 334.559 115.766C338.109 115.801 340.796 114.242 342.715 111.359C343.443 110.267 343.94 109.025 344.543 107.85C344.639 107.663 344.73 107.474 344.823 107.286L345.026 107.313C345.041 107.504 345.095 107.705 345.065 107.891C344.596 110.806 344.107 113.718 343.648 116.636C343.577 117.089 343.425 117.263 342.944 117.262C334.239 117.25 325.533 117.243 316.826 117.243C316.631 117.243 316.437 117.111 316.242 117.039C316.43 116.935 316.61 116.755 316.806 116.738C319.051 116.541 320.487 114.992 320.618 112.589C320.634 112.28 320.631 111.969 320.631 111.659C320.631 94.7588 320.63 77.8597 320.628 60.9617C320.628 60.4471 320.607 59.926 320.524 59.4197C320.167 57.2501 318.954 56.1365 316.745 55.8761C316.566 55.8551 316.404 55.6852 316.234 55.5863C316.417 55.4996 316.6 55.3374 316.784 55.337C324.867 55.3243 332.949 55.3189 341.032 55.321C341.394 55.321 341.595 55.392 341.661 55.8062C342.125 58.7459 342.618 61.6783 343.091 64.6146C343.127 64.8345 343.096 65.0647 343.096 65.29L342.861 65.3209Z" fill="#191817"/>
<path d="M40.8937 113.628C40.5786 112.577 40.3534 111.574 39.9797 110.63C38.9968 108.148 37.0619 106.615 34.6445 105.659C33.3614 105.152 31.8289 105.787 30.7242 107.134C30.6902 107.181 30.6601 107.231 30.6342 107.282C30.5316 107.234 30.445 107.222 30.4305 107.182C29.8561 105.638 29.8439 103.774 31.3614 102.569C32.0062 102.057 32.7253 101.809 33.5616 102.06C33.6957 102.095 33.8382 102.078 33.9606 102.013C36.2964 100.589 38.3167 102.758 38.4691 104.592C38.5074 105.036 38.6778 105.189 39.0216 105.406C40.1593 106.124 40.8026 107.234 40.9186 108.53C41.063 110.146 41.022 111.78 41.0527 113.406C41.0538 113.467 40.9669 113.53 40.8937 113.628Z" fill="#191817"/>
<path d="M283.771 72.869C283.938 72.1276 284.098 71.3843 284.274 70.6452C285.227 66.6411 287.368 63.3563 290.496 60.719C291.446 59.9172 292.504 59.1667 293.849 59.1197C294.191 59.1075 294.554 59.1269 294.877 59.2281C295.413 59.3953 295.65 59.8939 295.295 60.3418C294.664 61.1378 293.969 61.9158 293.175 62.5427C291.784 63.6399 290.252 64.5608 288.862 65.6584C287.091 67.0557 285.657 68.7508 284.803 70.8735C284.53 71.5492 284.251 72.2227 283.974 72.8969L283.771 72.869Z" fill="#191817"/>
<path d="M338.047 113.619C338.15 113.431 338.216 113.206 338.362 113.06C339.743 111.682 340.396 109.934 340.802 108.103C341.178 106.404 341.359 104.664 341.705 102.958C341.822 102.38 342.087 101.778 342.449 101.316C342.936 100.695 343.555 100.748 344.099 101.333C344.972 102.272 345.018 103.421 344.82 104.586C344.493 106.52 343.377 108.075 342.185 109.545C341.12 110.857 339.908 112.052 338.754 113.292C338.593 113.465 338.39 113.601 338.206 113.755L338.047 113.619Z" fill="#191817"/>
<path d="M155.185 111.898C154.68 111.298 154.145 110.721 153.675 110.096C151.875 107.701 150.696 105.013 149.937 102.133C149.688 101.186 149.576 100.23 149.865 99.2767C149.961 98.9834 150.113 98.7112 150.313 98.475C150.953 97.6965 151.914 97.7828 152.374 98.6846C152.585 99.0961 152.749 99.5749 152.768 100.03C152.819 101.082 152.807 102.136 152.734 103.186C152.527 106.011 153.194 108.573 154.889 110.86C155.072 111.106 155.234 111.367 155.398 111.625C155.411 111.647 155.378 111.699 155.367 111.738L155.185 111.898Z" fill="#191817"/>
<path d="M34.0312 96.6694C34.861 95.7691 35.7544 95.6313 36.7695 95.9738C37.6395 96.267 38.0557 96.89 38.1438 97.7968C38.5106 97.8472 38.889 97.846 39.2305 97.9563C40.3663 98.3236 41.0321 99.1624 41.1589 100.304C41.2948 101.529 41.2738 102.773 41.2925 104.009C41.2964 104.275 41.1777 104.542 41.0157 104.838C39.9711 101.023 38.0301 98.0113 34.0312 96.6694Z" fill="#191817"/>
<path d="M257.976 87.7841C257.29 87.0033 256.736 86.3192 256.126 85.6877C255.015 84.5363 253.414 84.2438 251.983 84.8951C251.565 84.3813 251.591 83.8044 251.87 83.2749C252.138 82.7683 252.577 82.4651 253.217 82.451C254.651 82.4189 255.697 83.1229 256.427 84.2301C257.045 85.1685 257.471 86.2333 257.969 87.2484C258.018 87.3465 257.976 87.4886 257.976 87.7841Z" fill="#191817"/>
<path d="M290.676 66.2046C290.888 65.9504 291.076 65.6701 291.318 65.4468C292.076 64.7501 292.809 64.0136 293.638 63.4085C294.752 62.5957 295.945 61.8951 297.406 61.8894C297.872 61.8894 298.325 61.9814 298.456 62.4659C298.592 62.9691 298.184 63.2837 297.795 63.4436C297.231 63.675 296.627 63.9109 296.03 63.9399C294.027 64.0323 292.371 64.818 290.971 66.2077C290.924 66.255 290.849 66.276 290.787 66.3092L290.676 66.2046Z" fill="#191817"/>
<path d="M345.729 104.918C345.442 103.602 345.746 102.426 346.43 101.359C346.966 100.521 347.617 99.775 348.628 99.4627C348.743 99.4268 348.865 99.3657 348.981 99.3703C349.354 99.3848 349.892 99.2061 349.99 99.6959C350.055 100.018 349.871 100.514 349.624 100.75C349.079 101.27 348.448 101.712 347.808 102.118C346.921 102.679 346.257 103.387 345.961 104.408C345.91 104.586 345.807 104.748 345.729 104.918Z" fill="#191817"/>
<path d="M254.744 80.883C254.118 80.6363 253.466 80.3809 252.815 80.1224C252.703 80.0782 252.583 80.0365 252.489 79.9644C252.151 79.7052 251.685 79.4364 251.922 78.9435C252.159 78.4506 252.7 78.5186 253.136 78.6381C254.237 78.9359 254.819 79.822 254.744 80.883Z" fill="#191817"/>
<mask id="path-26-outside-1_1305_2364" maskUnits="userSpaceOnUse" x="0" y="141.789" width="345" height="17" fill="black">
<rect fill="white" y="141.789" width="345" height="17"/>
<path d="M7.51957 157.789C3.91717 157.789 1 154.433 1 150.299C1 146.145 3.91717 142.789 7.51957 142.789C8.83132 142.789 10.0648 143.239 11.1024 144.017V144.446C11.1024 144.528 11.1024 145.163 11.1024 145.695C11.1024 146.022 11.1024 146.309 11.1024 146.39C11.1024 146.431 11.0828 146.452 11.0437 146.452C11.0241 146.452 11.0045 146.431 11.0045 146.39C10.9849 146.022 10.8087 145.347 10.2605 144.856C8.73343 143.566 6.85391 143.137 5.1506 143.812C2.3509 144.917 1.11747 148.621 2.46837 152.305C3.81928 156.008 7.03012 157.953 9.82981 156.847C10.0843 156.766 10.3193 156.663 10.5346 156.541V151.302C10.5346 150.401 9.77108 150.238 9.35994 150.217C9.34036 150.217 9.32078 150.197 9.32078 150.176C9.32078 150.135 9.34036 150.115 9.35994 150.115C9.61445 150.115 11.5331 150.115 11.6506 150.115C11.7876 150.115 12.5708 150.115 12.8253 150.115C12.8449 150.115 12.8645 150.135 12.8645 150.176C12.8645 150.197 12.8449 150.217 12.8253 150.217C12.4142 150.238 11.6506 150.401 11.6506 151.302V157.441H11.3373L10.6717 156.847C9.73192 157.441 8.65512 157.789 7.51957 157.789Z"/>
<path d="M18.5905 157.339C19.0016 157.339 19.7652 157.175 19.7652 156.254V144.324C19.7652 143.403 19.0016 143.239 18.5905 143.239C18.5709 143.239 18.5513 143.198 18.5513 143.178C18.5513 143.157 18.5709 143.137 18.5905 143.137C18.845 143.137 20.7637 143.137 20.8812 143.137C20.9986 143.137 21.8013 143.137 22.0363 143.137C22.0754 143.137 22.095 143.157 22.095 143.178C22.095 143.198 22.0754 143.239 22.0363 143.239C21.6447 143.239 20.8812 143.403 20.8812 144.324V157.114H23.6221C25.5212 157.114 26.1869 155.517 26.3239 155.19C26.3435 155.149 26.3631 155.149 26.3827 155.149C26.4218 155.169 26.4218 155.19 26.4218 155.21C26.2652 155.947 26.1086 156.827 26.0498 157.114L25.9911 157.441H19.7652C19.6281 157.441 18.845 157.441 18.5905 157.441C18.5709 157.441 18.5513 157.42 18.5513 157.4C18.5513 157.38 18.5709 157.339 18.5905 157.339Z"/>
<path d="M38.5772 157.789C34.9748 157.789 32.0576 154.433 32.0576 150.299C32.0576 146.145 34.9748 142.789 38.5772 142.789C42.1796 142.789 45.0968 146.145 45.0968 150.299C45.0968 154.433 42.1796 157.789 38.5772 157.789ZM36.2669 143.73C33.4673 144.835 32.1751 148.621 33.526 152.305C34.8769 156.008 38.166 157.891 40.9462 156.766C43.7459 155.661 44.9793 151.957 43.6284 148.273C42.2775 144.569 39.0471 142.605 36.2669 143.73Z"/>
<path d="M51.1012 157.339C51.5123 157.339 52.2759 157.175 52.2759 156.254V144.324C52.2759 143.403 51.5123 143.239 51.1012 143.239C51.0816 143.239 51.062 143.198 51.062 143.178C51.062 143.157 51.0816 143.137 51.1012 143.137C51.3557 143.137 53.2352 143.137 53.3527 143.137C53.9205 143.137 54.547 143.137 55.0364 143.137C58.4626 143.137 60.4988 143.894 60.4988 145.92C60.4988 147.966 57.9927 148.662 55.7021 149.255C58.6976 149.337 61.0861 150.852 61.0861 153.512C61.0861 156.111 58.678 157.789 55.565 157.789C54.6253 157.789 53.6855 157.461 52.8241 157.461H52.2759C52.1388 157.461 51.3557 157.461 51.1012 157.461C51.0816 157.461 51.062 157.42 51.062 157.4C51.062 157.38 51.0816 157.339 51.1012 157.339ZM59.8918 153.573C59.8918 151.425 58.0711 149.583 55.428 149.583C54.7232 149.583 54.0379 149.685 53.3918 149.91V155.579C53.3918 157.339 54.4491 157.461 55.7804 157.461C57.6012 157.461 59.8918 156.213 59.8918 153.573ZM59.3828 146.022C59.3828 144.303 57.8361 143.464 55.0364 143.464C54.4491 143.464 53.9596 143.464 53.3918 143.464V149.603C55.7412 148.703 59.3828 148.56 59.3828 146.022Z"/>
<path d="M66.4497 157.441C66.4301 157.441 66.3909 157.42 66.4105 157.4C66.4105 157.38 66.4301 157.339 66.4497 157.339C66.8608 157.339 67.6635 157.175 67.8593 156.254L70.2087 144.324C70.3849 143.444 69.6801 143.239 69.2885 143.239C69.2494 143.239 69.2298 143.198 69.2298 143.178C69.2298 143.157 69.2494 143.137 69.2885 143.137C69.5235 143.137 70.9918 143.137 71.1289 143.137L73.7132 156.254C73.909 157.175 74.7117 157.339 75.1228 157.339C75.162 157.339 75.1816 157.38 75.1816 157.4C75.1816 157.42 75.162 157.441 75.1228 157.441C74.8683 157.441 72.9692 157.441 72.8322 157.441C72.7147 157.441 71.912 157.441 71.6771 157.441C71.6379 157.441 71.6183 157.42 71.6183 157.4C71.6183 157.38 71.6379 157.339 71.6771 157.339C72.0686 157.339 72.793 157.195 72.5972 156.254L71.4617 150.463H69.3277L68.1725 156.254C67.9963 157.195 68.7012 157.339 69.1123 157.339C69.1319 157.339 69.1515 157.38 69.1515 157.4C69.1515 157.42 69.1319 157.441 69.1123 157.441C68.8578 157.441 67.7418 157.441 67.6244 157.441C67.4873 157.441 66.7042 157.441 66.4497 157.441ZM71.3834 150.115L70.3849 145.06L69.3864 150.115H71.3834Z"/>
<path d="M81.2028 157.339C81.614 157.339 82.3775 157.175 82.3775 156.254V144.324C82.3775 143.403 81.614 143.239 81.2028 143.239C81.1833 143.239 81.1637 143.198 81.1637 143.178C81.1637 143.157 81.1833 143.137 81.2028 143.137C81.4573 143.137 83.376 143.137 83.4935 143.137C83.611 143.137 84.4137 143.137 84.6486 143.137C84.6878 143.137 84.7073 143.157 84.7073 143.178C84.7073 143.198 84.6878 143.239 84.6486 143.239C84.257 143.239 83.4935 143.403 83.4935 144.324V157.114H86.2345C88.1335 157.114 88.7992 155.517 88.9363 155.19C88.9558 155.149 88.9754 155.149 88.995 155.149C89.0341 155.169 89.0341 155.19 89.0341 155.21C88.8775 155.947 88.7209 156.827 88.6622 157.114L88.6034 157.441H82.3775C82.2405 157.441 81.4573 157.441 81.2028 157.441C81.1833 157.441 81.1637 157.42 81.1637 157.4C81.1637 157.38 81.1833 157.339 81.2028 157.339Z"/>
<path d="M113.372 157.789C109.77 157.789 106.853 154.433 106.853 150.299C106.853 146.145 109.77 142.789 113.372 142.789C116.975 142.789 119.892 146.145 119.892 150.299C119.892 154.433 116.975 157.789 113.372 157.789ZM111.062 143.73C108.262 144.835 106.97 148.621 108.321 152.305C109.672 156.008 112.961 157.891 115.741 156.766C118.541 155.661 119.775 151.957 118.424 148.273C117.073 144.569 113.842 142.605 111.062 143.73Z"/>
<path d="M125.896 157.339C126.308 157.339 127.071 157.175 127.071 156.254V144.324C127.071 143.403 126.308 143.239 125.896 143.239C125.877 143.239 125.857 143.198 125.857 143.178C125.857 143.157 125.877 143.137 125.896 143.137C126.151 143.137 126.934 143.137 127.071 143.137H128.187L134.413 155.272V144.324C134.413 143.403 133.649 143.239 133.238 143.239C133.219 143.239 133.199 143.198 133.199 143.178C133.199 143.157 133.219 143.137 133.238 143.137C133.493 143.137 134.609 143.137 134.726 143.137C134.844 143.137 135.646 143.137 135.901 143.137C135.921 143.137 135.94 143.157 135.94 143.178C135.94 143.198 135.921 143.239 135.901 143.239C135.49 143.239 134.726 143.403 134.726 144.324V157.441H134.413L127.384 143.751V156.254C127.384 157.175 128.148 157.339 128.559 157.339C128.579 157.339 128.598 157.38 128.598 157.4C128.598 157.42 128.579 157.441 128.559 157.441C128.305 157.441 127.189 157.441 127.071 157.441C126.934 157.441 126.151 157.441 125.896 157.441C125.877 157.441 125.857 157.42 125.857 157.4C125.857 157.38 125.877 157.339 125.896 157.339Z"/>
<path d="M142.056 157.339C142.467 157.339 143.231 157.175 143.231 156.254V144.324C143.231 143.403 142.467 143.239 142.056 143.239C142.037 143.239 142.017 143.198 142.017 143.178C142.017 143.157 142.037 143.137 142.056 143.137C142.311 143.137 144.229 143.137 144.347 143.137C144.464 143.137 145.267 143.137 145.502 143.137C145.541 143.137 145.561 143.157 145.561 143.178C145.561 143.198 145.541 143.239 145.502 143.239C145.11 143.239 144.347 143.403 144.347 144.324V157.114H147.088C148.987 157.114 149.653 155.517 149.79 155.19C149.809 155.149 149.829 155.149 149.848 155.149C149.887 155.169 149.887 155.19 149.887 155.21C149.731 155.947 149.574 156.827 149.516 157.114L149.457 157.441H143.231C143.094 157.441 142.311 157.441 142.056 157.441C142.037 157.441 142.017 157.42 142.017 157.4C142.017 157.38 142.037 157.339 142.056 157.339Z"/>
<path d="M155.769 157.339C156.18 157.339 156.943 157.175 156.943 156.254V144.324C156.943 143.403 156.18 143.239 155.769 143.239C155.749 143.239 155.729 143.198 155.729 143.178C155.729 143.157 155.749 143.137 155.769 143.137C156.023 143.137 157.942 143.137 158.059 143.137C158.177 143.137 158.979 143.137 159.214 143.137C159.254 143.137 159.273 143.157 159.273 143.178C159.273 143.198 159.254 143.239 159.214 143.239C158.823 143.239 158.059 143.403 158.059 144.324V156.254C158.059 157.175 158.823 157.339 159.214 157.339C159.254 157.339 159.273 157.38 159.273 157.4C159.273 157.42 159.254 157.441 159.214 157.441C158.979 157.441 157.061 157.441 156.943 157.441C156.806 157.441 156.023 157.441 155.769 157.441C155.749 157.441 155.729 157.42 155.729 157.4C155.729 157.38 155.749 157.339 155.769 157.339Z"/>
<path d="M165.409 157.339C165.82 157.339 166.583 157.175 166.583 156.254V144.324C166.583 143.403 165.82 143.239 165.409 143.239C165.389 143.239 165.369 143.198 165.369 143.178C165.369 143.157 165.389 143.137 165.409 143.137C165.663 143.137 166.446 143.137 166.583 143.137H167.699L173.925 155.272V144.324C173.925 143.403 173.162 143.239 172.751 143.239C172.731 143.239 172.711 143.198 172.711 143.178C172.711 143.157 172.731 143.137 172.751 143.137C173.005 143.137 174.121 143.137 174.238 143.137C174.356 143.137 175.159 143.137 175.413 143.137C175.433 143.137 175.452 143.157 175.452 143.178C175.452 143.198 175.433 143.239 175.413 143.239C175.002 143.239 174.238 143.403 174.238 144.324V157.441H173.925L166.897 143.751V156.254C166.897 157.175 167.66 157.339 168.071 157.339C168.091 157.339 168.11 157.38 168.11 157.4C168.11 157.42 168.091 157.441 168.071 157.441C167.817 157.441 166.701 157.441 166.583 157.441C166.446 157.441 165.663 157.441 165.409 157.441C165.389 157.441 165.369 157.42 165.369 157.4C165.369 157.38 165.389 157.339 165.409 157.339Z"/>
<path d="M181.568 157.339C181.98 157.339 182.743 157.175 182.743 156.254V144.324C182.743 143.403 181.98 143.239 181.568 143.239C181.549 143.239 181.529 143.198 181.529 143.178C181.529 143.157 181.549 143.137 181.568 143.137C181.823 143.137 188.323 143.137 188.44 143.137L188.499 143.464C188.558 143.751 188.714 144.631 188.871 145.367C188.871 145.388 188.871 145.408 188.832 145.429C188.812 145.429 188.793 145.429 188.773 145.388C188.636 145.06 187.971 143.464 186.071 143.464H183.859V150.115H186.111C186.972 150.115 187.129 149.317 187.148 148.908C187.148 148.867 187.168 148.846 187.187 148.846C187.207 148.846 187.246 148.867 187.246 148.908C187.246 149.153 187.246 150.32 187.246 150.463C187.246 150.586 187.246 151.425 187.246 151.67C187.246 151.711 187.207 151.732 187.187 151.732C187.168 151.732 187.148 151.711 187.148 151.67C187.129 151.261 186.972 150.463 186.111 150.463H183.859V157.114H186.6C188.499 157.114 189.165 155.517 189.302 155.19C189.321 155.149 189.341 155.149 189.361 155.149C189.4 155.169 189.4 155.19 189.4 155.21C189.243 155.947 189.086 156.827 189.028 157.114L188.969 157.441H182.743C182.606 157.441 181.823 157.441 181.568 157.441C181.549 157.441 181.529 157.42 181.529 157.4C181.529 157.38 181.549 157.339 181.568 157.339Z"/>
<path d="M207.311 157.339C207.722 157.339 208.486 157.175 208.486 156.254V144.324C208.486 143.403 207.722 143.239 207.311 143.239C207.291 143.239 207.272 143.198 207.272 143.178C207.272 143.157 207.291 143.137 207.311 143.137C207.565 143.137 209.484 143.137 209.601 143.137C209.719 143.137 210.522 143.137 210.757 143.137C210.796 143.137 210.815 143.157 210.815 143.178C210.815 143.198 210.796 143.239 210.757 143.239C210.365 143.239 209.601 143.403 209.601 144.324V150.115H215.24V144.324C215.24 143.403 214.476 143.239 214.065 143.239C214.046 143.239 214.026 143.198 214.026 143.178C214.026 143.157 214.046 143.137 214.065 143.137C214.32 143.137 216.239 143.137 216.356 143.137C216.493 143.137 217.276 143.137 217.531 143.137C217.55 143.137 217.57 143.157 217.57 143.178C217.57 143.198 217.55 143.239 217.531 143.239C217.12 143.239 216.356 143.403 216.356 144.324V156.254C216.356 157.175 217.12 157.339 217.531 157.339C217.55 157.339 217.57 157.38 217.57 157.4C217.57 157.42 217.55 157.441 217.531 157.441C217.276 157.441 215.357 157.441 215.24 157.441C215.123 157.441 214.32 157.441 214.065 157.441C214.046 157.441 214.026 157.42 214.026 157.4C214.026 157.38 214.046 157.339 214.065 157.339C214.476 157.339 215.24 157.175 215.24 156.254V150.463H209.601V156.254C209.601 157.175 210.365 157.339 210.757 157.339C210.796 157.339 210.815 157.38 210.815 157.4C210.815 157.42 210.796 157.441 210.757 157.441C210.522 157.441 208.603 157.441 208.486 157.441C208.348 157.441 207.565 157.441 207.311 157.441C207.291 157.441 207.272 157.42 207.272 157.4C207.272 157.38 207.291 157.339 207.311 157.339Z"/>
<path d="M223.596 157.441C223.577 157.441 223.537 157.42 223.557 157.4C223.557 157.38 223.577 157.339 223.596 157.339C224.007 157.339 224.81 157.175 225.006 156.254L227.355 144.324C227.531 143.444 226.827 143.239 226.435 143.239C226.396 143.239 226.376 143.198 226.376 143.178C226.376 143.157 226.396 143.137 226.435 143.137C226.67 143.137 228.138 143.137 228.275 143.137L230.86 156.254C231.055 157.175 231.858 157.339 232.269 157.339C232.308 157.339 232.328 157.38 232.328 157.4C232.328 157.42 232.308 157.441 232.269 157.441C232.015 157.441 230.116 157.441 229.979 157.441C229.861 157.441 229.058 157.441 228.824 157.441C228.784 157.441 228.765 157.42 228.765 157.4C228.765 157.38 228.784 157.339 228.824 157.339C229.215 157.339 229.939 157.195 229.744 156.254L228.608 150.463H226.474L225.319 156.254C225.143 157.195 225.848 157.339 226.259 157.339C226.278 157.339 226.298 157.38 226.298 157.4C226.298 157.42 226.278 157.441 226.259 157.441C226.004 157.441 224.888 157.441 224.771 157.441C224.634 157.441 223.851 157.441 223.596 157.441ZM228.53 150.115L227.531 145.06L226.533 150.115H228.53Z"/>
<path d="M243.648 157.789C240.046 157.789 237.129 154.433 237.129 150.299C237.129 146.145 240.046 142.789 243.648 142.789C244.96 142.789 246.194 143.239 247.231 144.017V144.446C247.231 144.528 247.231 145.163 247.231 145.695C247.231 146.022 247.231 146.309 247.231 146.39C247.231 146.431 247.212 146.452 247.173 146.452C247.153 146.452 247.133 146.431 247.133 146.39C247.114 146.022 246.938 145.347 246.389 144.856C244.862 143.566 242.983 143.137 241.279 143.812C238.48 144.917 237.246 148.621 238.597 152.305C239.948 156.008 243.179 157.973 245.959 156.847C246.546 156.622 247.055 156.274 247.505 155.824L247.76 156.111C246.624 157.154 245.195 157.789 243.648 157.789Z"/>
<path d="M253.782 157.339C254.194 157.339 254.957 157.175 254.957 156.254V144.324C254.957 143.403 254.194 143.239 253.782 143.239C253.763 143.239 253.743 143.198 253.743 143.178C253.743 143.157 253.763 143.137 253.782 143.137C254.037 143.137 255.956 143.137 256.073 143.137C256.191 143.137 256.993 143.137 257.228 143.137C257.267 143.137 257.287 143.157 257.287 143.178C257.287 143.198 257.267 143.239 257.228 143.239C256.837 143.239 256.073 143.403 256.073 144.324V150.299L260.204 144.324C260.889 143.321 260.263 143.239 259.852 143.239C259.832 143.239 259.813 143.198 259.813 143.178C259.813 143.157 259.832 143.137 259.852 143.137C260.106 143.137 261.222 143.137 261.34 143.137C261.457 143.137 262.26 143.137 262.514 143.137C262.534 143.137 262.554 143.157 262.554 143.178C262.554 143.198 262.534 143.239 262.514 143.239C262.103 143.239 261.222 143.3 260.517 144.324L256.621 149.951L261.007 156.254C261.692 157.277 262.593 157.339 262.984 157.339C263.023 157.339 263.043 157.38 263.043 157.4C263.043 157.42 263.023 157.441 262.984 157.441C262.749 157.441 260.831 157.441 260.694 157.441C260.576 157.441 259.773 157.441 259.539 157.441C259.499 157.441 259.48 157.42 259.48 157.4C259.48 157.38 259.499 157.339 259.539 157.339C259.93 157.339 260.557 157.257 259.871 156.254L256.073 150.749V156.254C256.073 157.175 256.837 157.339 257.228 157.339C257.267 157.339 257.287 157.38 257.287 157.4C257.287 157.42 257.267 157.441 257.228 157.441C256.993 157.441 255.075 157.441 254.957 157.441C254.82 157.441 254.037 157.441 253.782 157.441C253.763 157.441 253.743 157.42 253.743 157.4C253.743 157.38 253.763 157.339 253.782 157.339Z"/>
<path d="M268.978 157.441C268.958 157.441 268.919 157.42 268.939 157.4C268.939 157.38 268.958 157.339 268.978 157.339C269.389 157.339 270.192 157.175 270.388 156.254L272.737 144.324C272.913 143.444 272.208 143.239 271.817 143.239C271.778 143.239 271.758 143.198 271.758 143.178C271.758 143.157 271.778 143.137 271.817 143.137C272.052 143.137 273.52 143.137 273.657 143.137L276.242 156.254C276.437 157.175 277.24 157.339 277.651 157.339C277.69 157.339 277.71 157.38 277.71 157.4C277.71 157.42 277.69 157.441 277.651 157.441C277.397 157.441 275.498 157.441 275.361 157.441C275.243 157.441 274.44 157.441 274.205 157.441C274.166 157.441 274.147 157.42 274.147 157.4C274.147 157.38 274.166 157.339 274.205 157.339C274.597 157.339 275.321 157.195 275.126 156.254L273.99 150.463H271.856L270.701 156.254C270.525 157.195 271.23 157.339 271.641 157.339C271.66 157.339 271.68 157.38 271.68 157.4C271.68 157.42 271.66 157.441 271.641 157.441C271.386 157.441 270.27 157.441 270.153 157.441C270.016 157.441 269.233 157.441 268.978 157.441ZM273.912 150.115L272.913 145.06L271.915 150.115H273.912Z"/>
<path d="M281.564 145.429C281.525 145.408 281.525 145.388 281.545 145.367C281.682 144.631 281.838 143.751 281.897 143.464L281.975 143.137H292.234L292.313 143.464C292.371 143.751 292.528 144.631 292.665 145.367C292.685 145.388 292.685 145.408 292.646 145.429C292.626 145.429 292.587 145.429 292.587 145.388C292.45 145.06 291.765 143.464 289.885 143.464H287.673V156.254C287.673 157.175 288.436 157.339 288.828 157.339C288.867 157.339 288.887 157.38 288.887 157.4C288.887 157.42 288.867 157.441 288.828 157.441C288.593 157.441 286.674 157.441 286.537 157.441C286.42 157.441 285.617 157.441 285.382 157.441C285.343 157.441 285.323 157.42 285.323 157.4C285.323 157.38 285.343 157.339 285.382 157.339C285.774 157.339 286.537 157.175 286.537 156.254V143.464H284.325C282.445 143.464 281.76 145.06 281.623 145.388C281.623 145.429 281.584 145.429 281.564 145.429Z"/>
<path d="M298.692 157.339C299.104 157.339 299.867 157.175 299.867 156.254V144.324C299.867 143.403 299.104 143.239 298.692 143.239C298.673 143.239 298.653 143.198 298.653 143.178C298.653 143.157 298.673 143.137 298.692 143.137C298.947 143.137 300.866 143.137 300.983 143.137C301.101 143.137 301.903 143.137 302.138 143.137C302.177 143.137 302.197 143.157 302.197 143.178C302.197 143.198 302.177 143.239 302.138 143.239C301.747 143.239 300.983 143.403 300.983 144.324V150.115H306.622V144.324C306.622 143.403 305.858 143.239 305.447 143.239C305.427 143.239 305.408 143.198 305.408 143.178C305.408 143.157 305.427 143.137 305.447 143.137C305.702 143.137 307.62 143.137 307.738 143.137C307.875 143.137 308.658 143.137 308.912 143.137C308.932 143.137 308.951 143.157 308.951 143.178C308.951 143.198 308.932 143.239 308.912 143.239C308.501 143.239 307.738 143.403 307.738 144.324V156.254C307.738 157.175 308.501 157.339 308.912 157.339C308.932 157.339 308.951 157.38 308.951 157.4C308.951 157.42 308.932 157.441 308.912 157.441C308.658 157.441 306.739 157.441 306.622 157.441C306.504 157.441 305.702 157.441 305.447 157.441C305.427 157.441 305.408 157.42 305.408 157.4C305.408 157.38 305.427 157.339 305.447 157.339C305.858 157.339 306.622 157.175 306.622 156.254V150.463H300.983V156.254C300.983 157.175 301.747 157.339 302.138 157.339C302.177 157.339 302.197 157.38 302.197 157.4C302.197 157.42 302.177 157.441 302.138 157.441C301.903 157.441 299.985 157.441 299.867 157.441C299.73 157.441 298.947 157.441 298.692 157.441C298.673 157.441 298.653 157.42 298.653 157.4C298.653 157.38 298.673 157.339 298.692 157.339Z"/>
<path d="M321.432 157.789C317.83 157.789 314.913 154.433 314.913 150.299C314.913 146.145 317.83 142.789 321.432 142.789C325.035 142.789 327.952 146.145 327.952 150.299C327.952 154.433 325.035 157.789 321.432 157.789ZM319.122 143.73C316.322 144.835 315.03 148.621 316.381 152.305C317.732 156.008 321.021 157.891 323.801 156.766C326.601 155.661 327.834 151.957 326.484 148.273C325.133 144.569 321.902 142.605 319.122 143.73Z"/>
<path d="M333.956 157.339C334.367 157.339 335.131 157.175 335.131 156.254V144.324C335.131 143.403 334.367 143.239 333.956 143.239C333.937 143.239 333.917 143.198 333.917 143.178C333.917 143.157 333.937 143.137 333.956 143.137C334.211 143.137 334.994 143.137 335.131 143.137H336.247L342.473 155.272V144.324C342.473 143.403 341.709 143.239 341.298 143.239C341.279 143.239 341.259 143.198 341.259 143.178C341.259 143.157 341.279 143.137 341.298 143.137C341.553 143.137 342.669 143.137 342.786 143.137C342.904 143.137 343.706 143.137 343.961 143.137C343.98 143.137 344 143.157 344 143.178C344 143.198 343.98 143.239 343.961 143.239C343.55 143.239 342.786 143.403 342.786 144.324V157.441H342.473L335.444 143.751V156.254C335.444 157.175 336.208 157.339 336.619 157.339C336.639 157.339 336.658 157.38 336.658 157.4C336.658 157.42 336.639 157.441 336.619 157.441C336.364 157.441 335.249 157.441 335.131 157.441C334.994 157.441 334.211 157.441 333.956 157.441C333.937 157.441 333.917 157.42 333.917 157.4C333.917 157.38 333.937 157.339 333.956 157.339Z"/>
</mask>
<path d="M7.51957 157.789C3.91717 157.789 1 154.433 1 150.299C1 146.145 3.91717 142.789 7.51957 142.789C8.83132 142.789 10.0648 143.239 11.1024 144.017V144.446C11.1024 144.528 11.1024 145.163 11.1024 145.695C11.1024 146.022 11.1024 146.309 11.1024 146.39C11.1024 146.431 11.0828 146.452 11.0437 146.452C11.0241 146.452 11.0045 146.431 11.0045 146.39C10.9849 146.022 10.8087 145.347 10.2605 144.856C8.73343 143.566 6.85391 143.137 5.1506 143.812C2.3509 144.917 1.11747 148.621 2.46837 152.305C3.81928 156.008 7.03012 157.953 9.82981 156.847C10.0843 156.766 10.3193 156.663 10.5346 156.541V151.302C10.5346 150.401 9.77108 150.238 9.35994 150.217C9.34036 150.217 9.32078 150.197 9.32078 150.176C9.32078 150.135 9.34036 150.115 9.35994 150.115C9.61445 150.115 11.5331 150.115 11.6506 150.115C11.7876 150.115 12.5708 150.115 12.8253 150.115C12.8449 150.115 12.8645 150.135 12.8645 150.176C12.8645 150.197 12.8449 150.217 12.8253 150.217C12.4142 150.238 11.6506 150.401 11.6506 151.302V157.441H11.3373L10.6717 156.847C9.73192 157.441 8.65512 157.789 7.51957 157.789Z" fill="#191817"/>
<path d="M18.5905 157.339C19.0016 157.339 19.7652 157.175 19.7652 156.254V144.324C19.7652 143.403 19.0016 143.239 18.5905 143.239C18.5709 143.239 18.5513 143.198 18.5513 143.178C18.5513 143.157 18.5709 143.137 18.5905 143.137C18.845 143.137 20.7637 143.137 20.8812 143.137C20.9986 143.137 21.8013 143.137 22.0363 143.137C22.0754 143.137 22.095 143.157 22.095 143.178C22.095 143.198 22.0754 143.239 22.0363 143.239C21.6447 143.239 20.8812 143.403 20.8812 144.324V157.114H23.6221C25.5212 157.114 26.1869 155.517 26.3239 155.19C26.3435 155.149 26.3631 155.149 26.3827 155.149C26.4218 155.169 26.4218 155.19 26.4218 155.21C26.2652 155.947 26.1086 156.827 26.0498 157.114L25.9911 157.441H19.7652C19.6281 157.441 18.845 157.441 18.5905 157.441C18.5709 157.441 18.5513 157.42 18.5513 157.4C18.5513 157.38 18.5709 157.339 18.5905 157.339Z" fill="#191817"/>
<path d="M38.5772 157.789C34.9748 157.789 32.0576 154.433 32.0576 150.299C32.0576 146.145 34.9748 142.789 38.5772 142.789C42.1796 142.789 45.0968 146.145 45.0968 150.299C45.0968 154.433 42.1796 157.789 38.5772 157.789ZM36.2669 143.73C33.4673 144.835 32.1751 148.621 33.526 152.305C34.8769 156.008 38.166 157.891 40.9462 156.766C43.7459 155.661 44.9793 151.957 43.6284 148.273C42.2775 144.569 39.0471 142.605 36.2669 143.73Z" fill="#191817"/>
<path d="M51.1012 157.339C51.5123 157.339 52.2759 157.175 52.2759 156.254V144.324C52.2759 143.403 51.5123 143.239 51.1012 143.239C51.0816 143.239 51.062 143.198 51.062 143.178C51.062 143.157 51.0816 143.137 51.1012 143.137C51.3557 143.137 53.2352 143.137 53.3527 143.137C53.9205 143.137 54.547 143.137 55.0364 143.137C58.4626 143.137 60.4988 143.894 60.4988 145.92C60.4988 147.966 57.9927 148.662 55.7021 149.255C58.6976 149.337 61.0861 150.852 61.0861 153.512C61.0861 156.111 58.678 157.789 55.565 157.789C54.6253 157.789 53.6855 157.461 52.8241 157.461H52.2759C52.1388 157.461 51.3557 157.461 51.1012 157.461C51.0816 157.461 51.062 157.42 51.062 157.4C51.062 157.38 51.0816 157.339 51.1012 157.339ZM59.8918 153.573C59.8918 151.425 58.0711 149.583 55.428 149.583C54.7232 149.583 54.0379 149.685 53.3918 149.91V155.579C53.3918 157.339 54.4491 157.461 55.7804 157.461C57.6012 157.461 59.8918 156.213 59.8918 153.573ZM59.3828 146.022C59.3828 144.303 57.8361 143.464 55.0364 143.464C54.4491 143.464 53.9596 143.464 53.3918 143.464V149.603C55.7412 148.703 59.3828 148.56 59.3828 146.022Z" fill="#191817"/>
<path d="M66.4497 157.441C66.4301 157.441 66.3909 157.42 66.4105 157.4C66.4105 157.38 66.4301 157.339 66.4497 157.339C66.8608 157.339 67.6635 157.175 67.8593 156.254L70.2087 144.324C70.3849 143.444 69.6801 143.239 69.2885 143.239C69.2494 143.239 69.2298 143.198 69.2298 143.178C69.2298 143.157 69.2494 143.137 69.2885 143.137C69.5235 143.137 70.9918 143.137 71.1289 143.137L73.7132 156.254C73.909 157.175 74.7117 157.339 75.1228 157.339C75.162 157.339 75.1816 157.38 75.1816 157.4C75.1816 157.42 75.162 157.441 75.1228 157.441C74.8683 157.441 72.9692 157.441 72.8322 157.441C72.7147 157.441 71.912 157.441 71.6771 157.441C71.6379 157.441 71.6183 157.42 71.6183 157.4C71.6183 157.38 71.6379 157.339 71.6771 157.339C72.0686 157.339 72.793 157.195 72.5972 156.254L71.4617 150.463H69.3277L68.1725 156.254C67.9963 157.195 68.7012 157.339 69.1123 157.339C69.1319 157.339 69.1515 157.38 69.1515 157.4C69.1515 157.42 69.1319 157.441 69.1123 157.441C68.8578 157.441 67.7418 157.441 67.6244 157.441C67.4873 157.441 66.7042 157.441 66.4497 157.441ZM71.3834 150.115L70.3849 145.06L69.3864 150.115H71.3834Z" fill="#191817"/>
<path d="M81.2028 157.339C81.614 157.339 82.3775 157.175 82.3775 156.254V144.324C82.3775 143.403 81.614 143.239 81.2028 143.239C81.1833 143.239 81.1637 143.198 81.1637 143.178C81.1637 143.157 81.1833 143.137 81.2028 143.137C81.4573 143.137 83.376 143.137 83.4935 143.137C83.611 143.137 84.4137 143.137 84.6486 143.137C84.6878 143.137 84.7073 143.157 84.7073 143.178C84.7073 143.198 84.6878 143.239 84.6486 143.239C84.257 143.239 83.4935 143.403 83.4935 144.324V157.114H86.2345C88.1335 157.114 88.7992 155.517 88.9363 155.19C88.9558 155.149 88.9754 155.149 88.995 155.149C89.0341 155.169 89.0341 155.19 89.0341 155.21C88.8775 155.947 88.7209 156.827 88.6622 157.114L88.6034 157.441H82.3775C82.2405 157.441 81.4573 157.441 81.2028 157.441C81.1833 157.441 81.1637 157.42 81.1637 157.4C81.1637 157.38 81.1833 157.339 81.2028 157.339Z" fill="#191817"/>
<path d="M113.372 157.789C109.77 157.789 106.853 154.433 106.853 150.299C106.853 146.145 109.77 142.789 113.372 142.789C116.975 142.789 119.892 146.145 119.892 150.299C119.892 154.433 116.975 157.789 113.372 157.789ZM111.062 143.73C108.262 144.835 106.97 148.621 108.321 152.305C109.672 156.008 112.961 157.891 115.741 156.766C118.541 155.661 119.775 151.957 118.424 148.273C117.073 144.569 113.842 142.605 111.062 143.73Z" fill="#191817"/>
<path d="M125.896 157.339C126.308 157.339 127.071 157.175 127.071 156.254V144.324C127.071 143.403 126.308 143.239 125.896 143.239C125.877 143.239 125.857 143.198 125.857 143.178C125.857 143.157 125.877 143.137 125.896 143.137C126.151 143.137 126.934 143.137 127.071 143.137H128.187L134.413 155.272V144.324C134.413 143.403 133.649 143.239 133.238 143.239C133.219 143.239 133.199 143.198 133.199 143.178C133.199 143.157 133.219 143.137 133.238 143.137C133.493 143.137 134.609 143.137 134.726 143.137C134.844 143.137 135.646 143.137 135.901 143.137C135.921 143.137 135.94 143.157 135.94 143.178C135.94 143.198 135.921 143.239 135.901 143.239C135.49 143.239 134.726 143.403 134.726 144.324V157.441H134.413L127.384 143.751V156.254C127.384 157.175 128.148 157.339 128.559 157.339C128.579 157.339 128.598 157.38 128.598 157.4C128.598 157.42 128.579 157.441 128.559 157.441C128.305 157.441 127.189 157.441 127.071 157.441C126.934 157.441 126.151 157.441 125.896 157.441C125.877 157.441 125.857 157.42 125.857 157.4C125.857 157.38 125.877 157.339 125.896 157.339Z" fill="#191817"/>
<path d="M142.056 157.339C142.467 157.339 143.231 157.175 143.231 156.254V144.324C143.231 143.403 142.467 143.239 142.056 143.239C142.037 143.239 142.017 143.198 142.017 143.178C142.017 143.157 142.037 143.137 142.056 143.137C142.311 143.137 144.229 143.137 144.347 143.137C144.464 143.137 145.267 143.137 145.502 143.137C145.541 143.137 145.561 143.157 145.561 143.178C145.561 143.198 145.541 143.239 145.502 143.239C145.11 143.239 144.347 143.403 144.347 144.324V157.114H147.088C148.987 157.114 149.653 155.517 149.79 155.19C149.809 155.149 149.829 155.149 149.848 155.149C149.887 155.169 149.887 155.19 149.887 155.21C149.731 155.947 149.574 156.827 149.516 157.114L149.457 157.441H143.231C143.094 157.441 142.311 157.441 142.056 157.441C142.037 157.441 142.017 157.42 142.017 157.4C142.017 157.38 142.037 157.339 142.056 157.339Z" fill="#191817"/>
<path d="M155.769 157.339C156.18 157.339 156.943 157.175 156.943 156.254V144.324C156.943 143.403 156.18 143.239 155.769 143.239C155.749 143.239 155.729 143.198 155.729 143.178C155.729 143.157 155.749 143.137 155.769 143.137C156.023 143.137 157.942 143.137 158.059 143.137C158.177 143.137 158.979 143.137 159.214 143.137C159.254 143.137 159.273 143.157 159.273 143.178C159.273 143.198 159.254 143.239 159.214 143.239C158.823 143.239 158.059 143.403 158.059 144.324V156.254C158.059 157.175 158.823 157.339 159.214 157.339C159.254 157.339 159.273 157.38 159.273 157.4C159.273 157.42 159.254 157.441 159.214 157.441C158.979 157.441 157.061 157.441 156.943 157.441C156.806 157.441 156.023 157.441 155.769 157.441C155.749 157.441 155.729 157.42 155.729 157.4C155.729 157.38 155.749 157.339 155.769 157.339Z" fill="#191817"/>
<path d="M165.409 157.339C165.82 157.339 166.583 157.175 166.583 156.254V144.324C166.583 143.403 165.82 143.239 165.409 143.239C165.389 143.239 165.369 143.198 165.369 143.178C165.369 143.157 165.389 143.137 165.409 143.137C165.663 143.137 166.446 143.137 166.583 143.137H167.699L173.925 155.272V144.324C173.925 143.403 173.162 143.239 172.751 143.239C172.731 143.239 172.711 143.198 172.711 143.178C172.711 143.157 172.731 143.137 172.751 143.137C173.005 143.137 174.121 143.137 174.238 143.137C174.356 143.137 175.159 143.137 175.413 143.137C175.433 143.137 175.452 143.157 175.452 143.178C175.452 143.198 175.433 143.239 175.413 143.239C175.002 143.239 174.238 143.403 174.238 144.324V157.441H173.925L166.897 143.751V156.254C166.897 157.175 167.66 157.339 168.071 157.339C168.091 157.339 168.11 157.38 168.11 157.4C168.11 157.42 168.091 157.441 168.071 157.441C167.817 157.441 166.701 157.441 166.583 157.441C166.446 157.441 165.663 157.441 165.409 157.441C165.389 157.441 165.369 157.42 165.369 157.4C165.369 157.38 165.389 157.339 165.409 157.339Z" fill="#191817"/>
<path d="M181.568 157.339C181.98 157.339 182.743 157.175 182.743 156.254V144.324C182.743 143.403 181.98 143.239 181.568 143.239C181.549 143.239 181.529 143.198 181.529 143.178C181.529 143.157 181.549 143.137 181.568 143.137C181.823 143.137 188.323 143.137 188.44 143.137L188.499 143.464C188.558 143.751 188.714 144.631 188.871 145.367C188.871 145.388 188.871 145.408 188.832 145.429C188.812 145.429 188.793 145.429 188.773 145.388C188.636 145.06 187.971 143.464 186.071 143.464H183.859V150.115H186.111C186.972 150.115 187.129 149.317 187.148 148.908C187.148 148.867 187.168 148.846 187.187 148.846C187.207 148.846 187.246 148.867 187.246 148.908C187.246 149.153 187.246 150.32 187.246 150.463C187.246 150.586 187.246 151.425 187.246 151.67C187.246 151.711 187.207 151.732 187.187 151.732C187.168 151.732 187.148 151.711 187.148 151.67C187.129 151.261 186.972 150.463 186.111 150.463H183.859V157.114H186.6C188.499 157.114 189.165 155.517 189.302 155.19C189.321 155.149 189.341 155.149 189.361 155.149C189.4 155.169 189.4 155.19 189.4 155.21C189.243 155.947 189.086 156.827 189.028 157.114L188.969 157.441H182.743C182.606 157.441 181.823 157.441 181.568 157.441C181.549 157.441 181.529 157.42 181.529 157.4C181.529 157.38 181.549 157.339 181.568 157.339Z" fill="#191817"/>
<path d="M207.311 157.339C207.722 157.339 208.486 157.175 208.486 156.254V144.324C208.486 143.403 207.722 143.239 207.311 143.239C207.291 143.239 207.272 143.198 207.272 143.178C207.272 143.157 207.291 143.137 207.311 143.137C207.565 143.137 209.484 143.137 209.601 143.137C209.719 143.137 210.522 143.137 210.757 143.137C210.796 143.137 210.815 143.157 210.815 143.178C210.815 143.198 210.796 143.239 210.757 143.239C210.365 143.239 209.601 143.403 209.601 144.324V150.115H215.24V144.324C215.24 143.403 214.476 143.239 214.065 143.239C214.046 143.239 214.026 143.198 214.026 143.178C214.026 143.157 214.046 143.137 214.065 143.137C214.32 143.137 216.239 143.137 216.356 143.137C216.493 143.137 217.276 143.137 217.531 143.137C217.55 143.137 217.57 143.157 217.57 143.178C217.57 143.198 217.55 143.239 217.531 143.239C217.12 143.239 216.356 143.403 216.356 144.324V156.254C216.356 157.175 217.12 157.339 217.531 157.339C217.55 157.339 217.57 157.38 217.57 157.4C217.57 157.42 217.55 157.441 217.531 157.441C217.276 157.441 215.357 157.441 215.24 157.441C215.123 157.441 214.32 157.441 214.065 157.441C214.046 157.441 214.026 157.42 214.026 157.4C214.026 157.38 214.046 157.339 214.065 157.339C214.476 157.339 215.24 157.175 215.24 156.254V150.463H209.601V156.254C209.601 157.175 210.365 157.339 210.757 157.339C210.796 157.339 210.815 157.38 210.815 157.4C210.815 157.42 210.796 157.441 210.757 157.441C210.522 157.441 208.603 157.441 208.486 157.441C208.348 157.441 207.565 157.441 207.311 157.441C207.291 157.441 207.272 157.42 207.272 157.4C207.272 157.38 207.291 157.339 207.311 157.339Z" fill="#191817"/>
<path d="M223.596 157.441C223.577 157.441 223.537 157.42 223.557 157.4C223.557 157.38 223.577 157.339 223.596 157.339C224.007 157.339 224.81 157.175 225.006 156.254L227.355 144.324C227.531 143.444 226.827 143.239 226.435 143.239C226.396 143.239 226.376 143.198 226.376 143.178C226.376 143.157 226.396 143.137 226.435 143.137C226.67 143.137 228.138 143.137 228.275 143.137L230.86 156.254C231.055 157.175 231.858 157.339 232.269 157.339C232.308 157.339 232.328 157.38 232.328 157.4C232.328 157.42 232.308 157.441 232.269 157.441C232.015 157.441 230.116 157.441 229.979 157.441C229.861 157.441 229.058 157.441 228.824 157.441C228.784 157.441 228.765 157.42 228.765 157.4C228.765 157.38 228.784 157.339 228.824 157.339C229.215 157.339 229.939 157.195 229.744 156.254L228.608 150.463H226.474L225.319 156.254C225.143 157.195 225.848 157.339 226.259 157.339C226.278 157.339 226.298 157.38 226.298 157.4C226.298 157.42 226.278 157.441 226.259 157.441C226.004 157.441 224.888 157.441 224.771 157.441C224.634 157.441 223.851 157.441 223.596 157.441ZM228.53 150.115L227.531 145.06L226.533 150.115H228.53Z" fill="#191817"/>
<path d="M243.648 157.789C240.046 157.789 237.129 154.433 237.129 150.299C237.129 146.145 240.046 142.789 243.648 142.789C244.96 142.789 246.194 143.239 247.231 144.017V144.446C247.231 144.528 247.231 145.163 247.231 145.695C247.231 146.022 247.231 146.309 247.231 146.39C247.231 146.431 247.212 146.452 247.173 146.452C247.153 146.452 247.133 146.431 247.133 146.39C247.114 146.022 246.938 145.347 246.389 144.856C244.862 143.566 242.983 143.137 241.279 143.812C238.48 144.917 237.246 148.621 238.597 152.305C239.948 156.008 243.179 157.973 245.959 156.847C246.546 156.622 247.055 156.274 247.505 155.824L247.76 156.111C246.624 157.154 245.195 157.789 243.648 157.789Z" fill="#191817"/>
<path d="M253.782 157.339C254.194 157.339 254.957 157.175 254.957 156.254V144.324C254.957 143.403 254.194 143.239 253.782 143.239C253.763 143.239 253.743 143.198 253.743 143.178C253.743 143.157 253.763 143.137 253.782 143.137C254.037 143.137 255.956 143.137 256.073 143.137C256.191 143.137 256.993 143.137 257.228 143.137C257.267 143.137 257.287 143.157 257.287 143.178C257.287 143.198 257.267 143.239 257.228 143.239C256.837 143.239 256.073 143.403 256.073 144.324V150.299L260.204 144.324C260.889 143.321 260.263 143.239 259.852 143.239C259.832 143.239 259.813 143.198 259.813 143.178C259.813 143.157 259.832 143.137 259.852 143.137C260.106 143.137 261.222 143.137 261.34 143.137C261.457 143.137 262.26 143.137 262.514 143.137C262.534 143.137 262.554 143.157 262.554 143.178C262.554 143.198 262.534 143.239 262.514 143.239C262.103 143.239 261.222 143.3 260.517 144.324L256.621 149.951L261.007 156.254C261.692 157.277 262.593 157.339 262.984 157.339C263.023 157.339 263.043 157.38 263.043 157.4C263.043 157.42 263.023 157.441 262.984 157.441C262.749 157.441 260.831 157.441 260.694 157.441C260.576 157.441 259.773 157.441 259.539 157.441C259.499 157.441 259.48 157.42 259.48 157.4C259.48 157.38 259.499 157.339 259.539 157.339C259.93 157.339 260.557 157.257 259.871 156.254L256.073 150.749V156.254C256.073 157.175 256.837 157.339 257.228 157.339C257.267 157.339 257.287 157.38 257.287 157.4C257.287 157.42 257.267 157.441 257.228 157.441C256.993 157.441 255.075 157.441 254.957 157.441C254.82 157.441 254.037 157.441 253.782 157.441C253.763 157.441 253.743 157.42 253.743 157.4C253.743 157.38 253.763 157.339 253.782 157.339Z" fill="#191817"/>
<path d="M268.978 157.441C268.958 157.441 268.919 157.42 268.939 157.4C268.939 157.38 268.958 157.339 268.978 157.339C269.389 157.339 270.192 157.175 270.388 156.254L272.737 144.324C272.913 143.444 272.208 143.239 271.817 143.239C271.778 143.239 271.758 143.198 271.758 143.178C271.758 143.157 271.778 143.137 271.817 143.137C272.052 143.137 273.52 143.137 273.657 143.137L276.242 156.254C276.437 157.175 277.24 157.339 277.651 157.339C277.69 157.339 277.71 157.38 277.71 157.4C277.71 157.42 277.69 157.441 277.651 157.441C277.397 157.441 275.498 157.441 275.361 157.441C275.243 157.441 274.44 157.441 274.205 157.441C274.166 157.441 274.147 157.42 274.147 157.4C274.147 157.38 274.166 157.339 274.205 157.339C274.597 157.339 275.321 157.195 275.126 156.254L273.99 150.463H271.856L270.701 156.254C270.525 157.195 271.23 157.339 271.641 157.339C271.66 157.339 271.68 157.38 271.68 157.4C271.68 157.42 271.66 157.441 271.641 157.441C271.386 157.441 270.27 157.441 270.153 157.441C270.016 157.441 269.233 157.441 268.978 157.441ZM273.912 150.115L272.913 145.06L271.915 150.115H273.912Z" fill="#191817"/>
<path d="M281.564 145.429C281.525 145.408 281.525 145.388 281.545 145.367C281.682 144.631 281.838 143.751 281.897 143.464L281.975 143.137H292.234L292.313 143.464C292.371 143.751 292.528 144.631 292.665 145.367C292.685 145.388 292.685 145.408 292.646 145.429C292.626 145.429 292.587 145.429 292.587 145.388C292.45 145.06 291.765 143.464 289.885 143.464H287.673V156.254C287.673 157.175 288.436 157.339 288.828 157.339C288.867 157.339 288.887 157.38 288.887 157.4C288.887 157.42 288.867 157.441 288.828 157.441C288.593 157.441 286.674 157.441 286.537 157.441C286.42 157.441 285.617 157.441 285.382 157.441C285.343 157.441 285.323 157.42 285.323 157.4C285.323 157.38 285.343 157.339 285.382 157.339C285.774 157.339 286.537 157.175 286.537 156.254V143.464H284.325C282.445 143.464 281.76 145.06 281.623 145.388C281.623 145.429 281.584 145.429 281.564 145.429Z" fill="#191817"/>
<path d="M298.692 157.339C299.104 157.339 299.867 157.175 299.867 156.254V144.324C299.867 143.403 299.104 143.239 298.692 143.239C298.673 143.239 298.653 143.198 298.653 143.178C298.653 143.157 298.673 143.137 298.692 143.137C298.947 143.137 300.866 143.137 300.983 143.137C301.101 143.137 301.903 143.137 302.138 143.137C302.177 143.137 302.197 143.157 302.197 143.178C302.197 143.198 302.177 143.239 302.138 143.239C301.747 143.239 300.983 143.403 300.983 144.324V150.115H306.622V144.324C306.622 143.403 305.858 143.239 305.447 143.239C305.427 143.239 305.408 143.198 305.408 143.178C305.408 143.157 305.427 143.137 305.447 143.137C305.702 143.137 307.62 143.137 307.738 143.137C307.875 143.137 308.658 143.137 308.912 143.137C308.932 143.137 308.951 143.157 308.951 143.178C308.951 143.198 308.932 143.239 308.912 143.239C308.501 143.239 307.738 143.403 307.738 144.324V156.254C307.738 157.175 308.501 157.339 308.912 157.339C308.932 157.339 308.951 157.38 308.951 157.4C308.951 157.42 308.932 157.441 308.912 157.441C308.658 157.441 306.739 157.441 306.622 157.441C306.504 157.441 305.702 157.441 305.447 157.441C305.427 157.441 305.408 157.42 305.408 157.4C305.408 157.38 305.427 157.339 305.447 157.339C305.858 157.339 306.622 157.175 306.622 156.254V150.463H300.983V156.254C300.983 157.175 301.747 157.339 302.138 157.339C302.177 157.339 302.197 157.38 302.197 157.4C302.197 157.42 302.177 157.441 302.138 157.441C301.903 157.441 299.985 157.441 299.867 157.441C299.73 157.441 298.947 157.441 298.692 157.441C298.673 157.441 298.653 157.42 298.653 157.4C298.653 157.38 298.673 157.339 298.692 157.339Z" fill="#191817"/>
<path d="M321.432 157.789C317.83 157.789 314.913 154.433 314.913 150.299C314.913 146.145 317.83 142.789 321.432 142.789C325.035 142.789 327.952 146.145 327.952 150.299C327.952 154.433 325.035 157.789 321.432 157.789ZM319.122 143.73C316.322 144.835 315.03 148.621 316.381 152.305C317.732 156.008 321.021 157.891 323.801 156.766C326.601 155.661 327.834 151.957 326.484 148.273C325.133 144.569 321.902 142.605 319.122 143.73Z" fill="#191817"/>
<path d="M333.956 157.339C334.367 157.339 335.131 157.175 335.131 156.254V144.324C335.131 143.403 334.367 143.239 333.956 143.239C333.937 143.239 333.917 143.198 333.917 143.178C333.917 143.157 333.937 143.137 333.956 143.137C334.211 143.137 334.994 143.137 335.131 143.137H336.247L342.473 155.272V144.324C342.473 143.403 341.709 143.239 341.298 143.239C341.279 143.239 341.259 143.198 341.259 143.178C341.259 143.157 341.279 143.137 341.298 143.137C341.553 143.137 342.669 143.137 342.786 143.137C342.904 143.137 343.706 143.137 343.961 143.137C343.98 143.137 344 143.157 344 143.178C344 143.198 343.98 143.239 343.961 143.239C343.55 143.239 342.786 143.403 342.786 144.324V157.441H342.473L335.444 143.751V156.254C335.444 157.175 336.208 157.339 336.619 157.339C336.639 157.339 336.658 157.38 336.658 157.4C336.658 157.42 336.639 157.441 336.619 157.441C336.364 157.441 335.249 157.441 335.131 157.441C334.994 157.441 334.211 157.441 333.956 157.441C333.937 157.441 333.917 157.42 333.917 157.4C333.917 157.38 333.937 157.339 333.956 157.339Z" fill="#191817"/>
<path d="M7.51957 157.789C3.91717 157.789 1 154.433 1 150.299C1 146.145 3.91717 142.789 7.51957 142.789C8.83132 142.789 10.0648 143.239 11.1024 144.017V144.446C11.1024 144.528 11.1024 145.163 11.1024 145.695C11.1024 146.022 11.1024 146.309 11.1024 146.39C11.1024 146.431 11.0828 146.452 11.0437 146.452C11.0241 146.452 11.0045 146.431 11.0045 146.39C10.9849 146.022 10.8087 145.347 10.2605 144.856C8.73343 143.566 6.85391 143.137 5.1506 143.812C2.3509 144.917 1.11747 148.621 2.46837 152.305C3.81928 156.008 7.03012 157.953 9.82981 156.847C10.0843 156.766 10.3193 156.663 10.5346 156.541V151.302C10.5346 150.401 9.77108 150.238 9.35994 150.217C9.34036 150.217 9.32078 150.197 9.32078 150.176C9.32078 150.135 9.34036 150.115 9.35994 150.115C9.61445 150.115 11.5331 150.115 11.6506 150.115C11.7876 150.115 12.5708 150.115 12.8253 150.115C12.8449 150.115 12.8645 150.135 12.8645 150.176C12.8645 150.197 12.8449 150.217 12.8253 150.217C12.4142 150.238 11.6506 150.401 11.6506 151.302V157.441H11.3373L10.6717 156.847C9.73192 157.441 8.65512 157.789 7.51957 157.789Z" stroke="#191817" stroke-width="0.640749" mask="url(#path-26-outside-1_1305_2364)"/>
<path d="M18.5905 157.339C19.0016 157.339 19.7652 157.175 19.7652 156.254V144.324C19.7652 143.403 19.0016 143.239 18.5905 143.239C18.5709 143.239 18.5513 143.198 18.5513 143.178C18.5513 143.157 18.5709 143.137 18.5905 143.137C18.845 143.137 20.7637 143.137 20.8812 143.137C20.9986 143.137 21.8013 143.137 22.0363 143.137C22.0754 143.137 22.095 143.157 22.095 143.178C22.095 143.198 22.0754 143.239 22.0363 143.239C21.6447 143.239 20.8812 143.403 20.8812 144.324V157.114H23.6221C25.5212 157.114 26.1869 155.517 26.3239 155.19C26.3435 155.149 26.3631 155.149 26.3827 155.149C26.4218 155.169 26.4218 155.19 26.4218 155.21C26.2652 155.947 26.1086 156.827 26.0498 157.114L25.9911 157.441H19.7652C19.6281 157.441 18.845 157.441 18.5905 157.441C18.5709 157.441 18.5513 157.42 18.5513 157.4C18.5513 157.38 18.5709 157.339 18.5905 157.339Z" stroke="#191817" stroke-width="0.640749" mask="url(#path-26-outside-1_1305_2364)"/>
<path d="M38.5772 157.789C34.9748 157.789 32.0576 154.433 32.0576 150.299C32.0576 146.145 34.9748 142.789 38.5772 142.789C42.1796 142.789 45.0968 146.145 45.0968 150.299C45.0968 154.433 42.1796 157.789 38.5772 157.789ZM36.2669 143.73C33.4673 144.835 32.1751 148.621 33.526 152.305C34.8769 156.008 38.166 157.891 40.9462 156.766C43.7459 155.661 44.9793 151.957 43.6284 148.273C42.2775 144.569 39.0471 142.605 36.2669 143.73Z" stroke="#191817" stroke-width="0.640749" mask="url(#path-26-outside-1_1305_2364)"/>
<path d="M51.1012 157.339C51.5123 157.339 52.2759 157.175 52.2759 156.254V144.324C52.2759 143.403 51.5123 143.239 51.1012 143.239C51.0816 143.239 51.062 143.198 51.062 143.178C51.062 143.157 51.0816 143.137 51.1012 143.137C51.3557 143.137 53.2352 143.137 53.3527 143.137C53.9205 143.137 54.547 143.137 55.0364 143.137C58.4626 143.137 60.4988 143.894 60.4988 145.92C60.4988 147.966 57.9927 148.662 55.7021 149.255C58.6976 149.337 61.0861 150.852 61.0861 153.512C61.0861 156.111 58.678 157.789 55.565 157.789C54.6253 157.789 53.6855 157.461 52.8241 157.461H52.2759C52.1388 157.461 51.3557 157.461 51.1012 157.461C51.0816 157.461 51.062 157.42 51.062 157.4C51.062 157.38 51.0816 157.339 51.1012 157.339ZM59.8918 153.573C59.8918 151.425 58.0711 149.583 55.428 149.583C54.7232 149.583 54.0379 149.685 53.3918 149.91V155.579C53.3918 157.339 54.4491 157.461 55.7804 157.461C57.6012 157.461 59.8918 156.213 59.8918 153.573ZM59.3828 146.022C59.3828 144.303 57.8361 143.464 55.0364 143.464C54.4491 143.464 53.9596 143.464 53.3918 143.464V149.603C55.7412 148.703 59.3828 148.56 59.3828 146.022Z" stroke="#191817" stroke-width="0.640749" mask="url(#path-26-outside-1_1305_2364)"/>
<path d="M66.4497 157.441C66.4301 157.441 66.3909 157.42 66.4105 157.4C66.4105 157.38 66.4301 157.339 66.4497 157.339C66.8608 157.339 67.6635 157.175 67.8593 156.254L70.2087 144.324C70.3849 143.444 69.6801 143.239 69.2885 143.239C69.2494 143.239 69.2298 143.198 69.2298 143.178C69.2298 143.157 69.2494 143.137 69.2885 143.137C69.5235 143.137 70.9918 143.137 71.1289 143.137L73.7132 156.254C73.909 157.175 74.7117 157.339 75.1228 157.339C75.162 157.339 75.1816 157.38 75.1816 157.4C75.1816 157.42 75.162 157.441 75.1228 157.441C74.8683 157.441 72.9692 157.441 72.8322 157.441C72.7147 157.441 71.912 157.441 71.6771 157.441C71.6379 157.441 71.6183 157.42 71.6183 157.4C71.6183 157.38 71.6379 157.339 71.6771 157.339C72.0686 157.339 72.793 157.195 72.5972 156.254L71.4617 150.463H69.3277L68.1725 156.254C67.9963 157.195 68.7012 157.339 69.1123 157.339C69.1319 157.339 69.1515 157.38 69.1515 157.4C69.1515 157.42 69.1319 157.441 69.1123 157.441C68.8578 157.441 67.7418 157.441 67.6244 157.441C67.4873 157.441 66.7042 157.441 66.4497 157.441ZM71.3834 150.115L70.3849 145.06L69.3864 150.115H71.3834Z" stroke="#191817" stroke-width="0.640749" mask="url(#path-26-outside-1_1305_2364)"/>
<path d="M81.2028 157.339C81.614 157.339 82.3775 157.175 82.3775 156.254V144.324C82.3775 143.403 81.614 143.239 81.2028 143.239C81.1833 143.239 81.1637 143.198 81.1637 143.178C81.1637 143.157 81.1833 143.137 81.2028 143.137C81.4573 143.137 83.376 143.137 83.4935 143.137C83.611 143.137 84.4137 143.137 84.6486 143.137C84.6878 143.137 84.7073 143.157 84.7073 143.178C84.7073 143.198 84.6878 143.239 84.6486 143.239C84.257 143.239 83.4935 143.403 83.4935 144.324V157.114H86.2345C88.1335 157.114 88.7992 155.517 88.9363 155.19C88.9558 155.149 88.9754 155.149 88.995 155.149C89.0341 155.169 89.0341 155.19 89.0341 155.21C88.8775 155.947 88.7209 156.827 88.6622 157.114L88.6034 157.441H82.3775C82.2405 157.441 81.4573 157.441 81.2028 157.441C81.1833 157.441 81.1637 157.42 81.1637 157.4C81.1637 157.38 81.1833 157.339 81.2028 157.339Z" stroke="#191817" stroke-width="0.640749" mask="url(#path-26-outside-1_1305_2364)"/>
<path d="M113.372 157.789C109.77 157.789 106.853 154.433 106.853 150.299C106.853 146.145 109.77 142.789 113.372 142.789C116.975 142.789 119.892 146.145 119.892 150.299C119.892 154.433 116.975 157.789 113.372 157.789ZM111.062 143.73C108.262 144.835 106.97 148.621 108.321 152.305C109.672 156.008 112.961 157.891 115.741 156.766C118.541 155.661 119.775 151.957 118.424 148.273C117.073 144.569 113.842 142.605 111.062 143.73Z" stroke="#191817" stroke-width="0.640749" mask="url(#path-26-outside-1_1305_2364)"/>
<path d="M125.896 157.339C126.308 157.339 127.071 157.175 127.071 156.254V144.324C127.071 143.403 126.308 143.239 125.896 143.239C125.877 143.239 125.857 143.198 125.857 143.178C125.857 143.157 125.877 143.137 125.896 143.137C126.151 143.137 126.934 143.137 127.071 143.137H128.187L134.413 155.272V144.324C134.413 143.403 133.649 143.239 133.238 143.239C133.219 143.239 133.199 143.198 133.199 143.178C133.199 143.157 133.219 143.137 133.238 143.137C133.493 143.137 134.609 143.137 134.726 143.137C134.844 143.137 135.646 143.137 135.901 143.137C135.921 143.137 135.94 143.157 135.94 143.178C135.94 143.198 135.921 143.239 135.901 143.239C135.49 143.239 134.726 143.403 134.726 144.324V157.441H134.413L127.384 143.751V156.254C127.384 157.175 128.148 157.339 128.559 157.339C128.579 157.339 128.598 157.38 128.598 157.4C128.598 157.42 128.579 157.441 128.559 157.441C128.305 157.441 127.189 157.441 127.071 157.441C126.934 157.441 126.151 157.441 125.896 157.441C125.877 157.441 125.857 157.42 125.857 157.4C125.857 157.38 125.877 157.339 125.896 157.339Z" stroke="#191817" stroke-width="0.640749" mask="url(#path-26-outside-1_1305_2364)"/>
<path d="M142.056 157.339C142.467 157.339 143.231 157.175 143.231 156.254V144.324C143.231 143.403 142.467 143.239 142.056 143.239C142.037 143.239 142.017 143.198 142.017 143.178C142.017 143.157 142.037 143.137 142.056 143.137C142.311 143.137 144.229 143.137 144.347 143.137C144.464 143.137 145.267 143.137 145.502 143.137C145.541 143.137 145.561 143.157 145.561 143.178C145.561 143.198 145.541 143.239 145.502 143.239C145.11 143.239 144.347 143.403 144.347 144.324V157.114H147.088C148.987 157.114 149.653 155.517 149.79 155.19C149.809 155.149 149.829 155.149 149.848 155.149C149.887 155.169 149.887 155.19 149.887 155.21C149.731 155.947 149.574 156.827 149.516 157.114L149.457 157.441H143.231C143.094 157.441 142.311 157.441 142.056 157.441C142.037 157.441 142.017 157.42 142.017 157.4C142.017 157.38 142.037 157.339 142.056 157.339Z" stroke="#191817" stroke-width="0.640749" mask="url(#path-26-outside-1_1305_2364)"/>
<path d="M155.769 157.339C156.18 157.339 156.943 157.175 156.943 156.254V144.324C156.943 143.403 156.18 143.239 155.769 143.239C155.749 143.239 155.729 143.198 155.729 143.178C155.729 143.157 155.749 143.137 155.769 143.137C156.023 143.137 157.942 143.137 158.059 143.137C158.177 143.137 158.979 143.137 159.214 143.137C159.254 143.137 159.273 143.157 159.273 143.178C159.273 143.198 159.254 143.239 159.214 143.239C158.823 143.239 158.059 143.403 158.059 144.324V156.254C158.059 157.175 158.823 157.339 159.214 157.339C159.254 157.339 159.273 157.38 159.273 157.4C159.273 157.42 159.254 157.441 159.214 157.441C158.979 157.441 157.061 157.441 156.943 157.441C156.806 157.441 156.023 157.441 155.769 157.441C155.749 157.441 155.729 157.42 155.729 157.4C155.729 157.38 155.749 157.339 155.769 157.339Z" stroke="#191817" stroke-width="0.640749" mask="url(#path-26-outside-1_1305_2364)"/>
<path d="M165.409 157.339C165.82 157.339 166.583 157.175 166.583 156.254V144.324C166.583 143.403 165.82 143.239 165.409 143.239C165.389 143.239 165.369 143.198 165.369 143.178C165.369 143.157 165.389 143.137 165.409 143.137C165.663 143.137 166.446 143.137 166.583 143.137H167.699L173.925 155.272V144.324C173.925 143.403 173.162 143.239 172.751 143.239C172.731 143.239 172.711 143.198 172.711 143.178C172.711 143.157 172.731 143.137 172.751 143.137C173.005 143.137 174.121 143.137 174.238 143.137C174.356 143.137 175.159 143.137 175.413 143.137C175.433 143.137 175.452 143.157 175.452 143.178C175.452 143.198 175.433 143.239 175.413 143.239C175.002 143.239 174.238 143.403 174.238 144.324V157.441H173.925L166.897 143.751V156.254C166.897 157.175 167.66 157.339 168.071 157.339C168.091 157.339 168.11 157.38 168.11 157.4C168.11 157.42 168.091 157.441 168.071 157.441C167.817 157.441 166.701 157.441 166.583 157.441C166.446 157.441 165.663 157.441 165.409 157.441C165.389 157.441 165.369 157.42 165.369 157.4C165.369 157.38 165.389 157.339 165.409 157.339Z" stroke="#191817" stroke-width="0.640749" mask="url(#path-26-outside-1_1305_2364)"/>
<path d="M181.568 157.339C181.98 157.339 182.743 157.175 182.743 156.254V144.324C182.743 143.403 181.98 143.239 181.568 143.239C181.549 143.239 181.529 143.198 181.529 143.178C181.529 143.157 181.549 143.137 181.568 143.137C181.823 143.137 188.323 143.137 188.44 143.137L188.499 143.464C188.558 143.751 188.714 144.631 188.871 145.367C188.871 145.388 188.871 145.408 188.832 145.429C188.812 145.429 188.793 145.429 188.773 145.388C188.636 145.06 187.971 143.464 186.071 143.464H183.859V150.115H186.111C186.972 150.115 187.129 149.317 187.148 148.908C187.148 148.867 187.168 148.846 187.187 148.846C187.207 148.846 187.246 148.867 187.246 148.908C187.246 149.153 187.246 150.32 187.246 150.463C187.246 150.586 187.246 151.425 187.246 151.67C187.246 151.711 187.207 151.732 187.187 151.732C187.168 151.732 187.148 151.711 187.148 151.67C187.129 151.261 186.972 150.463 186.111 150.463H183.859V157.114H186.6C188.499 157.114 189.165 155.517 189.302 155.19C189.321 155.149 189.341 155.149 189.361 155.149C189.4 155.169 189.4 155.19 189.4 155.21C189.243 155.947 189.086 156.827 189.028 157.114L188.969 157.441H182.743C182.606 157.441 181.823 157.441 181.568 157.441C181.549 157.441 181.529 157.42 181.529 157.4C181.529 157.38 181.549 157.339 181.568 157.339Z" stroke="#191817" stroke-width="0.640749" mask="url(#path-26-outside-1_1305_2364)"/>
<path d="M207.311 157.339C207.722 157.339 208.486 157.175 208.486 156.254V144.324C208.486 143.403 207.722 143.239 207.311 143.239C207.291 143.239 207.272 143.198 207.272 143.178C207.272 143.157 207.291 143.137 207.311 143.137C207.565 143.137 209.484 143.137 209.601 143.137C209.719 143.137 210.522 143.137 210.757 143.137C210.796 143.137 210.815 143.157 210.815 143.178C210.815 143.198 210.796 143.239 210.757 143.239C210.365 143.239 209.601 143.403 209.601 144.324V150.115H215.24V144.324C215.24 143.403 214.476 143.239 214.065 143.239C214.046 143.239 214.026 143.198 214.026 143.178C214.026 143.157 214.046 143.137 214.065 143.137C214.32 143.137 216.239 143.137 216.356 143.137C216.493 143.137 217.276 143.137 217.531 143.137C217.55 143.137 217.57 143.157 217.57 143.178C217.57 143.198 217.55 143.239 217.531 143.239C217.12 143.239 216.356 143.403 216.356 144.324V156.254C216.356 157.175 217.12 157.339 217.531 157.339C217.55 157.339 217.57 157.38 217.57 157.4C217.57 157.42 217.55 157.441 217.531 157.441C217.276 157.441 215.357 157.441 215.24 157.441C215.123 157.441 214.32 157.441 214.065 157.441C214.046 157.441 214.026 157.42 214.026 157.4C214.026 157.38 214.046 157.339 214.065 157.339C214.476 157.339 215.24 157.175 215.24 156.254V150.463H209.601V156.254C209.601 157.175 210.365 157.339 210.757 157.339C210.796 157.339 210.815 157.38 210.815 157.4C210.815 157.42 210.796 157.441 210.757 157.441C210.522 157.441 208.603 157.441 208.486 157.441C208.348 157.441 207.565 157.441 207.311 157.441C207.291 157.441 207.272 157.42 207.272 157.4C207.272 157.38 207.291 157.339 207.311 157.339Z" stroke="#191817" stroke-width="0.640749" mask="url(#path-26-outside-1_1305_2364)"/>
<path d="M223.596 157.441C223.577 157.441 223.537 157.42 223.557 157.4C223.557 157.38 223.577 157.339 223.596 157.339C224.007 157.339 224.81 157.175 225.006 156.254L227.355 144.324C227.531 143.444 226.827 143.239 226.435 143.239C226.396 143.239 226.376 143.198 226.376 143.178C226.376 143.157 226.396 143.137 226.435 143.137C226.67 143.137 228.138 143.137 228.275 143.137L230.86 156.254C231.055 157.175 231.858 157.339 232.269 157.339C232.308 157.339 232.328 157.38 232.328 157.4C232.328 157.42 232.308 157.441 232.269 157.441C232.015 157.441 230.116 157.441 229.979 157.441C229.861 157.441 229.058 157.441 228.824 157.441C228.784 157.441 228.765 157.42 228.765 157.4C228.765 157.38 228.784 157.339 228.824 157.339C229.215 157.339 229.939 157.195 229.744 156.254L228.608 150.463H226.474L225.319 156.254C225.143 157.195 225.848 157.339 226.259 157.339C226.278 157.339 226.298 157.38 226.298 157.4C226.298 157.42 226.278 157.441 226.259 157.441C226.004 157.441 224.888 157.441 224.771 157.441C224.634 157.441 223.851 157.441 223.596 157.441ZM228.53 150.115L227.531 145.06L226.533 150.115H228.53Z" stroke="#191817" stroke-width="0.640749" mask="url(#path-26-outside-1_1305_2364)"/>
<path d="M243.648 157.789C240.046 157.789 237.129 154.433 237.129 150.299C237.129 146.145 240.046 142.789 243.648 142.789C244.96 142.789 246.194 143.239 247.231 144.017V144.446C247.231 144.528 247.231 145.163 247.231 145.695C247.231 146.022 247.231 146.309 247.231 146.39C247.231 146.431 247.212 146.452 247.173 146.452C247.153 146.452 247.133 146.431 247.133 146.39C247.114 146.022 246.938 145.347 246.389 144.856C244.862 143.566 242.983 143.137 241.279 143.812C238.48 144.917 237.246 148.621 238.597 152.305C239.948 156.008 243.179 157.973 245.959 156.847C246.546 156.622 247.055 156.274 247.505 155.824L247.76 156.111C246.624 157.154 245.195 157.789 243.648 157.789Z" stroke="#191817" stroke-width="0.640749" mask="url(#path-26-outside-1_1305_2364)"/>
<path d="M253.782 157.339C254.194 157.339 254.957 157.175 254.957 156.254V144.324C254.957 143.403 254.194 143.239 253.782 143.239C253.763 143.239 253.743 143.198 253.743 143.178C253.743 143.157 253.763 143.137 253.782 143.137C254.037 143.137 255.956 143.137 256.073 143.137C256.191 143.137 256.993 143.137 257.228 143.137C257.267 143.137 257.287 143.157 257.287 143.178C257.287 143.198 257.267 143.239 257.228 143.239C256.837 143.239 256.073 143.403 256.073 144.324V150.299L260.204 144.324C260.889 143.321 260.263 143.239 259.852 143.239C259.832 143.239 259.813 143.198 259.813 143.178C259.813 143.157 259.832 143.137 259.852 143.137C260.106 143.137 261.222 143.137 261.34 143.137C261.457 143.137 262.26 143.137 262.514 143.137C262.534 143.137 262.554 143.157 262.554 143.178C262.554 143.198 262.534 143.239 262.514 143.239C262.103 143.239 261.222 143.3 260.517 144.324L256.621 149.951L261.007 156.254C261.692 157.277 262.593 157.339 262.984 157.339C263.023 157.339 263.043 157.38 263.043 157.4C263.043 157.42 263.023 157.441 262.984 157.441C262.749 157.441 260.831 157.441 260.694 157.441C260.576 157.441 259.773 157.441 259.539 157.441C259.499 157.441 259.48 157.42 259.48 157.4C259.48 157.38 259.499 157.339 259.539 157.339C259.93 157.339 260.557 157.257 259.871 156.254L256.073 150.749V156.254C256.073 157.175 256.837 157.339 257.228 157.339C257.267 157.339 257.287 157.38 257.287 157.4C257.287 157.42 257.267 157.441 257.228 157.441C256.993 157.441 255.075 157.441 254.957 157.441C254.82 157.441 254.037 157.441 253.782 157.441C253.763 157.441 253.743 157.42 253.743 157.4C253.743 157.38 253.763 157.339 253.782 157.339Z" stroke="#191817" stroke-width="0.640749" mask="url(#path-26-outside-1_1305_2364)"/>
<path d="M268.978 157.441C268.958 157.441 268.919 157.42 268.939 157.4C268.939 157.38 268.958 157.339 268.978 157.339C269.389 157.339 270.192 157.175 270.388 156.254L272.737 144.324C272.913 143.444 272.208 143.239 271.817 143.239C271.778 143.239 271.758 143.198 271.758 143.178C271.758 143.157 271.778 143.137 271.817 143.137C272.052 143.137 273.52 143.137 273.657 143.137L276.242 156.254C276.437 157.175 277.24 157.339 277.651 157.339C277.69 157.339 277.71 157.38 277.71 157.4C277.71 157.42 277.69 157.441 277.651 157.441C277.397 157.441 275.498 157.441 275.361 157.441C275.243 157.441 274.44 157.441 274.205 157.441C274.166 157.441 274.147 157.42 274.147 157.4C274.147 157.38 274.166 157.339 274.205 157.339C274.597 157.339 275.321 157.195 275.126 156.254L273.99 150.463H271.856L270.701 156.254C270.525 157.195 271.23 157.339 271.641 157.339C271.66 157.339 271.68 157.38 271.68 157.4C271.68 157.42 271.66 157.441 271.641 157.441C271.386 157.441 270.27 157.441 270.153 157.441C270.016 157.441 269.233 157.441 268.978 157.441ZM273.912 150.115L272.913 145.06L271.915 150.115H273.912Z" stroke="#191817" stroke-width="0.640749" mask="url(#path-26-outside-1_1305_2364)"/>
<path d="M281.564 145.429C281.525 145.408 281.525 145.388 281.545 145.367C281.682 144.631 281.838 143.751 281.897 143.464L281.975 143.137H292.234L292.313 143.464C292.371 143.751 292.528 144.631 292.665 145.367C292.685 145.388 292.685 145.408 292.646 145.429C292.626 145.429 292.587 145.429 292.587 145.388C292.45 145.06 291.765 143.464 289.885 143.464H287.673V156.254C287.673 157.175 288.436 157.339 288.828 157.339C288.867 157.339 288.887 157.38 288.887 157.4C288.887 157.42 288.867 157.441 288.828 157.441C288.593 157.441 286.674 157.441 286.537 157.441C286.42 157.441 285.617 157.441 285.382 157.441C285.343 157.441 285.323 157.42 285.323 157.4C285.323 157.38 285.343 157.339 285.382 157.339C285.774 157.339 286.537 157.175 286.537 156.254V143.464H284.325C282.445 143.464 281.76 145.06 281.623 145.388C281.623 145.429 281.584 145.429 281.564 145.429Z" stroke="#191817" stroke-width="0.640749" mask="url(#path-26-outside-1_1305_2364)"/>
<path d="M298.692 157.339C299.104 157.339 299.867 157.175 299.867 156.254V144.324C299.867 143.403 299.104 143.239 298.692 143.239C298.673 143.239 298.653 143.198 298.653 143.178C298.653 143.157 298.673 143.137 298.692 143.137C298.947 143.137 300.866 143.137 300.983 143.137C301.101 143.137 301.903 143.137 302.138 143.137C302.177 143.137 302.197 143.157 302.197 143.178C302.197 143.198 302.177 143.239 302.138 143.239C301.747 143.239 300.983 143.403 300.983 144.324V150.115H306.622V144.324C306.622 143.403 305.858 143.239 305.447 143.239C305.427 143.239 305.408 143.198 305.408 143.178C305.408 143.157 305.427 143.137 305.447 143.137C305.702 143.137 307.62 143.137 307.738 143.137C307.875 143.137 308.658 143.137 308.912 143.137C308.932 143.137 308.951 143.157 308.951 143.178C308.951 143.198 308.932 143.239 308.912 143.239C308.501 143.239 307.738 143.403 307.738 144.324V156.254C307.738 157.175 308.501 157.339 308.912 157.339C308.932 157.339 308.951 157.38 308.951 157.4C308.951 157.42 308.932 157.441 308.912 157.441C308.658 157.441 306.739 157.441 306.622 157.441C306.504 157.441 305.702 157.441 305.447 157.441C305.427 157.441 305.408 157.42 305.408 157.4C305.408 157.38 305.427 157.339 305.447 157.339C305.858 157.339 306.622 157.175 306.622 156.254V150.463H300.983V156.254C300.983 157.175 301.747 157.339 302.138 157.339C302.177 157.339 302.197 157.38 302.197 157.4C302.197 157.42 302.177 157.441 302.138 157.441C301.903 157.441 299.985 157.441 299.867 157.441C299.73 157.441 298.947 157.441 298.692 157.441C298.673 157.441 298.653 157.42 298.653 157.4C298.653 157.38 298.673 157.339 298.692 157.339Z" stroke="#191817" stroke-width="0.640749" mask="url(#path-26-outside-1_1305_2364)"/>
<path d="M321.432 157.789C317.83 157.789 314.913 154.433 314.913 150.299C314.913 146.145 317.83 142.789 321.432 142.789C325.035 142.789 327.952 146.145 327.952 150.299C327.952 154.433 325.035 157.789 321.432 157.789ZM319.122 143.73C316.322 144.835 315.03 148.621 316.381 152.305C317.732 156.008 321.021 157.891 323.801 156.766C326.601 155.661 327.834 151.957 326.484 148.273C325.133 144.569 321.902 142.605 319.122 143.73Z" stroke="#191817" stroke-width="0.640749" mask="url(#path-26-outside-1_1305_2364)"/>
<path d="M333.956 157.339C334.367 157.339 335.131 157.175 335.131 156.254V144.324C335.131 143.403 334.367 143.239 333.956 143.239C333.937 143.239 333.917 143.198 333.917 143.178C333.917 143.157 333.937 143.137 333.956 143.137C334.211 143.137 334.994 143.137 335.131 143.137H336.247L342.473 155.272V144.324C342.473 143.403 341.709 143.239 341.298 143.239C341.279 143.239 341.259 143.198 341.259 143.178C341.259 143.157 341.279 143.137 341.298 143.137C341.553 143.137 342.669 143.137 342.786 143.137C342.904 143.137 343.706 143.137 343.961 143.137C343.98 143.137 344 143.157 344 143.178C344 143.198 343.98 143.239 343.961 143.239C343.55 143.239 342.786 143.403 342.786 144.324V157.441H342.473L335.444 143.751V156.254C335.444 157.175 336.208 157.339 336.619 157.339C336.639 157.339 336.658 157.38 336.658 157.4C336.658 157.42 336.639 157.441 336.619 157.441C336.364 157.441 335.249 157.441 335.131 157.441C334.994 157.441 334.211 157.441 333.956 157.441C333.937 157.441 333.917 157.42 333.917 157.4C333.917 157.38 333.937 157.339 333.956 157.339Z" stroke="#191817" stroke-width="0.640749" mask="url(#path-26-outside-1_1305_2364)"/>
</svg>
