<svg width="46" height="24" viewBox="0 0 46 24" fill="none" xmlns="http://www.w3.org/2000/svg">
<path d="M22.077 20.483L22.077 4.30527C22.0769 4.1968 22.0517 4.08951 22.003 3.99011C21.9543 3.8907 21.8831 3.80132 21.7939 3.7275L17.6877 0.314753C17.6243 0.261212 17.5445 0.225583 17.4584 0.212294C17.3723 0.199004 17.2837 0.208634 17.2037 0.240219C17.1238 0.271613 17.0561 0.323614 17.0092 0.389288C16.9623 0.454962 16.9382 0.531615 16.94 0.609423L16.94 16.7872C16.9401 16.8957 16.9653 17.003 17.014 17.1024C17.0627 17.2018 17.1339 17.2911 17.2231 17.365L21.3293 20.7739C21.3928 20.8263 21.4721 20.8611 21.5575 20.874C21.6428 20.8869 21.7306 20.8773 21.8099 20.8464C21.8893 20.8156 21.9568 20.7648 22.0042 20.7002C22.0517 20.6357 22.077 20.5602 22.077 20.483Z" fill="#191817"/>
<path d="M21.3891 21.025L8.92985 10.706C8.84638 10.6368 8.77983 10.5489 8.73435 10.448C8.68884 10.3471 8.66542 10.2352 8.66545 10.1195L8.65627 4.78027C8.65549 4.69727 8.67895 4.61309 8.72364 4.53829C8.76834 4.46349 8.83227 4.4014 8.90758 4.35998C8.98274 4.31845 9.06597 4.29948 9.14648 4.30523C9.227 4.31097 9.30139 4.34131 9.36016 4.39233L21.8194 14.7113C21.9029 14.7806 21.9695 14.8685 22.0149 14.9694C22.0604 15.0703 22.0839 15.1821 22.0838 15.2979L22.09 20.6346C22.0899 20.717 22.0661 20.8003 22.0216 20.8742C21.9771 20.9482 21.9138 21.0097 21.8394 21.0511C21.765 21.0925 21.6828 21.1121 21.6028 21.1075C21.5228 21.1029 21.4486 21.0742 21.3891 21.025Z" fill="#191817"/>
<path d="M18.7388 23.0103L6.27949 12.6913C6.19589 12.6222 6.09717 12.5732 5.98955 12.5473C5.88193 12.5214 5.76768 12.5192 5.65394 12.5408L0.388862 12.5406C0.307171 12.5553 0.228835 12.594 0.163669 12.6519C0.0985029 12.7097 0.0494058 12.7841 0.0227461 12.8658C-0.00406177 12.9474 -0.00719068 13.0327 0.0134509 13.1107C0.0340923 13.1888 0.0777651 13.2562 0.138839 13.3045L12.5981 23.6234C12.6817 23.6925 12.7804 23.7416 12.8881 23.7675C12.9957 23.7934 13.1099 23.7956 13.2237 23.7739L18.4858 23.7717C18.5667 23.7563 18.6441 23.7174 18.7084 23.6598C18.7728 23.6023 18.8214 23.5287 18.8483 23.4479C18.8751 23.367 18.879 23.2826 18.8596 23.2049C18.8402 23.1272 18.7982 23.0596 18.7388 23.0103Z" fill="#191817"/>
<path d="M24.4152 20.483L24.4152 4.30527C24.4153 4.1968 24.4405 4.08951 24.4892 3.99011C24.5379 3.8907 24.6091 3.80132 24.6983 3.7275L28.8045 0.314753C28.8679 0.261212 28.9477 0.225583 29.0338 0.212294C29.1199 0.199004 29.2085 0.208634 29.2884 0.240219C29.3684 0.271613 29.4361 0.323614 29.483 0.389288C29.5299 0.454962 29.554 0.531615 29.5522 0.609423L29.5522 16.7872C29.5521 16.8957 29.5269 17.003 29.4782 17.1024C29.4295 17.2018 29.3583 17.2911 29.2691 17.365L25.1629 20.7739C25.0994 20.8263 25.0201 20.8611 24.9347 20.874C24.8494 20.8869 24.7616 20.8773 24.6823 20.8464C24.6029 20.8156 24.5354 20.7648 24.4879 20.7002C24.4405 20.6357 24.4152 20.5602 24.4152 20.483Z" fill="#191817"/>
<path d="M25.1031 21.025L37.5623 10.706C37.6458 10.6368 37.7124 10.5489 37.7578 10.448C37.8033 10.3471 37.8268 10.2352 37.8267 10.1195L37.8359 4.78027C37.8367 4.69727 37.8132 4.61309 37.7685 4.53829C37.7238 4.46349 37.6599 4.4014 37.5846 4.35998C37.5094 4.31845 37.4262 4.29948 37.3457 4.30523C37.2652 4.31097 37.1908 4.34131 37.132 4.39233L24.6727 14.7113C24.5893 14.7806 24.5227 14.8685 24.4773 14.9694C24.4318 15.0703 24.4083 15.1821 24.4084 15.2979L24.4021 20.6346C24.4023 20.717 24.4261 20.8003 24.4706 20.8742C24.5151 20.9482 24.5784 21.0097 24.6528 21.0511C24.7272 21.0925 24.8094 21.1121 24.8894 21.1075C24.9694 21.1029 25.0436 21.0742 25.1031 21.025Z" fill="#191817"/>
<path d="M27.2658 23.0152L39.7251 12.6962C39.8087 12.6271 39.9074 12.5781 40.015 12.5522C40.1227 12.5263 40.2369 12.5241 40.3506 12.5457L45.6157 12.5455C45.6974 12.5602 45.7757 12.5989 45.8409 12.6568C45.9061 12.7146 45.9552 12.789 45.9818 12.8707C46.0086 12.9523 46.0118 13.0376 45.9911 13.1156C45.9705 13.1937 45.9268 13.2611 45.8657 13.3093L33.4065 23.6283C33.3228 23.6974 33.2241 23.7464 33.1165 23.7723C33.0089 23.7982 32.8946 23.8004 32.7809 23.7788L27.5188 23.7766C27.4379 23.7611 27.3605 23.7222 27.2961 23.6647C27.2317 23.6072 27.1832 23.5335 27.1563 23.4527C27.1295 23.3719 27.1255 23.2875 27.145 23.2098C27.1644 23.1321 27.2064 23.0645 27.2658 23.0152Z" fill="#191817"/>
</svg>
