<svg width="400" height="404" viewBox="0 0 400 404" fill="none" xmlns="http://www.w3.org/2000/svg">
<g clip-path="url(#clip0_2001_1971)">
<rect x="-6.1792" y="-4.51514" width="59.0772" height="59.0772" stroke="#C4B4B0" stroke-opacity="0.3" stroke-width="0.532227"/>
<rect x="52.8989" y="-4.51514" width="59.0772" height="59.0772" stroke="#C4B4B0" stroke-opacity="0.3" stroke-width="0.532227"/>
<rect x="111.977" y="-4.51514" width="59.0772" height="59.0772" stroke="#C4B4B0" stroke-opacity="0.3" stroke-width="0.532227"/>
<rect x="171.055" y="-4.51514" width="59.0772" height="59.0772" stroke="#C4B4B0" stroke-opacity="0.3" stroke-width="0.532227"/>
<rect x="230.133" y="-4.51514" width="59.0772" height="59.0772" stroke="#C4B4B0" stroke-opacity="0.3" stroke-width="0.532227"/>
<rect x="289.211" y="-4.51514" width="59.0772" height="59.0772" stroke="#C4B4B0" stroke-opacity="0.3" stroke-width="0.532227"/>
<rect x="348.29" y="-4.51514" width="59.0772" height="59.0772" stroke="#C4B4B0" stroke-opacity="0.3" stroke-width="0.532227"/>
<rect x="-6.1792" y="55.0942" width="59.0772" height="59.0772" stroke="#C4B4B0" stroke-opacity="0.3" stroke-width="0.532227"/>
<rect x="52.8989" y="55.0942" width="59.0772" height="59.0772" stroke="#C4B4B0" stroke-opacity="0.3" stroke-width="0.532227"/>
<rect x="111.977" y="55.0942" width="59.0772" height="59.0772" stroke="#C4B4B0" stroke-opacity="0.3" stroke-width="0.532227"/>
<rect x="171.055" y="55.0942" width="59.0772" height="59.0772" stroke="#C4B4B0" stroke-opacity="0.3" stroke-width="0.532227"/>
<rect x="230.133" y="55.0942" width="59.0772" height="59.0772" stroke="#C4B4B0" stroke-opacity="0.3" stroke-width="0.532227"/>
<rect x="289.211" y="55.0942" width="59.0772" height="59.0772" stroke="#C4B4B0" stroke-opacity="0.3" stroke-width="0.532227"/>
<rect x="348.29" y="55.0942" width="59.0772" height="59.0772" stroke="#C4B4B0" stroke-opacity="0.3" stroke-width="0.532227"/>
<rect x="-6.1792" y="114.704" width="59.0772" height="59.0772" stroke="#C4B4B0" stroke-opacity="0.3" stroke-width="0.532227"/>
<rect x="52.8989" y="114.704" width="59.0772" height="59.0772" stroke="#C4B4B0" stroke-opacity="0.3" stroke-width="0.532227"/>
<rect x="111.977" y="114.704" width="59.0772" height="59.0772" stroke="#C4B4B0" stroke-opacity="0.3" stroke-width="0.532227"/>
<rect x="171.055" y="114.704" width="59.0772" height="59.0772" stroke="#C4B4B0" stroke-opacity="0.3" stroke-width="0.532227"/>
<rect x="230.133" y="114.704" width="59.0772" height="59.0772" stroke="#C4B4B0" stroke-opacity="0.3" stroke-width="0.532227"/>
<rect x="289.211" y="114.704" width="59.0772" height="59.0772" stroke="#C4B4B0" stroke-opacity="0.3" stroke-width="0.532227"/>
<rect x="348.29" y="114.704" width="59.0772" height="59.0772" stroke="#C4B4B0" stroke-opacity="0.3" stroke-width="0.532227"/>
<rect x="-6.1792" y="174.313" width="59.0772" height="59.0772" stroke="#C4B4B0" stroke-opacity="0.3" stroke-width="0.532227"/>
<rect x="52.8989" y="174.313" width="59.0772" height="59.0772" stroke="#C4B4B0" stroke-opacity="0.3" stroke-width="0.532227"/>
<rect x="111.977" y="174.313" width="59.0772" height="59.0772" stroke="#C4B4B0" stroke-opacity="0.3" stroke-width="0.532227"/>
<rect x="171.055" y="174.313" width="59.0772" height="59.0772" stroke="#C4B4B0" stroke-opacity="0.3" stroke-width="0.532227"/>
<rect x="230.133" y="174.313" width="59.0772" height="59.0772" stroke="#C4B4B0" stroke-opacity="0.3" stroke-width="0.532227"/>
<rect x="289.211" y="174.313" width="59.0772" height="59.0772" stroke="#C4B4B0" stroke-opacity="0.3" stroke-width="0.532227"/>
<rect x="348.29" y="174.313" width="59.0772" height="59.0772" stroke="#C4B4B0" stroke-opacity="0.3" stroke-width="0.532227"/>
<rect x="-6.1792" y="233.922" width="59.0772" height="59.0772" stroke="#C4B4B0" stroke-opacity="0.3" stroke-width="0.532227"/>
<rect x="52.8989" y="233.922" width="59.0772" height="59.0772" stroke="#C4B4B0" stroke-opacity="0.3" stroke-width="0.532227"/>
<rect x="111.977" y="233.922" width="59.0772" height="59.0772" stroke="#C4B4B0" stroke-opacity="0.3" stroke-width="0.532227"/>
<rect x="171.055" y="233.922" width="59.0772" height="59.0772" stroke="#C4B4B0" stroke-opacity="0.3" stroke-width="0.532227"/>
<rect x="230.133" y="233.922" width="59.0772" height="59.0772" stroke="#C4B4B0" stroke-opacity="0.3" stroke-width="0.532227"/>
<rect x="289.211" y="233.922" width="59.0772" height="59.0772" stroke="#C4B4B0" stroke-opacity="0.3" stroke-width="0.532227"/>
<rect x="348.29" y="233.922" width="59.0772" height="59.0772" stroke="#C4B4B0" stroke-opacity="0.3" stroke-width="0.532227"/>
<rect x="-6.1792" y="293.532" width="59.0772" height="59.0772" stroke="#C4B4B0" stroke-opacity="0.3" stroke-width="0.532227"/>
<rect x="52.8989" y="293.532" width="59.0772" height="59.0772" stroke="#C4B4B0" stroke-opacity="0.3" stroke-width="0.532227"/>
<rect x="111.977" y="293.532" width="59.0772" height="59.0772" stroke="#C4B4B0" stroke-opacity="0.3" stroke-width="0.532227"/>
<rect x="171.055" y="293.532" width="59.0772" height="59.0772" stroke="#C4B4B0" stroke-opacity="0.3" stroke-width="0.532227"/>
<rect x="230.133" y="293.532" width="59.0772" height="59.0772" stroke="#C4B4B0" stroke-opacity="0.3" stroke-width="0.532227"/>
<rect x="289.211" y="293.532" width="59.0772" height="59.0772" stroke="#C4B4B0" stroke-opacity="0.3" stroke-width="0.532227"/>
<rect x="348.29" y="293.532" width="59.0772" height="59.0772" stroke="#C4B4B0" stroke-opacity="0.3" stroke-width="0.532227"/>
<rect x="-6.1792" y="353.141" width="59.0772" height="59.0772" stroke="#C4B4B0" stroke-opacity="0.3" stroke-width="0.532227"/>
<rect x="52.8989" y="353.141" width="59.0772" height="59.0772" stroke="#C4B4B0" stroke-opacity="0.3" stroke-width="0.532227"/>
<rect x="111.977" y="353.141" width="59.0772" height="59.0772" stroke="#C4B4B0" stroke-opacity="0.3" stroke-width="0.532227"/>
<rect x="171.055" y="353.141" width="59.0772" height="59.0772" stroke="#C4B4B0" stroke-opacity="0.3" stroke-width="0.532227"/>
<rect x="230.133" y="353.141" width="59.0772" height="59.0772" stroke="#C4B4B0" stroke-opacity="0.3" stroke-width="0.532227"/>
<rect x="289.211" y="353.141" width="59.0772" height="59.0772" stroke="#C4B4B0" stroke-opacity="0.3" stroke-width="0.532227"/>
<rect x="348.29" y="353.141" width="59.0772" height="59.0772" stroke="#C4B4B0" stroke-opacity="0.3" stroke-width="0.532227"/>
</g>
<rect x="57" width="337" height="400"/>
<defs>
<clipPath id="clip0_2001_1971">
<rect width="400" height="400" fill="white" transform="translate(0 4)"/>
</clipPath>
</defs>
</svg>
