<svg width="400" height="400" viewBox="0 0 400 400" fill="none" xmlns="http://www.w3.org/2000/svg">
<g clip-path="url(#clip0_2001_1972)">
<rect x="-6.1792" y="-8.51514" width="59.0772" height="59.0772" stroke="#C4B4B0" stroke-opacity="0.3" stroke-width="0.532227"/>
<rect x="52.8989" y="-8.51514" width="59.0772" height="59.0772" stroke="#C4B4B0" stroke-opacity="0.3" stroke-width="0.532227"/>
<rect x="111.977" y="-8.51514" width="59.0772" height="59.0772" stroke="#C4B4B0" stroke-opacity="0.3" stroke-width="0.532227"/>
<rect x="171.055" y="-8.51514" width="59.0772" height="59.0772" stroke="#C4B4B0" stroke-opacity="0.3" stroke-width="0.532227"/>
<rect x="230.133" y="-8.51514" width="59.0772" height="59.0772" stroke="#C4B4B0" stroke-opacity="0.3" stroke-width="0.532227"/>
<rect x="289.211" y="-8.51514" width="59.0772" height="59.0772" stroke="#C4B4B0" stroke-opacity="0.3" stroke-width="0.532227"/>
<rect x="348.29" y="-8.51514" width="59.0772" height="59.0772" stroke="#C4B4B0" stroke-opacity="0.3" stroke-width="0.532227"/>
<rect x="-6.1792" y="51.0942" width="59.0772" height="59.0772" stroke="#C4B4B0" stroke-opacity="0.3" stroke-width="0.532227"/>
<rect x="52.8989" y="51.0942" width="59.0772" height="59.0772" stroke="#C4B4B0" stroke-opacity="0.3" stroke-width="0.532227"/>
<rect x="111.977" y="51.0942" width="59.0772" height="59.0772" stroke="#C4B4B0" stroke-opacity="0.3" stroke-width="0.532227"/>
<rect x="171.055" y="51.0942" width="59.0772" height="59.0772" stroke="#C4B4B0" stroke-opacity="0.3" stroke-width="0.532227"/>
<rect x="230.133" y="51.0942" width="59.0772" height="59.0772" stroke="#C4B4B0" stroke-opacity="0.3" stroke-width="0.532227"/>
<rect x="289.211" y="51.0942" width="59.0772" height="59.0772" stroke="#C4B4B0" stroke-opacity="0.3" stroke-width="0.532227"/>
<rect x="348.29" y="51.0942" width="59.0772" height="59.0772" stroke="#C4B4B0" stroke-opacity="0.3" stroke-width="0.532227"/>
<rect x="-6.1792" y="110.704" width="59.0772" height="59.0772" stroke="#C4B4B0" stroke-opacity="0.3" stroke-width="0.532227"/>
<rect x="52.8989" y="110.704" width="59.0772" height="59.0772" stroke="#C4B4B0" stroke-opacity="0.3" stroke-width="0.532227"/>
<rect x="111.977" y="110.704" width="59.0772" height="59.0772" stroke="#C4B4B0" stroke-opacity="0.3" stroke-width="0.532227"/>
<rect x="171.055" y="110.704" width="59.0772" height="59.0772" stroke="#C4B4B0" stroke-opacity="0.3" stroke-width="0.532227"/>
<rect x="230.133" y="110.704" width="59.0772" height="59.0772" stroke="#C4B4B0" stroke-opacity="0.3" stroke-width="0.532227"/>
<rect x="289.211" y="110.704" width="59.0772" height="59.0772" stroke="#C4B4B0" stroke-opacity="0.3" stroke-width="0.532227"/>
<rect x="348.29" y="110.704" width="59.0772" height="59.0772" stroke="#C4B4B0" stroke-opacity="0.3" stroke-width="0.532227"/>
<rect x="-6.1792" y="170.313" width="59.0772" height="59.0772" stroke="#C4B4B0" stroke-opacity="0.3" stroke-width="0.532227"/>
<rect x="52.8989" y="170.313" width="59.0772" height="59.0772" stroke="#C4B4B0" stroke-opacity="0.3" stroke-width="0.532227"/>
<rect x="111.977" y="170.313" width="59.0772" height="59.0772" stroke="#C4B4B0" stroke-opacity="0.3" stroke-width="0.532227"/>
<rect x="171.055" y="170.313" width="59.0772" height="59.0772" stroke="#C4B4B0" stroke-opacity="0.3" stroke-width="0.532227"/>
<rect x="230.133" y="170.313" width="59.0772" height="59.0772" stroke="#C4B4B0" stroke-opacity="0.3" stroke-width="0.532227"/>
<rect x="289.211" y="170.313" width="59.0772" height="59.0772" stroke="#C4B4B0" stroke-opacity="0.3" stroke-width="0.532227"/>
<rect x="348.29" y="170.313" width="59.0772" height="59.0772" stroke="#C4B4B0" stroke-opacity="0.3" stroke-width="0.532227"/>
<rect x="-6.1792" y="229.922" width="59.0772" height="59.0772" stroke="#C4B4B0" stroke-opacity="0.3" stroke-width="0.532227"/>
<rect x="52.8989" y="229.922" width="59.0772" height="59.0772" stroke="#C4B4B0" stroke-opacity="0.3" stroke-width="0.532227"/>
<rect x="111.977" y="229.922" width="59.0772" height="59.0772" stroke="#C4B4B0" stroke-opacity="0.3" stroke-width="0.532227"/>
<rect x="171.055" y="229.922" width="59.0772" height="59.0772" stroke="#C4B4B0" stroke-opacity="0.3" stroke-width="0.532227"/>
<rect x="230.133" y="229.922" width="59.0772" height="59.0772" stroke="#C4B4B0" stroke-opacity="0.3" stroke-width="0.532227"/>
<rect x="289.211" y="229.922" width="59.0772" height="59.0772" stroke="#C4B4B0" stroke-opacity="0.3" stroke-width="0.532227"/>
<rect x="348.29" y="229.922" width="59.0772" height="59.0772" stroke="#C4B4B0" stroke-opacity="0.3" stroke-width="0.532227"/>
<rect x="-6.1792" y="289.532" width="59.0772" height="59.0772" stroke="#C4B4B0" stroke-opacity="0.3" stroke-width="0.532227"/>
<rect x="52.8989" y="289.532" width="59.0772" height="59.0772" stroke="#C4B4B0" stroke-opacity="0.3" stroke-width="0.532227"/>
<rect x="111.977" y="289.532" width="59.0772" height="59.0772" stroke="#C4B4B0" stroke-opacity="0.3" stroke-width="0.532227"/>
<rect x="171.055" y="289.532" width="59.0772" height="59.0772" stroke="#C4B4B0" stroke-opacity="0.3" stroke-width="0.532227"/>
<rect x="230.133" y="289.532" width="59.0772" height="59.0772" stroke="#C4B4B0" stroke-opacity="0.3" stroke-width="0.532227"/>
<rect x="289.211" y="289.532" width="59.0772" height="59.0772" stroke="#C4B4B0" stroke-opacity="0.3" stroke-width="0.532227"/>
<rect x="348.29" y="289.532" width="59.0772" height="59.0772" stroke="#C4B4B0" stroke-opacity="0.3" stroke-width="0.532227"/>
<rect x="-6.1792" y="349.141" width="59.0772" height="59.0772" stroke="#C4B4B0" stroke-opacity="0.3" stroke-width="0.532227"/>
<rect x="52.8989" y="349.141" width="59.0772" height="59.0772" stroke="#C4B4B0" stroke-opacity="0.3" stroke-width="0.532227"/>
<rect x="111.977" y="349.141" width="59.0772" height="59.0772" stroke="#C4B4B0" stroke-opacity="0.3" stroke-width="0.532227"/>
<rect x="171.055" y="349.141" width="59.0772" height="59.0772" stroke="#C4B4B0" stroke-opacity="0.3" stroke-width="0.532227"/>
<rect x="230.133" y="349.141" width="59.0772" height="59.0772" stroke="#C4B4B0" stroke-opacity="0.3" stroke-width="0.532227"/>
<rect x="289.211" y="349.141" width="59.0772" height="59.0772" stroke="#C4B4B0" stroke-opacity="0.3" stroke-width="0.532227"/>
<rect x="348.29" y="349.141" width="59.0772" height="59.0772" stroke="#C4B4B0" stroke-opacity="0.3" stroke-width="0.532227"/>
</g>
<mask id="mask0_2001_1972" style="mask-type:alpha" maskUnits="userSpaceOnUse" x="36" y="30" width="329" height="357">
<path d="M175.839 37.739C176.59 35.4173 182.094 30 200.355 30C218.616 30 224.12 35.4173 224.871 37.739L224.995 40.0669C240.154 41.613 274.744 52.3108 293.642 82.8829H323.183V85.4625L323.256 87.7949C323.353 90.9237 323.723 94.9177 324.562 99.0623C325.738 104.866 327.809 110.825 331.229 115.135L331.416 115.37L331.416 115.371C335.818 120.919 339.258 125.254 342.329 130.328C345.312 135.255 347.931 140.851 350.793 148.922H364.71V267.586H350.793C347.931 275.657 345.312 281.253 342.329 286.18C339.258 291.254 335.818 295.59 331.416 301.138L331.229 301.373C327.809 305.683 325.738 311.642 324.562 317.446C323.723 321.59 323.353 325.584 323.256 328.713L323.183 331.045V333.625H293.642C274.744 364.197 240.154 374.895 224.995 376.441L224.871 378.511C224.12 380.833 218.616 386.25 200.355 386.25C182.094 386.25 176.59 380.833 175.839 378.511L175.715 376.441C160.556 374.895 125.966 364.197 107.068 333.625H77.5265V331.045L77.4542 328.713C77.3568 325.584 76.9875 321.59 76.1476 317.446C74.9716 311.642 72.9005 305.683 69.4807 301.373L69.2942 301.138C64.892 295.59 61.452 291.254 58.3807 286.18C55.3979 281.253 52.7788 275.657 49.9166 267.586H36V148.922H49.9166C52.7788 140.851 55.3979 135.255 58.3807 130.328C61.452 125.254 64.892 120.918 69.2942 115.37L69.4807 115.135C72.9005 110.825 74.9716 104.866 76.1476 99.0623C76.9875 94.9177 77.3568 90.9237 77.4542 87.7949L77.5265 85.4625V82.8829H107.068C125.966 52.3108 160.556 41.613 175.715 40.0669L175.839 37.739Z" fill="#FCFCFC"/>
</mask>
<g mask="url(#mask0_2001_1972)">
<path d="M141.195 69.0594C141.985 66.6416 147.779 61 167 61C186.221 61 192.015 66.6416 192.805 69.0594L192.936 71.4837C208.893 73.0938 245.302 84.2345 265.194 116.072H296.289V118.759L296.365 121.188C296.468 124.446 296.857 128.606 297.741 132.922C298.979 138.965 301.159 145.172 304.758 149.66L304.954 149.905C309.588 155.683 313.209 160.198 316.442 165.482C319.582 170.613 322.339 176.44 325.351 184.846H340V308.423H325.351C322.339 316.829 319.582 322.655 316.442 327.787C313.209 333.071 309.588 337.586 304.954 343.364L304.758 343.609C301.159 348.097 298.979 354.303 297.741 360.347C296.857 364.663 296.468 368.823 296.365 372.081L296.289 374.51V377.196H265.194C245.302 409.034 208.893 420.175 192.936 421.785L192.805 423.941C192.015 426.358 186.221 432 167 432C147.779 432 141.985 426.358 141.195 423.941L141.064 421.785C125.107 420.175 88.698 409.034 68.8064 377.196H37.7108V374.51L37.6347 372.081C37.5322 368.823 37.1434 364.663 36.2594 360.347C35.0215 354.303 32.8415 348.097 29.2418 343.609L29.0455 343.364C24.4117 337.586 20.7907 333.071 17.5579 327.787C14.4182 322.655 11.6613 316.829 8.64857 308.423H-6V184.846H8.64857C11.6613 176.44 14.4182 170.613 17.5579 165.482C20.7907 160.198 24.4117 155.683 29.0455 149.905L29.2418 149.66C32.8415 145.172 35.0215 138.965 36.2594 132.922C37.1434 128.606 37.5322 124.446 37.6347 121.188L37.7108 118.759V116.072H68.8064C88.698 84.2345 125.107 73.0938 141.064 71.4837L141.195 69.0594Z" fill="#DBD7CE"/>
<path d="M141.195 69.0594C141.985 66.6416 147.779 61 167 61C186.221 61 192.015 66.6416 192.805 69.0594L192.936 71.4837C208.893 73.0938 245.302 84.2345 265.194 116.072H296.289V118.759L296.365 121.188C296.468 124.446 296.857 128.606 297.741 132.922C298.979 138.965 301.159 145.172 304.758 149.66L304.954 149.905C309.588 155.683 313.209 160.198 316.442 165.482C319.582 170.613 322.339 176.44 325.351 184.846H340V308.423H325.351C322.339 316.829 319.582 322.655 316.442 327.787C313.209 333.071 309.588 337.586 304.954 343.364L304.758 343.609C301.159 348.097 298.979 354.303 297.741 360.347C296.857 364.663 296.468 368.823 296.365 372.081L296.289 374.51V377.196H265.194C245.302 409.034 208.893 420.175 192.936 421.785L192.805 423.941C192.015 426.358 186.221 432 167 432C147.779 432 141.985 426.358 141.195 423.941L141.064 421.785C125.107 420.175 88.698 409.034 68.8064 377.196H37.7108V374.51L37.6347 372.081C37.5322 368.823 37.1434 364.663 36.2594 360.347C35.0215 354.303 32.8415 348.097 29.2418 343.609L29.0455 343.364C24.4117 337.586 20.7907 333.071 17.5579 327.787C14.4182 322.655 11.6613 316.829 8.64857 308.423H-6V184.846H8.64857C11.6613 176.44 14.4182 170.613 17.5579 165.482C20.7907 160.198 24.4117 155.683 29.0455 149.905L29.2418 149.66C32.8415 145.172 35.0215 138.965 36.2594 132.922C37.1434 128.606 37.5322 124.446 37.6347 121.188L37.7108 118.759V116.072H68.8064C88.698 84.2345 125.107 73.0938 141.064 71.4837L141.195 69.0594Z" fill="#DBD7CE"/>
<path d="M141.195 69.0594C141.985 66.6416 147.779 61 167 61C186.221 61 192.015 66.6416 192.805 69.0594L192.936 71.4837C208.893 73.0938 245.302 84.2345 265.194 116.072H296.289V118.759L296.365 121.188C296.468 124.446 296.857 128.606 297.741 132.922C298.979 138.965 301.159 145.172 304.758 149.66L304.954 149.905C309.588 155.683 313.209 160.198 316.442 165.482C319.582 170.613 322.339 176.44 325.351 184.846H340V308.423H325.351C322.339 316.829 319.582 322.655 316.442 327.787C313.209 333.071 309.588 337.586 304.954 343.364L304.758 343.609C301.159 348.097 298.979 354.303 297.741 360.347C296.857 364.663 296.468 368.823 296.365 372.081L296.289 374.51V377.196H265.194C245.302 409.034 208.893 420.175 192.936 421.785L192.805 423.941C192.015 426.358 186.221 432 167 432C147.779 432 141.985 426.358 141.195 423.941L141.064 421.785C125.107 420.175 88.698 409.034 68.8064 377.196H37.7108V374.51L37.6347 372.081C37.5322 368.823 37.1434 364.663 36.2594 360.347C35.0215 354.303 32.8415 348.097 29.2418 343.609L29.0455 343.364C24.4117 337.586 20.7907 333.071 17.5579 327.787C14.4182 322.655 11.6613 316.829 8.64857 308.423H-6V184.846H8.64857C11.6613 176.44 14.4182 170.613 17.5579 165.482C20.7907 160.198 24.4117 155.683 29.0455 149.905L29.2418 149.66C32.8415 145.172 35.0215 138.965 36.2594 132.922C37.1434 128.606 37.5322 124.446 37.6347 121.188L37.7108 118.759V116.072H68.8064C88.698 84.2345 125.107 73.0938 141.064 71.4837L141.195 69.0594Z" fill="#C6B195"/>
<path d="M261.034 64.2315C261.743 62.062 266.94 57 284.181 57C301.423 57 306.62 62.062 307.329 64.2315L307.446 66.4068C321.759 67.8515 354.419 77.8478 372.261 106.415H400.154V108.826L400.223 111.005C400.314 113.929 400.663 117.661 401.456 121.534C402.567 126.956 404.522 132.525 407.751 136.553L407.927 136.772C412.084 141.957 415.332 146.008 418.231 150.749C421.048 155.353 423.521 160.582 426.223 168.124H439.363V279.007H426.223C423.521 286.549 421.048 291.777 418.231 296.381C415.332 301.123 412.084 305.174 407.927 310.358L407.751 310.578C404.522 314.605 402.567 320.174 401.456 325.597C400.663 329.47 400.314 333.202 400.223 336.125L400.154 338.305V340.715H372.261C354.419 369.283 321.759 379.279 307.446 380.724L307.329 382.658C306.62 384.827 301.423 389.889 284.181 389.889C266.94 389.889 261.743 384.827 261.034 382.658L260.917 380.724C246.604 379.279 213.944 369.283 196.102 340.715H168.209V338.305L168.14 336.125C168.049 333.202 167.7 329.47 166.907 325.597C165.796 320.174 163.841 314.605 160.612 310.578L160.436 310.358C156.279 305.174 153.031 301.123 150.132 296.381C147.315 291.777 144.842 286.549 142.14 279.007H129V168.124H142.14C144.842 160.582 147.315 155.353 150.132 150.749C153.031 146.008 156.279 141.957 160.436 136.772L160.612 136.553C163.841 132.525 165.796 126.956 166.907 121.534C167.7 117.661 168.049 113.929 168.14 111.005L168.209 108.826V106.415H196.102C213.944 77.8478 246.604 67.8515 260.917 66.4068L261.034 64.2315Z" fill="#C6B195"/>
<path d="M299.25 145.431C299.794 143.802 303.779 140 317.001 140C330.222 140 334.208 143.802 334.751 145.431L334.841 147.065C345.817 148.149 370.861 155.657 384.544 177.111H405.933V178.921L405.986 180.558C406.056 182.753 406.324 185.556 406.932 188.465C407.783 192.537 409.283 196.719 411.759 199.744L411.894 199.909L411.894 199.909C415.081 203.803 417.572 206.845 419.796 210.405C421.955 213.863 423.852 217.79 425.924 223.454H436V306.727H425.924C423.852 312.391 421.955 316.318 419.796 319.776C417.572 323.336 415.081 326.379 411.894 330.272L411.894 330.272L411.759 330.437C409.283 333.462 407.783 337.644 406.932 341.716C406.324 344.625 406.056 347.428 405.986 349.623L405.933 351.26V353.07H384.544C370.861 374.524 345.817 382.032 334.841 383.117L334.751 384.569C334.208 386.198 330.222 390 317.001 390C303.779 390 299.794 386.198 299.25 384.569L299.161 383.117C288.185 382.032 263.14 374.524 249.458 353.07H228.068V351.26L228.016 349.623C227.945 347.428 227.678 344.625 227.07 341.716C226.218 337.644 224.719 333.462 222.243 330.437L222.108 330.272C218.92 326.379 216.43 323.336 214.206 319.776C212.046 316.318 210.15 307.439 208.078 301.775H198.001L198 229.004H208.076C210.148 223.34 212.046 213.863 214.206 210.405C216.43 206.845 218.92 203.802 222.108 199.909L222.243 199.744C224.719 196.719 226.218 192.537 227.07 188.465C227.678 185.556 227.945 182.753 228.016 180.558L228.068 178.921V177.111H249.458C263.14 155.657 288.185 148.149 299.161 147.065L299.25 145.431Z" fill="#D3CCC3"/>
<path d="M377 340.065C377 149.198 129 134.052 16 131.5L38 -21H377V340.065Z" fill="#A08268"/>
<path d="M86.0418 96.2986V93.719H111.816C132.792 61.6545 171.428 50.4486 188.334 48.833H212.377C229.283 50.4486 267.919 61.6545 288.895 93.719H314.669V96.2986L314.681 97.9252C314.738 101.257 315.095 105.717 316.009 110.359C317.186 116.345 319.261 122.492 322.685 126.938L322.872 127.181C327.281 132.904 330.726 137.376 333.802 142.609C336.854 147.803 339.526 153.716 342.466 162.338H355.695V164.401V164.917V208.256V251.594V252.11V254.173H342.466C339.526 262.795 336.854 268.708 333.802 273.902C330.726 279.135 327.281 283.607 322.872 289.33L322.685 289.573C319.261 294.019 317.186 300.166 316.009 306.152C315.095 310.794 314.738 315.254 314.681 318.586L314.669 320.212V322.792H288.895C267.919 354.857 229.283 366.062 212.377 367.678H188.334C171.428 366.062 132.792 354.857 111.816 322.792H86.0418V320.212L86.03 318.586C85.9734 315.254 85.6157 310.794 84.7022 306.152C83.5245 300.166 81.4503 294.019 78.0255 289.573L77.8387 289.33C73.43 283.607 69.9849 279.135 66.9091 273.902C63.8567 268.708 61.1846 262.795 58.2445 254.173H45.0156V252.11V251.594V208.256V164.917V164.401V162.338H58.2445C61.1846 153.716 63.8567 147.803 66.9091 142.609C69.9849 137.376 73.4299 132.904 77.8387 127.181L77.8387 127.181L78.0255 126.938C81.4503 122.492 83.5245 116.345 84.7022 110.359C85.6157 105.717 85.9734 101.257 86.03 97.9252L86.0418 96.2986Z" fill="url(#paint0_linear_2001_1972)"/>
</g>
<path d="M52.2762 149.697V152.801H38.5172H38.2672V153.051V208.255V263.46V263.71H38.5172H52.2762V266.813C52.2762 266.926 52.3029 267.073 52.3423 267.236C52.3831 267.405 52.4423 267.61 52.5171 267.844C52.667 268.314 52.8831 268.916 53.1497 269.613C53.6832 271.006 54.4227 272.788 55.2486 274.673C56.8989 278.438 58.9025 282.629 60.3046 284.945C63.2987 289.892 66.6578 294.125 71.1031 299.728L71.1094 299.736L71.2366 299.896C74.9861 304.622 77.1573 311 78.3669 316.969C79.4652 322.389 79.789 327.564 79.7449 331.044L79.7417 331.297H79.9949H108.328C126.456 361.693 160.611 372.48 175.705 374.098L175.506 376.167C160.264 374.535 126.035 363.811 107.296 333.495L107.223 333.376H107.084H77.7921L77.7923 331.047L77.792 331.039L77.7197 328.707C77.622 325.566 77.2513 321.558 76.4082 317.397C75.2288 311.577 73.1473 305.573 69.6922 301.219L69.5057 300.984C65.1016 295.433 61.6719 291.11 58.6102 286.052C55.6383 281.142 53.0259 275.564 50.1678 267.504L50.1088 267.337H49.9322H36.2656V263.46V208.255V153.051V149.173H49.9322H50.1088L50.1678 149.007C53.0259 140.947 55.6383 135.368 58.6102 130.459C61.6719 125.401 65.1016 121.078 69.5057 115.527L69.6922 115.292C73.1473 110.937 75.2288 104.933 76.4082 99.1133C77.2513 94.953 77.622 90.9448 77.7197 87.8041L77.792 85.4717L77.7921 85.4717V85.4639V83.1343H107.084H107.223L107.296 83.0157C126.035 52.7002 160.264 41.9761 175.506 40.3432L175.705 42.4126C160.611 44.031 126.456 54.8173 108.328 85.2139H79.9949H79.7417L79.7449 85.4671C79.789 88.947 79.4652 94.1219 78.3669 99.5417C77.1573 105.511 74.9861 111.889 71.2366 116.615L71.1094 116.775L71.103 116.783C66.6577 122.386 63.2987 126.619 60.3046 131.566C58.9025 133.882 56.8989 138.073 55.2486 141.838C54.4227 143.722 53.6832 145.505 53.1497 146.898C52.8831 147.594 52.667 148.196 52.5171 148.666C52.4423 148.901 52.3831 149.106 52.3423 149.274C52.3029 149.438 52.2762 149.585 52.2762 149.697Z" stroke="#C6B195" stroke-width="0.5"/>
<path d="M60.2755 163.886V164.667H47.5172H47.2672V164.917V208.256V251.594V251.844H47.5172H60.2755V252.626V252.667L60.2888 252.706C63.2183 261.33 65.8451 267.559 68.8188 272.619C71.8171 277.721 75.1807 282.087 79.6326 287.867L79.6389 287.875L79.6391 287.875L79.7665 288.04C83.5227 292.916 85.6976 299.498 86.9093 305.656C88.0127 311.264 88.3357 316.619 88.2891 320.209L88.2858 320.462H88.5391H88.5434H113.296C123.405 336.435 138.042 347.226 152.229 354.225C166.308 361.171 179.958 364.39 188.333 365.227L188.11 367.405C171.117 365.708 132.841 354.476 112.026 322.655L111.952 322.542H111.816H86.2918L86.2918 320.212L86.2918 320.211L86.28 318.584L86.2799 318.582C86.2231 315.237 85.8642 310.763 84.9475 306.104C83.7666 300.101 81.6826 293.91 78.2236 289.42L78.0368 289.178C73.6263 283.453 70.1912 278.993 67.1246 273.775C64.083 268.6 61.4174 262.703 58.4811 254.093L58.4234 253.923H58.2445H45.2656V252.11V251.594V208.256V164.917V164.401V162.588H58.2445H58.4234L58.4811 162.418C61.4174 153.808 64.083 147.912 67.1246 142.736C70.1912 137.518 73.6263 133.059 78.0368 127.333L78.2236 127.091C81.6826 122.601 83.7666 116.41 84.9475 110.407C85.8642 105.748 86.2231 101.274 86.2799 97.9294L86.28 97.927L86.2918 96.3004V96.2986V93.969H111.816H111.952L112.026 93.8558C132.841 62.0354 171.117 50.8028 188.11 49.106L188.333 51.2837C179.958 52.1215 166.308 55.3396 152.229 62.2856C138.042 69.2848 123.405 80.0765 113.296 96.0486H88.5434H88.5391H88.2858L88.2891 96.3019C88.3357 99.8925 88.0127 105.247 86.9093 110.855C85.6976 117.013 83.5227 123.595 79.7664 128.471L79.6391 128.636L79.6329 128.644C75.1808 134.423 71.8172 138.79 68.8188 143.892C65.8451 148.952 63.2183 155.182 60.2888 163.805L60.2755 163.844V163.886Z" stroke="#C6B195" stroke-width="0.5"/>
<path d="M348.443 149.695V152.799H362.202H362.452V153.049V208.253V263.458V263.708H362.202H348.443V266.811C348.443 266.924 348.416 267.071 348.376 267.234C348.336 267.403 348.276 267.608 348.202 267.843C348.052 268.312 347.836 268.914 347.569 269.611C347.036 271.004 346.296 272.786 345.47 274.671C343.82 278.436 341.816 282.627 340.414 284.943C337.42 289.89 334.061 294.123 329.616 299.726L329.609 299.734L329.482 299.894C325.733 304.62 323.561 310.998 322.352 316.967C321.254 322.387 320.93 327.562 320.974 331.042L320.977 331.295H320.724H292.391C274.263 361.691 240.108 372.478 225.014 374.096L225.213 376.166C240.455 374.533 274.683 363.809 293.422 333.493L293.496 333.374H293.635H322.927L322.926 331.045L322.927 331.037L322.999 328.705C323.097 325.564 323.467 321.556 324.311 317.395C325.49 311.575 327.571 305.571 331.027 301.217L331.213 300.982C335.617 295.431 339.047 291.108 342.109 286.05C345.08 281.14 347.693 275.562 350.551 267.502L350.61 267.335H350.787H364.453V263.458V208.253V153.049V149.171H350.787H350.61L350.551 149.005C347.693 140.945 345.08 135.366 342.109 130.457C339.047 125.399 335.617 121.076 331.213 115.525L331.027 115.29C327.571 110.935 325.49 104.932 324.311 99.1114C323.467 94.9511 323.097 90.9428 322.999 87.8022L322.927 85.4697L322.927 85.4697V85.462V83.1323H293.635H293.496L293.422 83.0138C274.683 52.6982 240.455 41.9742 225.213 40.3413L225.014 42.4107C240.108 44.029 274.263 54.8153 292.391 85.212H320.724H320.977L320.974 85.4652C320.93 88.945 321.254 94.1199 322.352 99.5398C323.561 105.509 325.733 111.887 329.482 116.613L329.609 116.773L329.616 116.781C334.061 122.384 337.42 126.617 340.414 131.564C341.816 133.88 343.82 138.071 345.47 141.836C346.296 143.72 347.036 145.503 347.569 146.896C347.836 147.593 348.052 148.194 348.202 148.664C348.276 148.899 348.336 149.104 348.376 149.272C348.416 149.436 348.443 149.583 348.443 149.695Z" stroke="#C6B195" stroke-width="0.5"/>
<path d="M340.435 163.886V164.667H353.194H353.444V164.917V208.256V251.594V251.844H353.194H340.435V252.626V252.667L340.422 252.706C337.493 261.33 334.866 267.559 331.892 272.619C328.894 277.721 325.53 282.088 321.078 287.867L321.074 287.872L321.074 287.872L321.072 287.875L321.072 287.875L320.944 288.04C317.188 292.916 315.013 299.498 313.802 305.656C312.698 311.264 312.375 316.618 312.422 320.209L312.425 320.462H312.172H312.168H287.415C277.306 336.435 262.669 347.226 248.482 354.225C234.403 361.171 220.753 364.39 212.378 365.227L212.601 367.405C229.594 365.708 267.87 354.476 288.685 322.655L288.759 322.542H288.895H314.419L314.419 320.212L314.419 320.211L314.431 318.584L314.431 318.582C314.488 315.237 314.847 310.763 315.763 306.104C316.944 300.101 319.028 293.91 322.487 289.42L322.674 289.178C327.085 283.453 330.52 278.993 333.586 273.775C336.628 268.6 339.294 262.703 342.23 254.093L342.288 253.923H342.466H355.445V252.11V251.594V208.256V164.917V164.401V162.588H342.466H342.288L342.23 162.418C339.294 153.808 336.628 147.912 333.586 142.736C330.52 137.518 327.085 133.059 322.674 127.333L322.487 127.091C319.028 122.601 316.944 116.41 315.763 110.407C314.847 105.748 314.488 101.274 314.431 97.9294L314.431 97.927L314.419 96.3004V96.2986V93.969H288.895H288.759L288.685 93.8558C267.87 62.0354 229.594 50.8028 212.601 49.106L212.378 51.2837C220.753 52.1215 234.403 55.3396 248.482 62.2856C262.669 69.2848 277.306 80.0765 287.415 96.0486H312.168H312.172H312.425L312.422 96.3019C312.375 99.8925 312.698 105.247 313.802 110.855C315.013 117.013 317.188 123.595 320.944 128.471L321.072 128.636L321.078 128.644C325.53 134.423 328.894 138.79 331.892 143.892C334.866 148.952 337.493 155.182 340.422 163.805L340.435 163.844V163.886Z" stroke="#C6B195" stroke-width="0.5"/>
<path d="M176.094 44.8828V37.7794C176.46 36.7089 177.957 34.84 181.636 33.2278C185.347 31.6013 191.252 30.25 200.359 30.25C209.467 30.25 215.372 31.6013 219.083 33.2278C222.762 34.84 224.259 36.7089 224.625 37.7794V44.884L211.736 63.5434H189.232L176.094 44.8828Z" fill="url(#paint1_linear_2001_1972)" stroke="#C6B195" stroke-width="0.5"/>
<path d="M224.625 371.365V378.469C224.259 379.539 222.762 381.408 219.083 383.02C215.372 384.647 209.467 385.998 200.359 385.998C191.252 385.998 185.347 384.647 181.636 383.02C177.957 381.408 176.46 379.539 176.094 378.469V371.364L188.983 352.705H211.487L224.625 371.365Z" fill="url(#paint2_linear_2001_1972)" stroke="#C6B195" stroke-width="0.5"/>
<path fill-rule="evenodd" clip-rule="evenodd" d="M149.964 145.438C141.7 145.438 135 152.138 135 160.402V260.474C135 268.738 141.7 275.438 149.964 275.438H250.036C258.3 275.438 265 268.738 265 260.474V160.402C265 152.138 258.3 145.438 250.036 145.438H149.964Z" fill="#191817"/>
<path fill-rule="evenodd" clip-rule="evenodd" d="M246.187 154.755H153.813C148.568 154.755 144.317 159.006 144.317 164.251V256.625C144.317 261.87 148.568 266.121 153.813 266.121H246.187C251.432 266.121 255.683 261.87 255.683 256.625V164.251C255.683 159.006 251.432 154.755 246.187 154.755ZM153.813 150.438C146.184 150.438 140 156.622 140 164.251V256.625C140 264.254 146.184 270.438 153.813 270.438H246.187C253.816 270.438 260 264.254 260 256.625V164.251C260 156.622 253.816 150.438 246.187 150.438H153.813Z" fill="#EFEEEE" stroke="#FCFCFC" stroke-width="0.5"/>
<path d="M236.359 177.083H163.969V185.904H236.359V177.083Z" fill="#FEFCF9"/>
<path d="M229.192 192.752H171.109V201.573H229.192V192.752Z" fill="#FEFCF9"/>
<path d="M204.563 208.422H195.742V247.157H204.563V208.422Z" fill="#FEFCF9"/>
<path d="M186.93 208.422H178.109V247.157H186.93V208.422Z" fill="#FEFCF9"/>
<path d="M222.211 208.422H213.391V247.157H222.211V208.422Z" fill="#FEFCF9"/>
<g clip-path="url(#clip1_2001_1972)">
<rect width="396.958" height="26.3277" transform="translate(1.76562 278.523) rotate(-4.47173)" fill="#A8EAFF"/>
<path d="M-17.4444 299.75C-17.5961 299.762 -17.6769 299.704 -17.6868 299.578C-17.6957 299.464 -17.601 299.374 -17.4027 299.308L-17.1036 299.227C-16.8547 299.157 -16.6428 299.019 -16.468 298.815C-16.3068 298.598 -16.1579 298.307 -16.0212 297.94L-11.2774 285.643C-11.2241 285.511 -11.1673 285.424 -11.107 285.381C-11.0468 285.339 -10.9913 285.315 -10.9408 285.311C-10.8775 285.306 -10.8255 285.321 -10.7846 285.356C-10.731 285.39 -10.6993 285.47 -10.6894 285.597L-9.54044 297.605C-9.50011 297.958 -9.43657 298.201 -9.34983 298.334C-9.26408 298.455 -9.09861 298.537 -8.85343 298.582L-8.60242 298.619C-8.44773 298.645 -8.36593 298.715 -8.35703 298.829C-8.34615 298.968 -8.44819 299.046 -8.66314 299.063L-11.7925 299.308C-11.9569 299.321 -12.044 299.264 -12.0539 299.137C-12.0648 298.998 -11.9448 298.906 -11.6939 298.861L-11.3175 298.793C-11.1046 298.751 -10.9646 298.67 -10.8976 298.551C-10.818 298.43 -10.7891 298.231 -10.8108 297.952L-11.0787 295.016C-11.1044 294.687 -11.2879 294.536 -11.6293 294.563L-13.6587 294.721C-13.9874 294.747 -14.2211 294.931 -14.3598 295.272L-15.3938 297.91C-15.6789 298.658 -15.5339 299.047 -14.959 299.078L-14.6905 299.095C-14.4989 299.106 -14.3981 299.174 -14.3882 299.301C-14.3773 299.44 -14.4794 299.518 -14.6943 299.535L-17.4444 299.75ZM-13.6273 294.146L-11.5031 293.98C-11.2882 293.963 -11.1891 293.848 -11.2059 293.633L-11.6488 288.458L-11.7436 288.465L-13.8232 293.837C-13.8669 293.93 -13.8673 294.006 -13.8244 294.066C-13.7815 294.127 -13.7158 294.153 -13.6273 294.146ZM-3.60231 298.839C-4.94257 298.944 -5.94929 298.596 -6.62245 297.797C-7.28297 296.996 -7.67602 295.793 -7.80161 294.187C-7.86192 293.416 -7.82988 292.605 -7.70549 291.756C-7.58109 290.907 -7.37253 290.076 -7.0798 289.265C-6.77542 288.439 -6.39507 287.691 -5.93875 287.019C-5.48244 286.347 -4.95301 285.797 -4.35047 285.368C-3.73529 284.939 -3.0547 284.694 -2.30871 284.636C-1.42363 284.567 -0.597495 284.801 0.169688 285.339C0.304039 285.43 0.359171 285.566 0.335082 285.746L-0.00992884 288.654C-0.0320398 288.86 -0.118959 288.968 -0.270687 288.98C-0.422415 288.992 -0.50619 288.897 -0.522011 288.694L-0.598824 287.956C-0.706185 286.909 -0.916254 286.175 -1.22903 285.754C-1.54181 285.333 -1.9574 285.143 -2.4758 285.183C-2.96892 285.222 -3.42725 285.461 -3.85079 285.902C-4.27532 286.329 -4.65737 286.893 -4.99692 287.594C-5.33747 288.282 -5.62783 289.043 -5.868 289.876C-6.09651 290.695 -6.26131 291.516 -6.3624 292.338C-6.46349 293.16 -6.48684 293.919 -6.43245 294.614C-6.34346 295.752 -6.10009 296.668 -5.70233 297.362C-5.29194 298.055 -4.68213 298.37 -3.87292 298.307C-3.39244 298.269 -2.98222 298.065 -2.64224 297.695C-2.29061 297.312 -1.95193 296.681 -1.62622 295.803L-1.27868 294.879C-1.22733 294.722 -1.13843 294.639 -1.01199 294.629C-0.809686 294.613 -0.73075 294.728 -0.775182 294.973L-1.30244 297.991C-1.33818 298.185 -1.43043 298.306 -1.57919 298.356C-1.78821 298.449 -2.09255 298.543 -2.49221 298.638C-2.89089 298.745 -3.26092 298.812 -3.60231 298.839ZM5.17688 298.152C3.83662 298.257 2.8299 297.91 2.15674 297.11C1.49622 296.309 1.10317 295.106 0.977586 293.5C0.917268 292.729 0.949307 291.919 1.0737 291.069C1.1981 290.22 1.40666 289.39 1.69939 288.578C2.00377 287.753 2.38412 287.004 2.84044 286.332C3.29676 285.661 3.82618 285.11 4.42872 284.682C5.0439 284.252 5.72449 284.008 6.47048 283.95C7.35556 283.88 8.1817 284.115 8.94888 284.653C9.08323 284.744 9.13836 284.879 9.11427 285.059L8.76926 287.968C8.74715 288.173 8.66023 288.282 8.5085 288.294C8.35678 288.305 8.273 288.21 8.25718 288.008L8.18037 287.27C8.07301 286.222 7.86294 285.488 7.55016 285.067C7.23738 284.646 6.82179 284.456 6.30339 284.497C5.81027 284.535 5.35194 284.775 4.9284 285.215C4.50387 285.643 4.12183 286.207 3.78227 286.908C3.44172 287.596 3.15137 288.356 2.9112 289.189C2.68268 290.009 2.51788 290.829 2.41679 291.651C2.3157 292.473 2.29235 293.232 2.34674 293.928C2.43573 295.065 2.67911 295.981 3.07686 296.675C3.48725 297.369 4.09706 297.683 4.90628 297.62C5.38675 297.583 5.79697 297.379 6.13695 297.009C6.48858 296.625 6.82726 295.994 7.15297 295.116L7.50051 294.192C7.55186 294.036 7.64076 293.952 7.7672 293.943C7.96951 293.927 8.04844 294.041 8.00401 294.287L7.47675 297.305C7.44101 297.498 7.34876 297.62 7.2 297.67C6.99098 297.762 6.68664 297.856 6.28698 297.951C5.8883 298.059 5.51827 298.126 5.17688 298.152ZM8.89243 297.69C8.71541 297.704 8.62196 297.648 8.61207 297.521C8.60119 297.382 8.72071 297.284 8.97063 297.226L9.3455 297.139C9.6207 297.08 9.80541 297.002 9.89965 296.905C10.0055 296.795 10.0734 296.605 10.1032 296.336L11.8104 284.982C11.8529 284.712 11.839 284.535 11.7689 284.451C11.6987 284.368 11.5353 284.31 11.2784 284.28L10.8932 284.233C10.7258 284.208 10.6382 284.145 10.6303 284.044C10.6184 283.892 10.7263 283.808 10.9539 283.79L17.2885 283.294C17.6173 283.269 17.7614 283.404 17.7209 283.699L17.3792 286.894C17.3581 287.112 17.2653 287.227 17.101 287.24C16.924 287.254 16.8417 287.177 16.8541 287.011L16.8591 286.343C16.8719 285.693 16.7754 285.192 16.5697 284.839C16.3767 284.485 16.1035 284.246 15.7503 284.121C15.4097 283.995 15.0181 283.949 14.5755 283.984C14.0698 284.023 13.709 284.128 13.4933 284.297C13.2766 284.454 13.1383 284.719 13.0785 285.093L12.3928 289.745C12.3687 289.925 12.4452 290.008 12.6222 289.994L13.5895 289.919C14.1458 289.875 14.5272 289.547 14.7336 288.933L15.0767 287.952C15.1271 287.782 15.2218 287.692 15.3609 287.681C15.4367 287.675 15.4961 287.703 15.539 287.763C15.5935 287.809 15.6121 287.884 15.5947 287.987L14.9422 292.332C14.8958 292.552 14.7967 292.668 14.645 292.68C14.4933 292.691 14.411 292.615 14.3981 292.451L14.3444 291.52C14.3224 291.076 14.2428 290.79 14.1055 290.661C13.9808 290.531 13.7731 290.477 13.4823 290.5L12.534 290.574C12.3443 290.589 12.2374 290.686 12.2133 290.866L11.4856 295.713C11.42 296.176 11.49 296.501 11.6955 296.688C11.901 296.876 12.3135 296.945 12.933 296.897C13.3124 296.867 13.6809 296.781 14.0387 296.639C14.4081 296.483 14.7439 296.221 15.0459 295.854C15.3606 295.486 15.6318 294.969 15.8595 294.302L16.2317 293.204C16.282 293.035 16.3768 292.945 16.5158 292.934C16.7055 292.919 16.7771 293.022 16.7307 293.242L16.0275 296.693C15.9743 296.99 15.7961 297.15 15.4926 297.174L8.89243 297.69ZM21.2167 296.898C20.8626 296.926 20.4803 296.917 20.0698 296.873C19.6719 296.828 19.291 296.756 18.9271 296.657C18.5748 296.545 18.2906 296.408 18.0744 296.247C18.0063 296.189 17.9571 296.129 17.9268 296.068C17.9093 296.005 17.9082 295.91 17.9236 295.782L18.2217 292.762C18.2419 292.532 18.3341 292.41 18.4985 292.397C18.6502 292.385 18.736 292.506 18.7558 292.759L18.8326 293.497C18.9409 294.557 19.1841 295.308 19.5621 295.749C19.94 296.19 20.5147 296.38 21.286 296.32C21.994 296.265 22.5622 295.966 22.9905 295.423C23.4177 294.868 23.5978 294.161 23.5305 293.301C23.487 292.745 23.2898 292.175 22.9389 291.592C22.588 291.009 22.1169 290.435 21.5258 289.871C20.8246 289.2 20.2927 288.58 19.9301 288.011C19.5802 287.44 19.3795 286.826 19.3281 286.169C19.2875 285.65 19.3749 285.141 19.5902 284.641C19.8045 284.128 20.1522 283.694 20.6332 283.338C21.1259 282.969 21.7706 282.753 22.5672 282.691C23.6672 282.605 24.5273 282.785 25.1475 283.233C25.3354 283.358 25.4149 283.562 25.3861 283.844L25.0716 286.655C25.0485 286.847 24.9674 286.949 24.8283 286.96C24.6892 286.971 24.5986 286.87 24.5565 286.657L24.5064 286.26C24.3758 285.24 24.1695 284.474 23.8878 283.961C23.6177 283.435 23.1349 283.2 22.4395 283.254C21.9337 283.294 21.538 283.439 21.2523 283.69C20.9667 283.942 20.7677 284.243 20.6553 284.596C20.5419 284.935 20.4981 285.27 20.5238 285.598C20.5525 285.965 20.6307 286.315 20.7586 286.649C20.8854 286.969 21.0838 287.31 21.3537 287.671C21.6353 288.017 22.0118 288.44 22.4832 288.937C23.1465 289.61 23.6745 290.262 24.0673 290.893C24.4601 291.524 24.6808 292.149 24.7292 292.769C24.7875 293.515 24.6688 294.192 24.3729 294.8C24.0886 295.395 23.6749 295.879 23.1316 296.252C22.5883 296.625 21.95 296.841 21.2167 296.898ZM29.255 296.269C28.9009 296.297 28.5187 296.289 28.1081 296.244C27.7102 296.199 27.3293 296.127 26.9654 296.029C26.6131 295.916 26.3289 295.779 26.1128 295.618C26.0446 295.56 25.9954 295.5 25.9652 295.439C25.9476 295.377 25.9465 295.281 25.9619 295.153L26.2601 292.134C26.2802 291.903 26.3725 291.781 26.5368 291.769C26.6886 291.757 26.7743 291.877 26.7941 292.13L26.8709 292.868C26.9793 293.928 27.2224 294.679 27.6004 295.12C27.9784 295.561 28.553 295.752 29.3243 295.691C30.0323 295.636 30.6005 295.337 31.0288 294.795C31.4561 294.24 31.6361 293.532 31.5689 292.673C31.5254 292.116 31.3281 291.547 30.9772 290.963C30.6263 290.38 30.1553 289.806 29.5641 289.242C28.8629 288.572 28.331 287.952 27.9684 287.382C27.6185 286.812 27.4178 286.198 27.3664 285.54C27.3259 285.022 27.4132 284.512 27.6285 284.012C27.8429 283.499 28.1905 283.065 28.6716 282.709C29.1643 282.34 29.8089 282.124 30.6055 282.062C31.7055 281.976 32.5656 282.157 33.1858 282.604C33.3737 282.73 33.4532 282.933 33.4244 283.216L33.1099 286.026C33.0868 286.219 33.0057 286.32 32.8666 286.331C32.7276 286.342 32.637 286.241 32.5949 286.028L32.5448 285.631C32.4141 284.611 32.2079 283.845 31.9261 283.333C31.656 282.807 31.1732 282.571 30.4778 282.625C29.972 282.665 29.5763 282.81 29.2907 283.062C29.005 283.313 28.806 283.615 28.6936 283.967C28.5802 284.307 28.5364 284.641 28.5621 284.97C28.5908 285.336 28.6691 285.686 28.7969 286.02C28.9238 286.341 29.1221 286.681 29.392 287.042C29.6736 287.389 30.0501 287.811 30.5215 288.308C31.1848 288.982 31.7128 289.634 32.1056 290.264C32.4985 290.895 32.7191 291.52 32.7675 292.14C32.8259 292.886 32.7071 293.563 32.4112 294.171C32.1269 294.766 31.7132 295.25 31.1699 295.623C30.6266 295.997 29.9883 296.212 29.255 296.269Z" fill="#312923"/>
<path d="M46.5415 284.648L47.5096 288.15L47.0977 291.76L46.1296 288.258L46.5415 284.648Z" fill="#312923"/>
<path d="M43.2625 288.482L46.8726 288.894L50.3748 287.926L46.7647 287.514L43.2625 288.482Z" fill="#312923"/>
<path d="M59.4775 293.734C59.3257 293.745 59.2449 293.688 59.235 293.562C59.2261 293.448 59.3209 293.358 59.5192 293.291L59.8182 293.211C60.0672 293.14 60.279 293.003 60.4539 292.799C60.6151 292.582 60.764 292.291 60.9007 291.924L65.6445 279.627C65.6978 279.495 65.7546 279.408 65.8149 279.365C65.8751 279.322 65.9305 279.299 65.9811 279.295C66.0443 279.29 66.0964 279.305 66.1373 279.34C66.1908 279.374 66.2225 279.454 66.2324 279.581L67.3814 291.589C67.4218 291.942 67.4853 292.185 67.572 292.318C67.6578 292.439 67.8233 292.521 68.0684 292.566L68.3195 292.603C68.4741 292.629 68.5559 292.699 68.5648 292.813C68.5757 292.952 68.4737 293.03 68.2587 293.047L65.1293 293.292C64.965 293.304 64.8778 293.248 64.868 293.121C64.8571 292.982 64.9771 292.89 65.228 292.845L65.6043 292.777C65.8173 292.735 65.9573 292.654 66.0242 292.535C66.1039 292.414 66.1328 292.214 66.111 291.936L65.8432 289C65.8175 288.671 65.6339 288.52 65.2925 288.546L63.2632 288.705C62.9344 288.731 62.7007 288.915 62.5621 289.256L61.528 291.894C61.243 292.641 61.388 293.031 61.9629 293.062L62.2314 293.079C62.423 293.09 62.5238 293.158 62.5337 293.285C62.5445 293.424 62.4425 293.502 62.2275 293.518L59.4775 293.734ZM63.2946 288.13L65.4187 287.964C65.6337 287.947 65.7328 287.831 65.716 287.616L65.2731 282.442L65.1783 282.449L63.0986 287.821C63.055 287.914 63.0546 287.99 63.0975 288.05C63.1404 288.111 63.206 288.137 63.2946 288.13ZM73.3196 292.823C71.9793 292.928 70.9726 292.58 70.2994 291.78C69.6389 290.98 69.2459 289.777 69.1203 288.171C69.06 287.399 69.092 286.589 69.2164 285.74C69.3408 284.891 69.5493 284.06 69.8421 283.248C70.1465 282.423 70.5268 281.675 70.9831 281.003C71.4394 280.331 71.9689 279.781 72.5714 279.352C73.1866 278.922 73.8672 278.678 74.6132 278.62C75.4982 278.551 76.3244 278.785 77.0916 279.323C77.2259 279.414 77.281 279.55 77.257 279.73L76.9119 282.638C76.8898 282.844 76.8029 282.952 76.6512 282.964C76.4995 282.976 76.4157 282.881 76.3999 282.678L76.3231 281.94C76.2157 280.893 76.0056 280.159 75.6928 279.738C75.3801 279.317 74.9645 279.127 74.4461 279.167C73.953 279.206 73.4946 279.445 73.0711 279.886C72.6466 280.313 72.2645 280.877 71.925 281.578C71.5844 282.266 71.294 283.027 71.0539 283.86C70.8254 284.679 70.6606 285.5 70.5595 286.322C70.4584 287.144 70.435 287.903 70.4894 288.598C70.5784 289.736 70.8218 290.652 71.2195 291.346C71.6299 292.039 72.2397 292.354 73.049 292.291C73.5294 292.253 73.9397 292.049 74.2796 291.679C74.6313 291.295 74.9699 290.665 75.2957 289.787L75.6432 288.863C75.6945 288.706 75.7834 288.623 75.9099 288.613C76.1122 288.597 76.1911 288.712 76.1467 288.957L75.6194 291.975C75.5837 292.169 75.4914 292.29 75.3427 292.34C75.1337 292.433 74.8293 292.527 74.4297 292.621C74.031 292.729 73.661 292.796 73.3196 292.823ZM82.0988 292.136C80.7585 292.241 79.7518 291.894 79.0786 291.094C78.4181 290.293 78.025 289.09 77.8995 287.484C77.8391 286.713 77.8712 285.903 77.9956 285.053C78.12 284.204 78.3285 283.373 78.6213 282.562C78.9256 281.737 79.306 280.988 79.7623 280.316C80.2186 279.645 80.7481 279.094 81.3506 278.666C81.9658 278.236 82.6464 277.992 83.3924 277.933C84.2774 277.864 85.1036 278.099 85.8708 278.636C86.0051 278.728 86.0602 278.863 86.0361 279.043L85.6911 281.952C85.669 282.157 85.5821 282.266 85.4304 282.277C85.2787 282.289 85.1949 282.194 85.1791 281.992L85.1022 281.254C84.9949 280.206 84.7848 279.472 84.472 279.051C84.1593 278.63 83.7437 278.44 83.2253 278.481C82.7321 278.519 82.2738 278.759 81.8503 279.199C81.4257 279.627 81.0437 280.191 80.7041 280.891C80.3636 281.58 80.0732 282.34 79.8331 283.173C79.6046 283.992 79.4398 284.813 79.3387 285.635C79.2376 286.457 79.2142 287.216 79.2686 287.911C79.3576 289.049 79.601 289.965 79.9987 290.659C80.4091 291.352 81.0189 291.667 81.8282 291.604C82.3086 291.566 82.7188 291.363 83.0588 290.993C83.4105 290.609 83.7491 289.978 84.0748 289.1L84.4224 288.176C84.4737 288.02 84.5626 287.936 84.6891 287.926C84.8914 287.911 84.9703 288.025 84.9259 288.27L84.3986 291.288C84.3629 291.482 84.2706 291.604 84.1219 291.654C83.9129 291.746 83.6085 291.84 83.2089 291.935C82.8102 292.042 82.4401 292.11 82.0988 292.136ZM85.8143 291.674C85.6373 291.688 85.5438 291.631 85.5339 291.505C85.5231 291.366 85.6426 291.268 85.8925 291.21L86.2674 291.123C86.5426 291.064 86.7273 290.986 86.8215 290.889C86.9274 290.779 86.9953 290.589 87.0251 290.32L88.7323 278.966C88.7748 278.696 88.7609 278.519 88.6908 278.435C88.6206 278.351 88.4571 278.294 88.2003 278.263L87.815 278.217C87.6477 278.192 87.5601 278.129 87.5522 278.028C87.5403 277.876 87.6482 277.791 87.8758 277.774L94.2104 277.278C94.5392 277.253 94.6833 277.388 94.6428 277.683L94.3011 280.878C94.28 281.096 94.1872 281.211 94.0228 281.224C93.8458 281.238 93.7635 281.161 93.776 280.995L93.781 280.327C93.7937 279.677 93.6973 279.176 93.4916 278.823C93.2986 278.469 93.0254 278.23 92.6721 278.105C92.3315 277.979 91.94 277.933 91.4974 277.967C90.9917 278.007 90.6309 278.112 90.4152 278.281C90.1985 278.438 90.0602 278.703 90.0004 279.077L89.3147 283.729C89.2906 283.909 89.3671 283.992 89.5441 283.978L90.5114 283.903C91.0677 283.859 91.4491 283.53 91.6555 282.916L91.9986 281.935C92.0489 281.766 92.1437 281.676 92.2827 281.665C92.3586 281.659 92.418 281.686 92.4608 281.747C92.5154 281.793 92.534 281.868 92.5166 281.971L91.8641 286.316C91.8177 286.536 91.7186 286.652 91.5669 286.663C91.4151 286.675 91.3328 286.599 91.32 286.435L91.2663 285.504C91.2443 285.06 91.1647 284.774 91.0274 284.645C90.9027 284.515 90.6949 284.461 90.4041 284.484L89.4558 284.558C89.2662 284.573 89.1593 284.67 89.1352 284.85L88.4075 289.696C88.3419 290.16 88.4119 290.485 88.6174 290.672C88.8228 290.86 89.2354 290.929 89.8549 290.881C90.2342 290.851 90.6028 290.765 90.9606 290.623C91.33 290.467 91.6657 290.205 91.9678 289.838C92.2825 289.47 92.5537 288.952 92.7814 288.286L93.1535 287.188C93.2039 287.019 93.2986 286.929 93.4377 286.918C93.6274 286.903 93.699 287.006 93.6526 287.225L92.9493 290.677C92.8962 290.974 92.7179 291.134 92.4145 291.158L85.8143 291.674ZM98.1385 290.882C97.7845 290.909 97.4022 290.901 96.9917 290.857C96.5938 290.812 96.2129 290.74 95.8489 290.641C95.4967 290.529 95.2125 290.392 94.9963 290.231C94.9282 290.172 94.879 290.113 94.8487 290.051C94.8311 289.989 94.83 289.894 94.8454 289.765L95.1436 286.746C95.1638 286.516 95.256 286.394 95.4204 286.381C95.5721 286.369 95.6579 286.49 95.6776 286.743L95.7544 287.481C95.8628 288.541 96.106 289.292 96.4839 289.733C96.8619 290.174 97.4365 290.364 98.2078 290.304C98.9159 290.249 99.4841 289.95 99.9123 289.407C100.34 288.852 100.52 288.145 100.452 287.285C100.409 286.729 100.212 286.159 99.8608 285.576C99.5098 284.993 99.0388 284.419 98.4476 283.855C97.7464 283.184 97.2145 282.564 96.852 281.995C96.502 281.424 96.3014 280.81 96.2499 280.153C96.2094 279.634 96.2968 279.125 96.5121 278.625C96.7264 278.112 97.0741 277.678 97.5551 277.322C98.0478 276.953 98.6925 276.737 99.489 276.675C100.589 276.589 101.449 276.769 102.069 277.217C102.257 277.342 102.337 277.546 102.308 277.828L101.993 280.639C101.97 280.831 101.889 280.933 101.75 280.944C101.611 280.955 101.521 280.854 101.478 280.641L101.428 280.244C101.298 279.224 101.091 278.457 100.81 277.945C100.54 277.419 100.057 277.184 99.3613 277.238C98.8556 277.277 98.4599 277.423 98.1742 277.674C97.8886 277.926 97.6895 278.227 97.5772 278.58C97.4638 278.919 97.4199 279.253 97.4457 279.582C97.4743 279.949 97.5526 280.299 97.6804 280.632C97.8073 280.953 98.0057 281.294 98.2756 281.654C98.5571 282.001 98.9336 282.424 99.4051 282.921C100.068 283.594 100.596 284.246 100.989 284.877C101.382 285.508 101.603 286.133 101.651 286.753C101.709 287.499 101.591 288.176 101.295 288.784C101.01 289.379 100.597 289.863 100.053 290.236C99.5102 290.609 98.8719 290.824 98.1385 290.882ZM106.177 290.253C105.823 290.281 105.441 290.273 105.03 290.228C104.632 290.183 104.251 290.111 103.887 290.012C103.535 289.9 103.251 289.763 103.035 289.602C102.966 289.544 102.917 289.484 102.887 289.423C102.869 289.361 102.868 289.265 102.884 289.137L103.182 286.118C103.202 285.887 103.294 285.765 103.459 285.752C103.61 285.741 103.696 285.861 103.716 286.114L103.793 286.852C103.901 287.912 104.144 288.663 104.522 289.104C104.9 289.545 105.475 289.736 106.246 289.675C106.954 289.62 107.522 289.321 107.951 288.779C108.378 288.224 108.558 287.516 108.491 286.657C108.447 286.1 108.25 285.53 107.899 284.947C107.548 284.364 107.077 283.79 106.486 283.226C105.785 282.556 105.253 281.936 104.89 281.366C104.54 280.796 104.34 280.182 104.288 279.524C104.248 279.006 104.335 278.496 104.55 277.996C104.765 277.483 105.112 277.049 105.593 276.693C106.086 276.324 106.731 276.108 107.527 276.046C108.627 275.96 109.487 276.141 110.108 276.588C110.296 276.714 110.375 276.917 110.346 277.199L110.032 280.01C110.009 280.203 109.928 280.304 109.789 280.315C109.649 280.326 109.559 280.225 109.517 280.012L109.467 279.615C109.336 278.595 109.13 277.829 108.848 277.317C108.578 276.791 108.095 276.555 107.4 276.609C106.894 276.649 106.498 276.794 106.213 277.046C105.927 277.297 105.728 277.599 105.615 277.951C105.502 278.291 105.458 278.625 105.484 278.954C105.513 279.32 105.591 279.67 105.719 280.004C105.846 280.325 106.044 280.665 106.314 281.026C106.595 281.373 106.972 281.795 107.443 282.292C108.107 282.966 108.635 283.618 109.028 284.248C109.42 284.879 109.641 285.504 109.689 286.124C109.748 286.87 109.629 287.547 109.333 288.155C109.049 288.75 108.635 289.234 108.092 289.607C107.549 289.981 106.91 290.196 106.177 290.253Z" fill="#312923"/>
<path d="M123.463 278.632L124.431 282.134L124.02 285.744L123.051 282.242L123.463 278.632Z" fill="#312923"/>
<path d="M120.184 282.467L123.794 282.878L127.297 281.91L123.687 281.498L120.184 282.467Z" fill="#312923"/>
<path d="M136.399 287.718C136.248 287.73 136.167 287.673 136.157 287.546C136.148 287.432 136.243 287.342 136.441 287.276L136.74 287.195C136.989 287.125 137.201 286.987 137.376 286.783C137.537 286.567 137.686 286.275 137.823 285.908L142.566 273.611C142.62 273.48 142.676 273.393 142.737 273.35C142.797 273.307 142.852 273.283 142.903 273.279C142.966 273.275 143.018 273.29 143.059 273.324C143.113 273.358 143.144 273.439 143.154 273.565L144.303 285.573C144.344 285.926 144.407 286.169 144.494 286.303C144.58 286.423 144.745 286.506 144.99 286.55L145.241 286.588C145.396 286.614 145.478 286.684 145.487 286.797C145.498 286.936 145.396 287.014 145.181 287.031L142.051 287.276C141.887 287.289 141.8 287.232 141.79 287.106C141.779 286.966 141.899 286.874 142.15 286.829L142.526 286.762C142.739 286.72 142.879 286.639 142.946 286.519C143.026 286.398 143.055 286.199 143.033 285.921L142.765 282.984C142.739 282.655 142.556 282.504 142.214 282.531L140.185 282.69C139.856 282.715 139.623 282.899 139.484 283.241L138.45 285.878C138.165 286.626 138.31 287.015 138.885 287.047L139.153 287.064C139.345 287.074 139.446 287.143 139.456 287.269C139.466 287.408 139.364 287.486 139.149 287.503L136.399 287.718ZM140.216 282.115L142.341 281.949C142.556 281.932 142.655 281.816 142.638 281.601L142.195 276.426L142.1 276.434L140.021 281.806C139.977 281.898 139.976 281.974 140.019 282.035C140.062 282.095 140.128 282.122 140.216 282.115ZM150.241 286.807C148.901 286.912 147.894 286.565 147.221 285.765C146.561 284.964 146.168 283.761 146.042 282.155C145.982 281.384 146.014 280.574 146.138 279.724C146.263 278.875 146.471 278.044 146.764 277.233C147.068 276.408 147.449 275.659 147.905 274.987C148.361 274.316 148.891 273.765 149.493 273.337C150.108 272.907 150.789 272.663 151.535 272.604C152.42 272.535 153.246 272.77 154.013 273.307C154.148 273.399 154.203 273.534 154.179 273.714L153.834 276.623C153.812 276.828 153.725 276.936 153.573 276.948C153.421 276.96 153.338 276.865 153.322 276.663L153.245 275.925C153.138 274.877 152.927 274.143 152.615 273.722C152.302 273.301 151.886 273.111 151.368 273.152C150.875 273.19 150.417 273.43 149.993 273.87C149.568 274.297 149.186 274.862 148.847 275.562C148.506 276.251 148.216 277.011 147.976 277.844C147.747 278.663 147.582 279.484 147.481 280.306C147.38 281.128 147.357 281.887 147.411 282.582C147.5 283.72 147.744 284.636 148.141 285.33C148.552 286.023 149.162 286.338 149.971 286.275C150.451 286.237 150.862 286.034 151.202 285.663C151.553 285.28 151.892 284.649 152.218 283.771L152.565 282.847C152.616 282.691 152.705 282.607 152.832 282.597C153.034 282.582 153.113 282.696 153.069 282.941L152.541 285.959C152.506 286.153 152.413 286.275 152.265 286.325C152.056 286.417 151.751 286.511 151.352 286.606C150.953 286.713 150.583 286.78 150.241 286.807ZM159.021 286.121C157.68 286.225 156.674 285.878 156 285.078C155.34 284.278 154.947 283.074 154.821 281.469C154.761 280.697 154.793 279.887 154.917 279.038C155.042 278.188 155.25 277.358 155.543 276.546C155.848 275.721 156.228 274.972 156.684 274.301C157.141 273.629 157.67 273.079 158.272 272.65C158.888 272.22 159.568 271.976 160.314 271.918C161.199 271.849 162.025 272.083 162.793 272.621C162.927 272.712 162.982 272.848 162.958 273.028L162.613 275.936C162.591 276.141 162.504 276.25 162.352 276.262C162.201 276.274 162.117 276.178 162.101 275.976L162.024 275.238C161.917 274.19 161.707 273.456 161.394 273.036C161.081 272.615 160.666 272.425 160.147 272.465C159.654 272.504 159.196 272.743 158.772 273.183C158.348 273.611 157.966 274.175 157.626 274.876C157.285 275.564 156.995 276.325 156.755 277.157C156.526 277.977 156.362 278.797 156.261 279.62C156.159 280.442 156.136 281.2 156.19 281.896C156.279 283.034 156.523 283.95 156.921 284.644C157.331 285.337 157.941 285.652 158.75 285.588C159.23 285.551 159.641 285.347 159.981 284.977C160.332 284.593 160.671 283.962 160.997 283.085L161.344 282.161C161.396 282.004 161.485 281.921 161.611 281.911C161.813 281.895 161.892 282.01 161.848 282.255L161.321 285.273C161.285 285.466 161.193 285.588 161.044 285.638C160.835 285.731 160.53 285.824 160.131 285.919C159.732 286.027 159.362 286.094 159.021 286.121ZM162.736 285.658C162.559 285.672 162.466 285.616 162.456 285.489C162.445 285.35 162.564 285.252 162.814 285.194L163.189 285.108C163.464 285.048 163.649 284.97 163.743 284.873C163.849 284.763 163.917 284.574 163.947 284.304L165.654 272.95C165.697 272.68 165.683 272.503 165.613 272.419C165.542 272.336 165.379 272.279 165.122 272.248L164.737 272.202C164.57 272.177 164.482 272.113 164.474 272.012C164.462 271.861 164.57 271.776 164.798 271.758L171.132 271.263C171.461 271.237 171.605 271.372 171.565 271.668L171.223 274.862C171.202 275.08 171.109 275.195 170.945 275.208C170.768 275.222 170.685 275.146 170.698 274.979L170.703 274.311C170.716 273.661 170.619 273.16 170.413 272.807C170.22 272.453 169.947 272.214 169.594 272.089C169.253 271.963 168.862 271.917 168.419 271.952C167.914 271.991 167.553 272.096 167.337 272.265C167.12 272.422 166.982 272.688 166.922 273.061L166.237 277.714C166.212 277.894 166.289 277.977 166.466 277.963L167.433 277.887C167.99 277.844 168.371 277.515 168.577 276.901L168.92 275.92C168.971 275.751 169.066 275.66 169.205 275.65C169.28 275.644 169.34 275.671 169.383 275.731C169.437 275.778 169.456 275.853 169.438 275.956L168.786 280.3C168.74 280.52 168.64 280.636 168.489 280.648C168.337 280.66 168.255 280.583 168.242 280.419L168.188 279.488C168.166 279.045 168.087 278.758 167.949 278.629C167.825 278.499 167.617 278.445 167.326 278.468L166.378 278.542C166.188 278.557 166.081 278.654 166.057 278.834L165.329 283.681C165.264 284.144 165.334 284.469 165.539 284.657C165.745 284.844 166.157 284.914 166.777 284.865C167.156 284.836 167.525 284.749 167.882 284.607C168.252 284.451 168.588 284.189 168.89 283.822C169.204 283.454 169.476 282.937 169.703 282.27L170.075 281.172C170.126 281.003 170.221 280.913 170.36 280.902C170.549 280.887 170.621 280.99 170.574 281.21L169.871 284.661C169.818 284.958 169.64 285.118 169.336 285.142L162.736 285.658ZM175.06 284.866C174.706 284.894 174.324 284.886 173.914 284.841C173.516 284.796 173.135 284.724 172.771 284.625C172.419 284.513 172.134 284.376 171.918 284.215C171.85 284.157 171.801 284.097 171.771 284.036C171.753 283.974 171.752 283.878 171.767 283.75L172.065 280.731C172.086 280.5 172.178 280.378 172.342 280.365C172.494 280.354 172.58 280.474 172.6 280.727L172.676 281.465C172.785 282.525 173.028 283.276 173.406 283.717C173.784 284.158 174.358 284.349 175.13 284.288C175.838 284.233 176.406 283.934 176.834 283.392C177.261 282.837 177.442 282.129 177.374 281.27C177.331 280.713 177.134 280.143 176.783 279.56C176.432 278.977 175.961 278.403 175.37 277.839C174.668 277.169 174.136 276.549 173.774 275.979C173.424 275.409 173.223 274.795 173.172 274.137C173.131 273.619 173.219 273.109 173.434 272.609C173.648 272.096 173.996 271.662 174.477 271.306C174.97 270.937 175.614 270.721 176.411 270.659C177.511 270.573 178.371 270.754 178.991 271.201C179.179 271.327 179.259 271.53 179.23 271.812L178.915 274.623C178.892 274.816 178.811 274.917 178.672 274.928C178.533 274.939 178.442 274.838 178.4 274.625L178.35 274.228C178.22 273.208 178.013 272.442 177.732 271.93C177.461 271.404 176.979 271.168 176.283 271.222C175.777 271.262 175.382 271.407 175.096 271.659C174.81 271.91 174.611 272.212 174.499 272.564C174.386 272.904 174.342 273.238 174.368 273.567C174.396 273.933 174.474 274.283 174.602 274.617C174.729 274.938 174.928 275.278 175.197 275.639C175.479 275.986 175.856 276.408 176.327 276.905C176.99 277.579 177.518 278.231 177.911 278.861C178.304 279.492 178.525 280.117 178.573 280.737C178.631 281.483 178.513 282.16 178.217 282.768C177.932 283.363 177.519 283.847 176.975 284.22C176.432 284.594 175.794 284.809 175.06 284.866ZM183.099 284.238C182.745 284.265 182.362 284.257 181.952 284.213C181.554 284.168 181.173 284.096 180.809 283.997C180.457 283.884 180.173 283.748 179.957 283.586C179.888 283.528 179.839 283.468 179.809 283.407C179.791 283.345 179.79 283.25 179.806 283.121L180.104 280.102C180.124 279.871 180.216 279.75 180.381 279.737C180.532 279.725 180.618 279.845 180.638 280.098L180.715 280.837C180.823 281.897 181.066 282.647 181.444 283.088C181.822 283.53 182.397 283.72 183.168 283.66C183.876 283.604 184.444 283.305 184.873 282.763C185.3 282.208 185.48 281.501 185.413 280.641C185.369 280.085 185.172 279.515 184.821 278.932C184.47 278.348 183.999 277.775 183.408 277.21C182.707 276.54 182.175 275.92 181.812 275.351C181.462 274.78 181.262 274.166 181.21 273.508C181.17 272.99 181.257 272.481 181.472 271.981C181.687 271.468 182.034 271.033 182.515 270.678C183.008 270.308 183.653 270.093 184.449 270.03C185.549 269.944 186.409 270.125 187.03 270.573C187.217 270.698 187.297 270.902 187.268 271.184L186.954 273.994C186.931 274.187 186.849 274.289 186.71 274.3C186.571 274.31 186.481 274.209 186.439 273.996L186.389 273.6C186.258 272.579 186.052 271.813 185.77 271.301C185.5 270.775 185.017 270.539 184.322 270.594C183.816 270.633 183.42 270.779 183.134 271.03C182.849 271.281 182.65 271.583 182.537 271.935C182.424 272.275 182.38 272.609 182.406 272.938C182.435 273.305 182.513 273.655 182.641 273.988C182.768 274.309 182.966 274.65 183.236 275.01C183.517 275.357 183.894 275.779 184.365 276.277C185.029 276.95 185.557 277.602 185.949 278.233C186.342 278.864 186.563 279.489 186.611 280.108C186.67 280.854 186.551 281.531 186.255 282.14C185.971 282.734 185.557 283.218 185.014 283.592C184.47 283.965 183.832 284.18 183.099 284.238Z" fill="#312923"/>
<path d="M200.393 272.616L201.361 276.119L200.949 279.729L199.981 276.226L200.393 272.616Z" fill="#312923"/>
<path d="M197.114 276.451L200.724 276.863L204.226 275.895L200.616 275.483L197.114 276.451Z" fill="#312923"/>
<path d="M213.329 281.702C213.177 281.714 213.096 281.657 213.087 281.53C213.078 281.417 213.172 281.327 213.371 281.26L213.67 281.18C213.919 281.109 214.131 280.972 214.305 280.767C214.467 280.551 214.616 280.26 214.752 279.893L219.496 267.595C219.549 267.464 219.606 267.377 219.666 267.334C219.727 267.291 219.782 267.268 219.833 267.264C219.896 267.259 219.948 267.274 219.989 267.309C220.042 267.343 220.074 267.423 220.084 267.549L221.233 279.558C221.273 279.911 221.337 280.154 221.424 280.287C221.509 280.407 221.675 280.49 221.92 280.534L222.171 280.572C222.326 280.598 222.408 280.668 222.416 280.782C222.427 280.921 222.325 280.999 222.11 281.016L218.981 281.26C218.817 281.273 218.729 281.216 218.72 281.09C218.709 280.951 218.829 280.859 219.08 280.814L219.456 280.746C219.669 280.704 219.809 280.623 219.876 280.503C219.955 280.383 219.984 280.183 219.963 279.905L219.695 276.968C219.669 276.64 219.485 276.489 219.144 276.515L217.115 276.674C216.786 276.7 216.552 276.883 216.414 277.225L215.38 279.863C215.095 280.61 215.24 281 215.814 281.031L216.083 281.048C216.275 281.059 216.375 281.127 216.385 281.253C216.396 281.392 216.294 281.47 216.079 281.487L213.329 281.702ZM217.146 276.099L219.27 275.933C219.485 275.916 219.584 275.8 219.568 275.585L219.125 270.41L219.03 270.418L216.95 275.79C216.907 275.882 216.906 275.959 216.949 276.019C216.992 276.079 217.058 276.106 217.146 276.099ZM227.171 280.792C225.831 280.896 224.824 280.549 224.151 279.749C223.49 278.949 223.097 277.745 222.972 276.14C222.912 275.368 222.944 274.558 223.068 273.709C223.192 272.859 223.401 272.029 223.694 271.217C223.998 270.392 224.378 269.643 224.835 268.972C225.291 268.3 225.82 267.75 226.423 267.321C227.038 266.891 227.719 266.647 228.465 266.589C229.35 266.52 230.176 266.754 230.943 267.292C231.077 267.383 231.133 267.519 231.109 267.699L230.764 270.607C230.741 270.812 230.654 270.921 230.503 270.933C230.351 270.945 230.267 270.849 230.251 270.647L230.175 269.909C230.067 268.861 229.857 268.127 229.544 267.706C229.232 267.286 228.816 267.096 228.298 267.136C227.805 267.175 227.346 267.414 226.923 267.854C226.498 268.282 226.116 268.846 225.777 269.547C225.436 270.235 225.146 270.995 224.905 271.828C224.677 272.648 224.512 273.468 224.411 274.291C224.31 275.113 224.287 275.871 224.341 276.567C224.43 277.705 224.673 278.621 225.071 279.315C225.481 280.008 226.091 280.323 226.901 280.259C227.381 280.222 227.791 280.018 228.131 279.648C228.483 279.264 228.822 278.633 229.147 277.756L229.495 276.832C229.546 276.675 229.635 276.592 229.761 276.582C229.964 276.566 230.043 276.681 229.998 276.926L229.471 279.944C229.435 280.137 229.343 280.259 229.194 280.309C228.985 280.402 228.681 280.495 228.281 280.59C227.883 280.698 227.513 280.765 227.171 280.792ZM235.95 280.105C234.61 280.21 233.603 279.862 232.93 279.063C232.27 278.262 231.877 277.059 231.751 275.453C231.691 274.682 231.723 273.871 231.847 273.022C231.972 272.173 232.18 271.342 232.473 270.531C232.777 269.705 233.158 268.957 233.614 268.285C234.07 267.613 234.6 267.063 235.202 266.634C235.817 266.205 236.498 265.961 237.244 265.902C238.129 265.833 238.955 266.067 239.722 266.605C239.857 266.696 239.912 266.832 239.888 267.012L239.543 269.92C239.521 270.126 239.434 270.234 239.282 270.246C239.13 270.258 239.046 270.163 239.031 269.96L238.954 269.222C238.846 268.175 238.636 267.441 238.324 267.02C238.011 266.599 237.595 266.409 237.077 266.45C236.584 266.488 236.125 266.727 235.702 267.168C235.277 267.595 234.895 268.159 234.556 268.86C234.215 269.548 233.925 270.309 233.685 271.142C233.456 271.961 233.291 272.782 233.19 273.604C233.089 274.426 233.066 275.185 233.12 275.88C233.209 277.018 233.453 277.934 233.85 278.628C234.261 279.321 234.87 279.636 235.68 279.573C236.16 279.535 236.57 279.331 236.91 278.961C237.262 278.578 237.601 277.947 237.926 277.069L238.274 276.145C238.325 275.988 238.414 275.905 238.541 275.895C238.743 275.879 238.822 275.994 238.777 276.239L238.25 279.257C238.214 279.451 238.122 279.573 237.973 279.622C237.764 279.715 237.46 279.809 237.06 279.904C236.662 280.011 236.292 280.078 235.95 280.105ZM239.666 279.643C239.489 279.656 239.395 279.6 239.386 279.474C239.375 279.335 239.494 279.236 239.744 279.179L240.119 279.092C240.394 279.032 240.579 278.954 240.673 278.858C240.779 278.748 240.847 278.558 240.877 278.289L242.584 266.935C242.626 266.664 242.612 266.487 242.542 266.404C242.472 266.32 242.309 266.263 242.052 266.232L241.667 266.186C241.499 266.161 241.412 266.098 241.404 265.997C241.392 265.845 241.5 265.76 241.727 265.742L248.062 265.247C248.391 265.221 248.535 265.356 248.494 265.652L248.153 268.846C248.132 269.064 248.039 269.18 247.874 269.193C247.697 269.206 247.615 269.13 247.628 268.964L247.633 268.296C247.645 267.646 247.549 267.144 247.343 266.792C247.15 266.438 246.877 266.198 246.524 266.073C246.183 265.947 245.792 265.902 245.349 265.936C244.843 265.976 244.482 266.08 244.267 266.25C244.05 266.407 243.912 266.672 243.852 267.046L243.166 271.698C243.142 271.878 243.219 271.961 243.396 271.947L244.363 271.871C244.919 271.828 245.301 271.499 245.507 270.885L245.85 269.904C245.9 269.735 245.995 269.645 246.134 269.634C246.21 269.628 246.27 269.655 246.312 269.715C246.367 269.762 246.386 269.837 246.368 269.94L245.716 274.285C245.669 274.504 245.57 274.62 245.418 274.632C245.267 274.644 245.184 274.568 245.172 274.403L245.118 273.473C245.096 273.029 245.016 272.743 244.879 272.613C244.754 272.483 244.547 272.43 244.256 272.452L243.307 272.526C243.118 272.541 243.011 272.639 242.987 272.819L242.259 277.665C242.193 278.128 242.263 278.454 242.469 278.641C242.674 278.829 243.087 278.898 243.706 278.85C244.086 278.82 244.454 278.734 244.812 278.591C245.182 278.435 245.517 278.174 245.819 277.807C246.134 277.438 246.405 276.921 246.633 276.255L247.005 275.157C247.055 274.988 247.15 274.897 247.289 274.887C247.479 274.872 247.551 274.974 247.504 275.194L246.801 278.646C246.748 278.942 246.569 279.103 246.266 279.126L239.666 279.643ZM251.99 278.851C251.636 278.878 251.254 278.87 250.843 278.826C250.445 278.781 250.064 278.709 249.701 278.61C249.348 278.497 249.064 278.361 248.848 278.199C248.78 278.141 248.731 278.081 248.7 278.02C248.683 277.958 248.682 277.863 248.697 277.734L248.995 274.715C249.015 274.484 249.108 274.363 249.272 274.35C249.424 274.338 249.509 274.459 249.529 274.711L249.606 275.45C249.714 276.51 249.958 277.26 250.335 277.701C250.713 278.143 251.288 278.333 252.059 278.273C252.767 278.217 253.336 277.918 253.764 277.376C254.191 276.821 254.371 276.114 254.304 275.254C254.26 274.698 254.063 274.128 253.712 273.545C253.361 272.961 252.89 272.388 252.299 271.823C251.598 271.153 251.066 270.533 250.704 269.964C250.354 269.393 250.153 268.779 250.102 268.122C250.061 267.603 250.148 267.094 250.364 266.594C250.578 266.081 250.926 265.646 251.407 265.291C251.899 264.921 252.544 264.706 253.341 264.643C254.441 264.557 255.301 264.738 255.921 265.186C256.109 265.311 256.188 265.515 256.16 265.797L255.845 268.607C255.822 268.8 255.741 268.902 255.602 268.913C255.463 268.923 255.372 268.822 255.33 268.609L255.28 268.213C255.149 267.192 254.943 266.426 254.661 265.914C254.391 265.388 253.908 265.152 253.213 265.207C252.707 265.246 252.311 265.392 252.026 265.643C251.74 265.894 251.541 266.196 251.429 266.548C251.315 266.888 251.272 267.222 251.297 267.551C251.326 267.918 251.404 268.268 251.532 268.601C251.659 268.922 251.857 269.263 252.127 269.623C252.409 269.97 252.785 270.392 253.257 270.89C253.92 271.563 254.448 272.215 254.841 272.846C255.234 273.477 255.454 274.102 255.503 274.721C255.561 275.467 255.442 276.144 255.146 276.753C254.862 277.347 254.448 277.831 253.905 278.205C253.362 278.578 252.723 278.793 251.99 278.851ZM260.028 278.222C259.674 278.25 259.292 278.241 258.882 278.197C258.484 278.152 258.103 278.08 257.739 277.981C257.387 277.869 257.102 277.732 256.886 277.571C256.818 277.513 256.769 277.453 256.739 277.392C256.721 277.329 256.72 277.234 256.735 277.106L257.034 274.086C257.054 273.856 257.146 273.734 257.31 273.721C257.462 273.709 257.548 273.83 257.568 274.083L257.644 274.821C257.753 275.881 257.996 276.632 258.374 277.073C258.752 277.514 259.326 277.704 260.098 277.644C260.806 277.589 261.374 277.29 261.802 276.747C262.23 276.192 262.41 275.485 262.342 274.625C262.299 274.069 262.102 273.499 261.751 272.916C261.4 272.333 260.929 271.759 260.338 271.195C259.636 270.524 259.104 269.904 258.742 269.335C258.392 268.764 258.191 268.15 258.14 267.493C258.099 266.974 258.187 266.465 258.402 265.965C258.616 265.452 258.964 265.018 259.445 264.662C259.938 264.293 260.582 264.077 261.379 264.015C262.479 263.929 263.339 264.109 263.959 264.557C264.147 264.682 264.227 264.886 264.198 265.168L263.883 267.979C263.86 268.171 263.779 268.273 263.64 268.284C263.501 268.295 263.41 268.194 263.368 267.981L263.318 267.584C263.188 266.564 262.981 265.798 262.7 265.285C262.429 264.759 261.947 264.524 261.251 264.578C260.745 264.618 260.35 264.763 260.064 265.014C259.778 265.266 259.579 265.567 259.467 265.92C259.354 266.259 259.31 266.594 259.336 266.922C259.364 267.289 259.442 267.639 259.57 267.973C259.697 268.293 259.896 268.634 260.165 268.995C260.447 269.341 260.824 269.764 261.295 270.261C261.958 270.934 262.486 271.586 262.879 272.217C263.272 272.848 263.493 273.473 263.541 274.093C263.599 274.839 263.481 275.516 263.185 276.124C262.9 276.719 262.487 277.203 261.943 277.576C261.4 277.949 260.762 278.165 260.028 278.222Z" fill="#312923"/>
<path d="M277.315 266.6L278.283 270.102L277.871 273.712L276.903 270.21L277.315 266.6Z" fill="#312923"/>
<path d="M274.036 270.435L277.646 270.847L281.148 269.879L277.538 269.467L274.036 270.435Z" fill="#312923"/>
<path d="M290.251 275.686C290.099 275.698 290.018 275.641 290.008 275.514C290 275.401 290.094 275.31 290.293 275.244L290.592 275.163C290.841 275.093 291.052 274.956 291.227 274.751C291.388 274.535 291.537 274.243 291.674 273.877L296.418 261.579C296.471 261.448 296.528 261.361 296.588 261.318C296.649 261.275 296.704 261.252 296.755 261.248C296.818 261.243 296.87 261.258 296.911 261.293C296.964 261.327 296.996 261.407 297.006 261.533L298.155 273.542C298.195 273.895 298.259 274.138 298.345 274.271C298.431 274.391 298.597 274.474 298.842 274.518L299.093 274.556C299.248 274.582 299.329 274.652 299.338 274.766C299.349 274.905 299.247 274.983 299.032 274.999L295.903 275.244C295.738 275.257 295.651 275.2 295.641 275.074C295.631 274.935 295.751 274.843 296.001 274.798L296.378 274.73C296.591 274.688 296.731 274.607 296.798 274.487C296.877 274.367 296.906 274.167 296.884 273.889L296.617 270.952C296.591 270.623 296.407 270.472 296.066 270.499L294.037 270.658C293.708 270.684 293.474 270.867 293.336 271.209L292.301 273.847C292.016 274.594 292.161 274.983 292.736 275.015L293.005 275.032C293.196 275.042 293.297 275.111 293.307 275.237C293.318 275.376 293.216 275.454 293.001 275.471L290.251 275.686ZM294.068 270.083L296.192 269.917C296.407 269.9 296.506 269.784 296.489 269.569L296.047 264.394L295.952 264.402L293.872 269.774C293.828 269.866 293.828 269.943 293.871 270.003C293.914 270.063 293.979 270.09 294.068 270.083ZM304.093 274.775C302.753 274.88 301.746 274.533 301.073 273.733C300.412 272.932 300.019 271.729 299.894 270.123C299.833 269.352 299.865 268.542 299.99 267.692C300.114 266.843 300.323 266.013 300.616 265.201C300.92 264.376 301.3 263.627 301.757 262.956C302.213 262.284 302.742 261.734 303.345 261.305C303.96 260.875 304.641 260.631 305.387 260.573C306.272 260.503 307.098 260.738 307.865 261.276C307.999 261.367 308.054 261.503 308.03 261.683L307.685 264.591C307.663 264.796 307.576 264.905 307.425 264.917C307.273 264.928 307.189 264.833 307.173 264.631L307.096 263.893C306.989 262.845 306.779 262.111 306.466 261.69C306.154 261.27 305.738 261.079 305.22 261.12C304.726 261.159 304.268 261.398 303.845 261.838C303.42 262.266 303.038 262.83 302.698 263.531C302.358 264.219 302.067 264.979 301.827 265.812C301.599 266.632 301.434 267.452 301.333 268.274C301.232 269.096 301.208 269.855 301.263 270.551C301.352 271.689 301.595 272.605 301.993 273.299C302.403 273.992 303.013 274.306 303.822 274.243C304.303 274.206 304.713 274.002 305.053 273.632C305.405 273.248 305.743 272.617 306.069 271.739L306.417 270.815C306.468 270.659 306.557 270.576 306.683 270.566C306.886 270.55 306.965 270.664 306.92 270.91L306.393 273.928C306.357 274.121 306.265 274.243 306.116 274.293C305.907 274.385 305.603 274.479 305.203 274.574C304.804 274.682 304.434 274.749 304.093 274.775ZM312.872 274.089C311.532 274.194 310.525 273.846 309.852 273.047C309.192 272.246 308.798 271.043 308.673 269.437C308.613 268.666 308.645 267.855 308.769 267.006C308.893 266.157 309.102 265.326 309.395 264.514C309.699 263.689 310.079 262.941 310.536 262.269C310.992 261.597 311.521 261.047 312.124 260.618C312.739 260.188 313.42 259.944 314.166 259.886C315.051 259.817 315.877 260.051 316.644 260.589C316.779 260.68 316.834 260.816 316.81 260.996L316.465 263.904C316.442 264.11 316.356 264.218 316.204 264.23C316.052 264.242 315.968 264.147 315.952 263.944L315.876 263.206C315.768 262.159 315.558 261.425 315.245 261.004C314.933 260.583 314.517 260.393 313.999 260.433C313.506 260.472 313.047 260.711 312.624 261.152C312.199 261.579 311.817 262.143 311.478 262.844C311.137 263.532 310.847 264.293 310.607 265.126C310.378 265.945 310.213 266.766 310.112 267.588C310.011 268.41 309.988 269.169 310.042 269.864C310.131 271.002 310.374 271.918 310.772 272.612C311.183 273.305 311.792 273.62 312.602 273.557C313.082 273.519 313.492 273.315 313.832 272.945C314.184 272.561 314.523 271.931 314.848 271.053L315.196 270.129C315.247 269.972 315.336 269.889 315.463 269.879C315.665 269.863 315.744 269.978 315.699 270.223L315.172 273.241C315.136 273.435 315.044 273.556 314.895 273.606C314.686 273.699 314.382 273.793 313.982 273.888C313.584 273.995 313.214 274.062 312.872 274.089ZM316.588 273.627C316.411 273.64 316.317 273.584 316.307 273.458C316.297 273.319 316.416 273.22 316.666 273.162L317.041 273.076C317.316 273.016 317.501 272.938 317.595 272.842C317.701 272.732 317.769 272.542 317.799 272.272L319.506 260.919C319.548 260.648 319.534 260.471 319.464 260.388C319.394 260.304 319.231 260.247 318.974 260.216L318.588 260.17C318.421 260.145 318.334 260.082 318.326 259.981C318.314 259.829 318.422 259.744 318.649 259.726L324.984 259.231C325.313 259.205 325.457 259.34 325.416 259.636L325.075 262.83C325.053 263.048 324.961 263.164 324.796 263.176C324.619 263.19 324.537 263.114 324.549 262.948L324.554 262.279C324.567 261.63 324.471 261.128 324.265 260.775C324.072 260.422 323.799 260.182 323.446 260.057C323.105 259.931 322.713 259.885 322.271 259.92C321.765 259.96 321.404 260.064 321.189 260.234C320.972 260.391 320.834 260.656 320.774 261.029L320.088 265.682C320.064 265.862 320.141 265.945 320.318 265.931L321.285 265.855C321.841 265.812 322.223 265.483 322.429 264.869L322.772 263.888C322.822 263.719 322.917 263.629 323.056 263.618C323.132 263.612 323.191 263.639 323.234 263.699C323.289 263.746 323.307 263.821 323.29 263.924L322.638 268.268C322.591 268.488 322.492 268.604 322.34 268.616C322.189 268.628 322.106 268.552 322.093 268.387L322.04 267.456C322.018 267.013 321.938 266.727 321.801 266.597C321.676 266.467 321.468 266.413 321.178 266.436L320.229 266.51C320.04 266.525 319.933 266.623 319.909 266.803L319.181 271.649C319.115 272.112 319.185 272.437 319.391 272.625C319.596 272.812 320.009 272.882 320.628 272.833C321.008 272.804 321.376 272.718 321.734 272.575C322.103 272.419 322.439 272.158 322.741 271.79C323.056 271.422 323.327 270.905 323.555 270.238L323.927 269.141C323.977 268.971 324.072 268.881 324.211 268.87C324.401 268.856 324.472 268.958 324.426 269.178L323.723 272.63C323.67 272.926 323.491 273.087 323.188 273.11L316.588 273.627ZM328.912 272.834C328.558 272.862 328.176 272.854 327.765 272.81C327.367 272.764 326.986 272.692 326.622 272.594C326.27 272.481 325.986 272.345 325.77 272.183C325.702 272.125 325.652 272.065 325.622 272.004C325.605 271.942 325.603 271.846 325.619 271.718L325.917 268.699C325.937 268.468 326.029 268.347 326.194 268.334C326.346 268.322 326.431 268.442 326.451 268.695L326.528 269.433C326.636 270.494 326.879 271.244 327.257 271.685C327.635 272.126 328.21 272.317 328.981 272.257C329.689 272.201 330.257 271.902 330.686 271.36C331.113 270.805 331.293 270.098 331.226 269.238C331.182 268.681 330.985 268.112 330.634 267.529C330.283 266.945 329.812 266.372 329.221 265.807C328.52 265.137 327.988 264.517 327.625 263.947C327.275 263.377 327.075 262.763 327.023 262.105C326.983 261.587 327.07 261.078 327.286 260.577C327.5 260.065 327.848 259.63 328.329 259.275C328.821 258.905 329.466 258.69 330.262 258.627C331.362 258.541 332.223 258.722 332.843 259.17C333.031 259.295 333.11 259.499 333.081 259.781L332.767 262.591C332.744 262.784 332.663 262.886 332.524 262.896C332.385 262.907 332.294 262.806 332.252 262.593L332.202 262.197C332.071 261.176 331.865 260.41 331.583 259.898C331.313 259.372 330.83 259.136 330.135 259.191C329.629 259.23 329.233 259.376 328.948 259.627C328.662 259.878 328.463 260.18 328.351 260.532C328.237 260.872 328.193 261.206 328.219 261.535C328.248 261.902 328.326 262.252 328.454 262.585C328.581 262.906 328.779 263.247 329.049 263.607C329.331 263.954 329.707 264.376 330.179 264.874C330.842 265.547 331.37 266.199 331.763 266.83C332.155 267.46 332.376 268.086 332.425 268.705C332.483 269.451 332.364 270.128 332.068 270.737C331.784 271.331 331.37 271.815 330.827 272.189C330.284 272.562 329.645 272.777 328.912 272.834ZM336.95 272.206C336.596 272.233 336.214 272.225 335.803 272.181C335.406 272.136 335.025 272.064 334.661 271.965C334.308 271.853 334.024 271.716 333.808 271.555C333.74 271.496 333.691 271.437 333.66 271.375C333.643 271.313 333.642 271.218 333.657 271.089L333.955 268.07C333.976 267.84 334.068 267.718 334.232 267.705C334.384 267.693 334.47 267.814 334.489 268.067L334.566 268.805C334.675 269.865 334.918 270.616 335.296 271.057C335.674 271.498 336.248 271.688 337.02 271.628C337.728 271.573 338.296 271.274 338.724 270.731C339.151 270.176 339.331 269.469 339.264 268.609C339.221 268.053 339.023 267.483 338.673 266.9C338.322 266.317 337.851 265.743 337.259 265.179C336.558 264.508 336.026 263.888 335.664 263.319C335.314 262.748 335.113 262.134 335.062 261.477C335.021 260.958 335.109 260.449 335.324 259.949C335.538 259.436 335.886 259.002 336.367 258.646C336.86 258.277 337.504 258.061 338.301 257.999C339.401 257.913 340.261 258.093 340.881 258.541C341.069 258.666 341.149 258.87 341.12 259.152L340.805 261.963C340.782 262.155 340.701 262.257 340.562 262.268C340.423 262.279 340.332 262.178 340.29 261.965L340.24 261.568C340.109 260.548 339.903 259.781 339.621 259.269C339.351 258.743 338.869 258.508 338.173 258.562C337.667 258.601 337.272 258.747 336.986 258.998C336.7 259.25 336.501 259.551 336.389 259.904C336.276 260.243 336.232 260.577 336.257 260.906C336.286 261.273 336.364 261.623 336.492 261.956C336.619 262.277 336.817 262.618 337.087 262.978C337.369 263.325 337.745 263.748 338.217 264.245C338.88 264.918 339.408 265.57 339.801 266.201C340.194 266.832 340.414 267.457 340.463 268.077C340.521 268.823 340.402 269.5 340.107 270.108C339.822 270.703 339.409 271.187 338.865 271.56C338.322 271.933 337.684 272.148 336.95 272.206Z" fill="#312923"/>
<path d="M354.237 260.585L355.205 264.087L354.793 267.697L353.825 264.195L354.237 260.585Z" fill="#312923"/>
<path d="M350.958 264.419L354.568 264.831L358.07 263.863L354.46 263.451L350.958 264.419Z" fill="#312923"/>
<path d="M367.173 269.671C367.021 269.682 366.94 269.625 366.93 269.499C366.921 269.385 367.016 269.295 367.215 269.228L367.514 269.148C367.762 269.077 367.974 268.94 368.149 268.736C368.31 268.519 368.459 268.228 368.596 267.861L373.34 255.564C373.393 255.432 373.45 255.345 373.51 255.302C373.57 255.259 373.626 255.236 373.676 255.232C373.74 255.227 373.792 255.242 373.833 255.277C373.886 255.311 373.918 255.391 373.928 255.518L375.077 267.526C375.117 267.879 375.181 268.122 375.267 268.255C375.353 268.376 375.519 268.458 375.764 268.503L376.015 268.54C376.169 268.566 376.251 268.636 376.26 268.75C376.271 268.889 376.169 268.967 375.954 268.984L372.825 269.229C372.66 269.241 372.573 269.185 372.563 269.058C372.552 268.919 372.672 268.827 372.923 268.782L373.3 268.714C373.513 268.672 373.653 268.591 373.72 268.472C373.799 268.351 373.828 268.151 373.806 267.873L373.539 264.937C373.513 264.608 373.329 264.457 372.988 264.483L370.958 264.642C370.63 264.668 370.396 264.852 370.257 265.193L369.223 267.831C368.938 268.578 369.083 268.968 369.658 268.999L369.927 269.016C370.118 269.027 370.219 269.095 370.229 269.222C370.24 269.361 370.138 269.439 369.923 269.456L367.173 269.671ZM370.99 264.067L373.114 263.901C373.329 263.884 373.428 263.768 373.411 263.554L372.968 258.379L372.874 258.386L370.794 263.758C370.75 263.851 370.75 263.927 370.793 263.987C370.836 264.048 370.901 264.074 370.99 264.067ZM381.015 268.76C379.675 268.865 378.668 268.517 377.995 267.717C377.334 266.917 376.941 265.714 376.816 264.108C376.755 263.337 376.787 262.526 376.912 261.677C377.036 260.828 377.245 259.997 377.537 259.185C377.842 258.36 378.222 257.612 378.678 256.94C379.135 256.268 379.664 255.718 380.267 255.289C380.882 254.859 381.562 254.615 382.308 254.557C383.194 254.488 384.02 254.722 384.787 255.26C384.921 255.351 384.976 255.487 384.952 255.667L384.607 258.575C384.585 258.781 384.498 258.889 384.347 258.901C384.195 258.913 384.111 258.818 384.095 258.615L384.018 257.877C383.911 256.83 383.701 256.096 383.388 255.675C383.075 255.254 382.66 255.064 382.141 255.104C381.648 255.143 381.19 255.382 380.766 255.823C380.342 256.25 379.96 256.814 379.62 257.515C379.28 258.203 378.989 258.964 378.749 259.797C378.521 260.616 378.356 261.437 378.255 262.259C378.154 263.081 378.13 263.84 378.185 264.535C378.274 265.673 378.517 266.589 378.915 267.283C379.325 267.976 379.935 268.291 380.744 268.228C381.225 268.19 381.635 267.986 381.975 267.616C382.327 267.232 382.665 266.602 382.991 265.724L383.339 264.8C383.39 264.643 383.479 264.56 383.605 264.55C383.808 264.534 383.886 264.649 383.842 264.894L383.315 267.912C383.279 268.106 383.187 268.227 383.038 268.277C382.829 268.37 382.525 268.464 382.125 268.558C381.726 268.666 381.356 268.733 381.015 268.76ZM389.794 268.073C388.454 268.178 387.447 267.831 386.774 267.031C386.113 266.23 385.72 265.027 385.595 263.421C385.534 262.65 385.566 261.84 385.691 260.99C385.815 260.141 386.024 259.31 386.317 258.499C386.621 257.674 387.001 256.925 387.458 256.253C387.914 255.582 388.443 255.031 389.046 254.603C389.661 254.173 390.342 253.929 391.088 253.87C391.973 253.801 392.799 254.036 393.566 254.573C393.7 254.665 393.756 254.8 393.731 254.98L393.386 257.889C393.364 258.094 393.277 258.203 393.126 258.214C392.974 258.226 392.89 258.131 392.874 257.929L392.798 257.191C392.69 256.143 392.48 255.409 392.167 254.988C391.855 254.567 391.439 254.377 390.921 254.418C390.427 254.456 389.969 254.696 389.546 255.136C389.121 255.564 388.739 256.128 388.399 256.828C388.059 257.517 387.769 258.277 387.528 259.11C387.3 259.929 387.135 260.75 387.034 261.572C386.933 262.394 386.91 263.153 386.964 263.848C387.053 264.986 387.296 265.902 387.694 266.596C388.104 267.289 388.714 267.604 389.523 267.541C390.004 267.503 390.414 267.3 390.754 266.93C391.106 266.546 391.444 265.915 391.77 265.037L392.118 264.113C392.169 263.957 392.258 263.873 392.384 263.863C392.587 263.848 392.666 263.962 392.621 264.207L392.094 267.225C392.058 267.419 391.966 267.541 391.817 267.591C391.608 267.683 391.304 267.777 390.904 267.872C390.505 267.979 390.135 268.047 389.794 268.073ZM393.51 267.611C393.333 267.625 393.239 267.568 393.229 267.442C393.218 267.303 393.338 267.205 393.588 267.147L393.963 267.06C394.238 267.001 394.423 266.923 394.517 266.826C394.623 266.716 394.691 266.526 394.72 266.257L396.428 254.903C396.47 254.633 396.456 254.456 396.386 254.372C396.316 254.288 396.152 254.231 395.896 254.2L395.51 254.154C395.343 254.129 395.255 254.066 395.247 253.965C395.236 253.813 395.343 253.728 395.571 253.711L401.906 253.215C402.234 253.19 402.379 253.325 402.338 253.62L401.996 256.815C401.975 257.033 401.883 257.148 401.718 257.161C401.541 257.175 401.459 257.098 401.471 256.932L401.476 256.264C401.489 255.614 401.393 255.113 401.187 254.76C400.994 254.406 400.721 254.167 400.367 254.042C400.027 253.916 399.635 253.87 399.193 253.904C398.687 253.944 398.326 254.049 398.111 254.218C397.894 254.375 397.756 254.64 397.696 255.014L397.01 259.666C396.986 259.846 397.062 259.929 397.239 259.915L398.207 259.84C398.763 259.796 399.144 259.467 399.351 258.853L399.694 257.872C399.744 257.703 399.839 257.613 399.978 257.602C400.054 257.596 400.113 257.623 400.156 257.684C400.211 257.73 400.229 257.805 400.212 257.908L399.559 262.253C399.513 262.473 399.414 262.589 399.262 262.6C399.11 262.612 399.028 262.536 399.015 262.372L398.962 261.441C398.94 260.997 398.86 260.711 398.723 260.582C398.598 260.452 398.39 260.398 398.099 260.421L397.151 260.495C396.961 260.51 396.855 260.607 396.831 260.787L396.103 265.633C396.037 266.097 396.107 266.422 396.313 266.609C396.518 266.797 396.931 266.866 397.55 266.818C397.93 266.788 398.298 266.702 398.656 266.56C399.025 266.404 399.361 266.142 399.663 265.775C399.978 265.407 400.249 264.889 400.477 264.223L400.849 263.125C400.899 262.956 400.994 262.866 401.133 262.855C401.323 262.84 401.394 262.943 401.348 263.162L400.645 266.614C400.592 266.911 400.413 267.071 400.11 267.095L393.51 267.611ZM405.834 266.819C405.48 266.847 405.098 266.838 404.687 266.794C404.289 266.749 403.908 266.677 403.544 266.578C403.192 266.466 402.908 266.329 402.692 266.168C402.623 266.109 402.574 266.05 402.544 265.988C402.526 265.926 402.525 265.831 402.541 265.702L402.839 262.683C402.859 262.453 402.951 262.331 403.116 262.318C403.267 262.306 403.353 262.427 403.373 262.68L403.45 263.418C403.558 264.478 403.801 265.229 404.179 265.67C404.557 266.111 405.132 266.301 405.903 266.241C406.611 266.186 407.179 265.887 407.608 265.344C408.035 264.789 408.215 264.082 408.148 263.222C408.104 262.666 407.907 262.096 407.556 261.513C407.205 260.93 406.734 260.356 406.143 259.792C405.442 259.121 404.91 258.501 404.547 257.932C404.197 257.361 403.997 256.747 403.945 256.09C403.905 255.571 403.992 255.062 404.207 254.562C404.422 254.049 404.769 253.615 405.25 253.259C405.743 252.89 406.388 252.674 407.184 252.612C408.284 252.526 409.144 252.706 409.765 253.154C409.953 253.279 410.032 253.483 410.003 253.765L409.689 256.576C409.666 256.768 409.585 256.87 409.446 256.881C409.306 256.892 409.216 256.791 409.174 256.578L409.124 256.181C408.993 255.161 408.787 254.394 408.505 253.882C408.235 253.356 407.752 253.121 407.057 253.175C406.551 253.215 406.155 253.36 405.87 253.611C405.584 253.863 405.385 254.164 405.272 254.517C405.159 254.856 405.115 255.19 405.141 255.519C405.17 255.886 405.248 256.236 405.376 256.569C405.503 256.89 405.701 257.231 405.971 257.591C406.252 257.938 406.629 258.361 407.1 258.858C407.764 259.531 408.292 260.183 408.685 260.814C409.077 261.445 409.298 262.07 409.346 262.69C409.405 263.436 409.286 264.113 408.99 264.721C408.706 265.316 408.292 265.8 407.749 266.173C407.206 266.546 406.567 266.761 405.834 266.819ZM413.872 266.19C413.518 266.218 413.136 266.21 412.725 266.165C412.327 266.12 411.947 266.048 411.583 265.949C411.23 265.837 410.946 265.7 410.73 265.539C410.662 265.481 410.613 265.421 410.582 265.36C410.565 265.298 410.564 265.202 410.579 265.074L410.877 262.055C410.897 261.824 410.99 261.702 411.154 261.689C411.306 261.678 411.392 261.798 411.411 262.051L411.488 262.789C411.596 263.849 411.84 264.6 412.218 265.041C412.596 265.482 413.17 265.673 413.941 265.612C414.65 265.557 415.218 265.258 415.646 264.716C416.073 264.161 416.253 263.453 416.186 262.594C416.143 262.037 415.945 261.467 415.594 260.884C415.243 260.301 414.772 259.727 414.181 259.163C413.48 258.493 412.948 257.873 412.586 257.303C412.236 256.733 412.035 256.119 411.984 255.461C411.943 254.943 412.03 254.433 412.246 253.933C412.46 253.42 412.808 252.986 413.289 252.63C413.781 252.261 414.426 252.045 415.223 251.983C416.323 251.897 417.183 252.078 417.803 252.525C417.991 252.651 418.07 252.854 418.042 253.136L417.727 255.947C417.704 256.14 417.623 256.241 417.484 256.252C417.345 256.263 417.254 256.162 417.212 255.949L417.162 255.552C417.031 254.532 416.825 253.766 416.543 253.254C416.273 252.728 415.79 252.492 415.095 252.546C414.589 252.586 414.194 252.731 413.908 252.983C413.622 253.234 413.423 253.536 413.311 253.888C413.197 254.228 413.154 254.562 413.179 254.891C413.208 255.257 413.286 255.607 413.414 255.941C413.541 256.262 413.739 256.602 414.009 256.963C414.291 257.31 414.667 257.732 415.139 258.229C415.802 258.903 416.33 259.555 416.723 260.185C417.116 260.816 417.336 261.441 417.385 262.061C417.443 262.807 417.324 263.484 417.028 264.092C416.744 264.687 416.33 265.171 415.787 265.544C415.244 265.918 414.606 266.133 413.872 266.19Z" fill="#312923"/>
</g>
<defs>
<linearGradient id="paint0_linear_2001_1972" x1="88" y1="70" x2="482" y2="253.5" gradientUnits="userSpaceOnUse">
<stop stop-color="#F6F6F6"/>
<stop offset="1" stop-color="#F0EAE2"/>
</linearGradient>
<linearGradient id="paint1_linear_2001_1972" x1="200.359" y1="20.5" x2="142.5" y2="136.5" gradientUnits="userSpaceOnUse">
<stop stop-color="#C6B195"/>
<stop offset="1" stop-color="#DBD7CE"/>
</linearGradient>
<linearGradient id="paint2_linear_2001_1972" x1="200.359" y1="395.748" x2="246.5" y2="322.5" gradientUnits="userSpaceOnUse">
<stop stop-color="#C6B195"/>
<stop offset="1" stop-color="#DBD7CE"/>
</linearGradient>
<clipPath id="clip0_2001_1972">
<rect width="400" height="400" fill="white"/>
</clipPath>
<clipPath id="clip1_2001_1972">
<rect width="396.958" height="26.3277" fill="white" transform="translate(1.76562 278.523) rotate(-4.47173)"/>
</clipPath>
</defs>
</svg>
