<svg width="109" height="17" viewBox="0 0 109 17" fill="currentColor" xmlns="http://www.w3.org/2000/svg">
<g clip-path="url(#clip0_1251_9214)">
<mask id="mask0_1251_9214" style="mask-type:luminance" maskUnits="userSpaceOnUse" x="0" y="0" width="109" height="17">
<path d="M108.542 0.820312H0.65625V16.8203H108.542V0.820312Z" fill="white"/>
</mask>
<g mask="url(#mask0_1251_9214)">
<path d="M18.7799 13.4354L15.8206 16.602C15.7566 16.6708 15.6791 16.7257 15.5929 16.7633C15.5067 16.8008 15.4136 16.8203 15.3196 16.8204H1.2911C1.2242 16.8203 1.15875 16.8008 1.10278 16.7642C1.04681 16.7277 1.00275 16.6756 0.975985 16.6144C0.949223 16.5532 0.940922 16.4855 0.952102 16.4197C0.963281 16.3539 0.993452 16.2927 1.03892 16.2437L3.99493 13.077C4.05894 13.0083 4.13645 12.9534 4.22266 12.9158C4.30885 12.8783 4.40189 12.8588 4.49594 12.8587H18.5244C18.5919 12.8573 18.6584 12.8759 18.7153 12.9121C18.7723 12.9483 18.8174 13.0005 18.8446 13.0621C18.872 13.1238 18.8803 13.1921 18.8688 13.2585C18.8573 13.3249 18.8264 13.3865 18.7799 13.4354ZM15.8206 7.05704C15.7564 6.98858 15.6788 6.93391 15.5926 6.89636C15.5065 6.85883 15.4136 6.83921 15.3196 6.83873H1.2911C1.2242 6.83876 1.15875 6.85826 1.10278 6.89486C1.04681 6.93144 1.00275 6.98353 0.975985 7.04473C0.949223 7.10593 0.940922 7.17358 0.952102 7.23941C0.963281 7.30524 0.993452 7.36641 1.03892 7.41539L3.99493 10.5837C4.05917 10.6522 4.13675 10.7069 4.22289 10.7444C4.30903 10.7819 4.40195 10.8016 4.49594 10.802H18.5244C18.5912 10.8017 18.6564 10.7819 18.7121 10.7452C18.7679 10.7085 18.8117 10.6564 18.8382 10.5953C18.8648 10.5342 18.873 10.4666 18.8616 10.4009C18.8504 10.3353 18.8204 10.2743 18.7749 10.2254L15.8206 7.05704ZM1.2911 4.78204H15.3196C15.4136 4.78196 15.5067 4.76251 15.5929 4.72494C15.6791 4.68739 15.7566 4.63249 15.8206 4.56371L18.7799 1.39705C18.8264 1.34814 18.8573 1.2866 18.8688 1.22019C18.8803 1.15377 18.872 1.08545 18.8446 1.0238C18.8174 0.962159 18.7723 0.909955 18.7153 0.87376C18.6584 0.837564 18.5919 0.818994 18.5244 0.820385H4.49594C4.40189 0.820484 4.30885 0.839922 4.22266 0.877486C4.13645 0.91505 4.05894 0.969935 3.99493 1.03872L1.03892 4.20538C0.993452 4.25436 0.963281 4.31553 0.952102 4.38136C0.940922 4.44719 0.949223 4.51484 0.975985 4.57604C1.00275 4.63724 1.04681 4.68933 1.10278 4.72591C1.15875 4.76251 1.2242 4.78201 1.2911 4.78204Z"/>
<path d="M35.8834 7.58669H28.3781V5.12002H37.834V2.65336H28.3531C28.0291 2.65161 27.7081 2.71354 27.4082 2.83562C27.1082 2.95772 26.8352 3.13757 26.605 3.36492C26.3747 3.59227 26.1915 3.86267 26.0659 4.16066C25.9403 4.45866 25.8747 4.77842 25.873 5.10169V7.60169C25.8744 7.92524 25.9395 8.24537 26.0649 8.54374C26.1904 8.84212 26.3734 9.11291 26.6037 9.34061C26.8342 9.56832 27.1072 9.74847 27.4073 9.87077C27.7074 9.99307 28.0289 10.0551 28.3531 10.0534H35.8683V12.52H26.0517V14.9867H35.8834C36.2074 14.9885 36.5283 14.9265 36.8283 14.8044C37.1282 14.6823 37.4013 14.5025 37.6314 14.2751C37.8617 14.0478 38.0449 13.7774 38.1705 13.4794C38.2961 13.1814 38.3617 12.8616 38.3634 12.5384V10.0384C38.3621 9.71481 38.2969 9.39469 38.1715 9.09631C38.0461 8.79792 37.8631 8.52714 37.6328 8.29944C37.4023 8.07174 37.1292 7.89159 36.8291 7.76929C36.529 7.64699 36.2075 7.58494 35.8834 7.58669Z"/>
<path d="M50.4227 2.6534H42.8891C42.5646 2.65077 42.2427 2.71205 41.942 2.83375C41.6414 2.95545 41.3676 3.13515 41.1367 3.3626C40.9055 3.59004 40.7218 3.86072 40.5959 4.15915C40.4698 4.45759 40.404 4.7779 40.4023 5.10174V12.5384C40.404 12.8622 40.4698 13.1826 40.5959 13.481C40.7218 13.7794 40.9055 14.0501 41.1367 14.2775C41.3676 14.505 41.6414 14.6847 41.942 14.8064C42.2427 14.9281 42.5646 14.9894 42.8891 14.9867H50.4227C50.7467 14.9885 51.0677 14.9266 51.3676 14.8045C51.6675 14.6824 51.9406 14.5025 52.1707 14.2752C52.401 14.0478 52.5842 13.7774 52.7098 13.4794C52.8354 13.1814 52.9011 12.8617 52.9027 12.5384V5.10174C52.9011 4.77847 52.8354 4.4587 52.7098 4.1607C52.5842 3.86272 52.401 3.59232 52.1707 3.36497C51.9406 3.13762 51.6675 2.95777 51.3676 2.83567C51.0677 2.71359 50.7467 2.65165 50.4227 2.6534ZM50.4043 12.5201H42.9074V5.12007H50.401L50.4043 12.5201Z"/>
<path d="M76.8088 2.6535H69.4605C69.1365 2.65175 68.8155 2.71369 68.5156 2.83577C68.2156 2.95787 67.9426 3.13772 67.7125 3.36507C67.4822 3.59242 67.2989 3.86282 67.1734 4.1608C67.0478 4.4588 66.9821 4.77857 66.9805 5.10184V14.9868H69.4856V10.9352H76.8004V14.9868H79.3055V5.10184C79.3038 4.77715 79.2377 4.45602 79.1111 4.15692C78.9843 3.85784 78.7998 3.5867 78.5677 3.35912C78.3357 3.13155 78.0608 2.95205 77.7589 2.83095C77.4569 2.70985 77.1341 2.64955 76.8088 2.6535ZM76.7904 8.4685H69.4755V5.12017H76.7904V8.4685Z"/>
<path d="M106.061 2.65336H98.7125C98.3885 2.65161 98.0675 2.71354 97.7675 2.83562C97.4676 2.95772 97.1947 3.13757 96.9644 3.36492C96.7341 3.59227 96.5509 3.86267 96.4253 4.16066C96.2997 4.45866 96.2341 4.77842 96.2324 5.10169V14.9867H98.7375V10.935H106.036V14.9867H108.541V5.10169C108.539 4.77842 108.473 4.45866 108.348 4.16066C108.222 3.86267 108.039 3.59227 107.809 3.36492C107.578 3.13757 107.306 2.95772 107.006 2.83562C106.706 2.71354 106.385 2.65161 106.061 2.65336ZM106.036 8.46836H98.7208V5.12002H106.036V8.46836Z"/>
<path d="M91.5059 12.52H90.5039L86.9216 3.68668C86.7989 3.38193 86.5876 3.12074 86.315 2.93664C86.0425 2.75252 85.721 2.65388 85.3918 2.65334H83.169C82.9529 2.65224 82.7388 2.69362 82.5389 2.77511C82.3388 2.85661 82.1569 2.97661 82.0033 3.12828C81.8498 3.27996 81.7277 3.46031 81.6441 3.65908C81.5604 3.85783 81.5168 4.07109 81.5156 4.28668V14.9867H84.0207V5.12001H85.0227L88.6033 13.9533C88.7281 14.2575 88.941 14.5176 89.2148 14.7005C89.4883 14.8834 89.8105 14.9807 90.1398 14.98H92.3627C92.5788 14.9811 92.7929 14.9397 92.9928 14.8582C93.1928 14.7768 93.3747 14.6567 93.5283 14.5051C93.6818 14.3534 93.8039 14.173 93.8876 13.9743C93.9712 13.7755 94.0148 13.5623 94.016 13.3467V2.65334H91.5059V12.52Z"/>
<path d="M57.6203 2.65332H55.1152V12.5383C55.1169 12.8623 55.1829 13.1828 55.309 13.4813C55.4351 13.7798 55.6189 14.0506 55.8501 14.2781C56.0812 14.5055 56.3552 14.6852 56.656 14.8068C56.957 14.9284 57.279 14.9895 57.6036 14.9867H65.1189V12.52H57.6203V2.65332Z"/>
</g>
</g>
<defs>
<clipPath id="clip0_1251_9214">
<rect width="107.886" height="16" fill="white" transform="translate(0.65625 0.820312)"/>
</clipPath>
</defs>
</svg>
