<svg width="144" height="144" viewBox="0 0 144 144" fill="none" xmlns="http://www.w3.org/2000/svg">
<mask id="path-1-inside-1_3723_54420" fill="white">
<path fill-rule="evenodd" clip-rule="evenodd" d="M4 144H144V140H4V0H0V140V144H4Z"/>
</mask>
<path fill-rule="evenodd" clip-rule="evenodd" d="M4 144H144V140H4V0H0V140V144H4Z" fill="white"/>
<path d="M144 144V145H145V144H144ZM144 140H145V139H144V140ZM4 140H3V141H4V140ZM4 0H5V-1H4V0ZM0 0V-1H-1V0H0ZM0 144H-1V145H0V144ZM144 143H4V145H144V143ZM143 140V144H145V140H143ZM4 141H144V139H4V141ZM3 0V140H5V0H3ZM0 1H4V-1H0V1ZM1 140V0H-1V140H1ZM1 144V140H-1V144H1ZM4 143H0V145H4V143Z" fill="#D9D9D9" mask="url(#path-1-inside-1_3723_54420)"/>
<line x1="4.3" y1="140.4" x2="0.3" y2="143.4" stroke="#D9D9D9"/>
</svg>
